{
.appVersion = "895";
copyright = "Copyright 2016 The Montserrat and Sector Project Authors";
customParameters = (
{
name = fsType;
value = (
);
},
{
name = license;
value = "This Font Software is licensed under the SIL Open Font License Version 1.1.";
},
{
name = licenseURL;
value = "http://scripts.sil.org/OFL";
}
);
date = "2016-04-14 23:39:46 +0000";
designer = "Montserrat by Julieta Ulanovsky; Sector Gurmukhi by Gunnar Vilhjalmsson";
designerURL = "Montserrat http://www.zkysky.com.ar; Sector Gurmukhi http://universalthirst.com";
familyName = Sector;
fontMaster = (
{
alignmentZones = (
"{850, 16}",
"{680, 20}",
"{680, 16}",
"{0, -16}",
"{-194, -16}"
);
ascender = 900;
capHeight = 680;
descender = -200;
id = "66FBD069-7978-4D3C-B543-2EFDE6A4602F";
weight = Light;
weightValue = 20;
xHeight = 680;
}
);
glyphs = (
{
glyphname = A;
layers = (
{
anchors = (
{
name = ogonek;
position = "{733, 10}";
},
{
name = top;
position = "{343, 699}";
}
);
layerId = "66FBD069-7978-4D3C-B543-2EFDE6A4602F";
paths = (
{
closed = 1;
nodes = (
"330 699 LINE",
"10 0 LINE",
"34 0 LINE",
"341 676 LINE",
"653 0 LINE",
"676 0 LINE",
"352 699 LINE"
);
},
{
closed = 1;
nodes = (
"125 233 LINE",
"125 213 LINE",
"559 213 LINE",
"559 233 LINE"
);
}
);
width = 686;
}
);
leftKerningGroup = A;
rightKerningGroup = A;
unicode = 0041;
},
{
glyphname = Aogonek;
layers = (
{
layerId = "66FBD069-7978-4D3C-B543-2EFDE6A4602F";
paths = (
{
closed = 1;
nodes = (
"330 699 LINE",
"10 0 LINE",
"34 0 LINE",
"131 213 LINE",
"555 213 LINE",
"653 0 LINE",
"654 0 LINE",
"612 -62 OFFCURVE",
"595 -99 OFFCURVE",
"595 -131 CURVE SMOOTH",
"595 -172 OFFCURVE",
"623 -199 OFFCURVE",
"659 -199 CURVE SMOOTH",
"686 -199 OFFCURVE",
"714 -181 OFFCURVE",
"733 -159 CURVE",
"719 -145 LINE",
"701 -165 OFFCURVE",
"681 -179 OFFCURVE",
"659 -179 CURVE SMOOTH",
"634 -179 OFFCURVE",
"615 -162 OFFCURVE",
"615 -131 CURVE SMOOTH",
"615 -102 OFFCURVE",
"624 -69 OFFCURVE",
"675 0 CURVE",
"676 0 LINE",
"352 699 LINE"
);
},
{
closed = 1;
nodes = (
"546 233 LINE",
"140 233 LINE",
"341 676 LINE"
);
}
);
width = 686;
}
);
leftKerningGroup = A;
rightKerningGroup = A;
unicode = 0104;
},
{
glyphname = Aring;
layers = (
{
components = (
{
name = A;
}
);
layerId = "66FBD069-7978-4D3C-B543-2EFDE6A4602F";
paths = (
{
closed = 1;
nodes = (
"282 896 OFFCURVE",
"231 845 OFFCURVE",
"231 787 CURVE SMOOTH",
"231 729 OFFCURVE",
"282 679 OFFCURVE",
"343 679 CURVE SMOOTH",
"404 679 OFFCURVE",
"456 729 OFFCURVE",
"456 787 CURVE SMOOTH",
"456 845 OFFCURVE",
"404 896 OFFCURVE",
"343 896 CURVE SMOOTH"
);
},
{
closed = 1;
nodes = (
"393 876 OFFCURVE",
"436 835 OFFCURVE",
"436 787 CURVE SMOOTH",
"436 739 OFFCURVE",
"393 699 OFFCURVE",
"343 699 CURVE SMOOTH",
"293 699 OFFCURVE",
"251 739 OFFCURVE",
"251 787 CURVE SMOOTH",
"251 835 OFFCURVE",
"293 876 OFFCURVE",
"343 876 CURVE SMOOTH"
);
}
);
width = 686;
}
);
leftKerningGroup = A;
leftMetricsKey = A;
rightKerningGroup = A;
rightMetricsKey = A;
unicode = 00C5;
},
{
glyphname = AE;
layers = (
{
anchors = (
{
name = bottom;
position = "{665, 0}";
},
{
name = ogonek;
position = "{923, 10}";
},
{
name = top;
position = "{598, 699}";
}
);
layerId = "66FBD069-7978-4D3C-B543-2EFDE6A4602F";
paths = (
{
closed = 1;
nodes = (
"431 699 LINE",
"10 0 LINE",
"34 0 LINE",
"442 679 LINE",
"730 679 LINE",
"736 699 LINE"
);
},
{
closed = 1;
nodes = (
"157 243 LINE",
"156 223 LINE",
"486 223 LINE",
"487 243 LINE"
);
},
{
closed = 1;
nodes = (
"471 699 LINE",
"471 0 LINE",
"922 0 LINE",
"922 20 LINE",
"491 20 LINE",
"491 350 LINE",
"862 350 LINE",
"862 370 LINE",
"491 370 LINE",
"491 679 LINE",
"908 679 LINE",
"908 699 LINE"
);
}
);
width = 987;
}
);
leftKerningGroup = A;
leftMetricsKey = A;
rightKerningGroup = E;
rightMetricsKey = E;
unicode = 00C6;
},
{
glyphname = B;
layers = (
{
layerId = "66FBD069-7978-4D3C-B543-2EFDE6A4602F";
paths = (
{
closed = 1;
nodes = (
"128 699 LINE",
"128 0 LINE",
"409 0 LINE SMOOTH",
"568 0 OFFCURVE",
"659 68 OFFCURVE",
"659 187 CURVE SMOOTH",
"659 286 OFFCURVE",
"595 351 OFFCURVE",
"484 364 CURVE",
"572 379 OFFCURVE",
"622 438 OFFCURVE",
"622 526 CURVE SMOOTH",
"622 636 OFFCURVE",
"544 699 OFFCURVE",
"409 699 CURVE SMOOTH"
);
},
{
closed = 1;
nodes = (
"556 353 OFFCURVE",
"640 293 OFFCURVE",
"640 188 CURVE SMOOTH",
"640 81 OFFCURVE",
"556 20 OFFCURVE",
"409 20 CURVE SMOOTH",
"148 20 LINE",
"148 353 LINE",
"409 353 LINE SMOOTH"
);
},
{
closed = 1;
nodes = (
"532 679 OFFCURVE",
"602 623 OFFCURVE",
"602 526 CURVE SMOOTH",
"602 428 OFFCURVE",
"532 372 OFFCURVE",
"409 372 CURVE SMOOTH",
"148 372 LINE",
"148 679 LINE",
"409 679 LINE SMOOTH"
);
}
);
width = 731;
}
);
leftKerningGroup = H;
rightKerningGroup = B;
unicode = 0042;
},
{
glyphname = C;
layers = (
{
anchors = (
{
name = bottom;
position = "{397, 0}";
},
{
name = top;
position = "{353, 699}";
}
);
layerId = "66FBD069-7978-4D3C-B543-2EFDE6A4602F";
paths = (
{
closed = 1;
nodes = (
"212 699 OFFCURVE",
"50 542 OFFCURVE",
"50 350 CURVE SMOOTH",
"50 158 OFFCURVE",
"212 0 OFFCURVE",
"409 0 CURVE SMOOTH",
"501 0 OFFCURVE",
"586 35 OFFCURVE",
"650 91 CURVE",
"636 104 LINE",
"576 51 OFFCURVE",
"496 19 OFFCURVE",
"409 19 CURVE SMOOTH",
"222 19 OFFCURVE",
"69 168 OFFCURVE",
"69 350 CURVE SMOOTH",
"69 532 OFFCURVE",
"222 680 OFFCURVE",
"409 680 CURVE SMOOTH",
"496 680 OFFCURVE",
"576 649 OFFCURVE",
"636 596 CURVE",
"649 609 LINE",
"585 665 OFFCURVE",
"501 699 OFFCURVE",
"409 699 CURVE SMOOTH"
);
}
);
width = 705;
}
);
leftKerningGroup = O;
rightKerningGroup = C;
unicode = 0043;
},
{
glyphname = D;
layers = (
{
anchors = (
{
name = center;
position = "{406, 350}";
},
{
name = top;
position = "{386, 699}";
}
);
layerId = "66FBD069-7978-4D3C-B543-2EFDE6A4602F";
paths = (
{
closed = 1;
nodes = (
"128 699 LINE",
"128 0 LINE",
"403 0 LINE SMOOTH",
"600 0 OFFCURVE",
"761 157 OFFCURVE",
"761 349 CURVE SMOOTH",
"761 542 OFFCURVE",
"600 699 OFFCURVE",
"403 699 CURVE SMOOTH"
);
},
{
closed = 1;
nodes = (
"589 679 OFFCURVE",
"741 531 OFFCURVE",
"741 349 CURVE SMOOTH",
"741 168 OFFCURVE",
"589 20 OFFCURVE",
"403 20 CURVE SMOOTH",
"148 20 LINE",
"148 679 LINE",
"403 679 LINE SMOOTH"
);
}
);
width = 811;
}
);
leftKerningGroup = H;
rightKerningGroup = O;
unicode = 0044;
},
{
glyphname = Eth;
layers = (
{
components = (
{
name = D;
}
);
layerId = "66FBD069-7978-4D3C-B543-2EFDE6A4602F";
paths = (
{
closed = 1;
nodes = (
"0 362 LINE",
"0 342 LINE",
"410 342 LINE",
"410 362 LINE"
);
}
);
width = 811;
}
);
leftKerningGroup = H;
rightKerningGroup = O;
rightMetricsKey = D;
unicode = 00D0;
},
{
glyphname = E;
layers = (
{
anchors = (
{
name = bottom;
position = "{322, 0}";
},
{
name = ogonek;
position = "{580, 10}";
},
{
name = top;
position = "{351, 699}";
}
);
layerId = "66FBD069-7978-4D3C-B543-2EFDE6A4602F";
paths = (
{
closed = 1;
nodes = (
"128 699 LINE",
"128 0 LINE",
"579 0 LINE",
"579 20 LINE",
"148 20 LINE",
"148 350 LINE",
"519 350 LINE",
"519 370 LINE",
"148 370 LINE",
"148 679 LINE",
"565 679 LINE",
"565 699 LINE"
);
}
);
width = 644;
}
);
leftKerningGroup = H;
rightKerningGroup = E;
unicode = 0045;
},
{
glyphname = Eogonek;
layers = (
{
layerId = "66FBD069-7978-4D3C-B543-2EFDE6A4602F";
paths = (
{
closed = 1;
nodes = (
"128 699 LINE",
"128 0 LINE",
"502 0 LINE",
"458 -62 OFFCURVE",
"442 -99 OFFCURVE",
"442 -131 CURVE SMOOTH",
"442 -172 OFFCURVE",
"470 -199 OFFCURVE",
"506 -199 CURVE SMOOTH",
"533 -199 OFFCURVE",
"561 -181 OFFCURVE",
"580 -159 CURVE",
"566 -145 LINE",
"548 -165 OFFCURVE",
"528 -179 OFFCURVE",
"506 -179 CURVE SMOOTH",
"481 -179 OFFCURVE",
"462 -162 OFFCURVE",
"462 -131 CURVE SMOOTH",
"462 -100 OFFCURVE",
"474 -66 OFFCURVE",
"522 0 CURVE",
"579 0 LINE",
"579 20 LINE",
"148 20 LINE",
"148 350 LINE",
"519 350 LINE",
"519 370 LINE",
"148 370 LINE",
"148 679 LINE",
"565 679 LINE",
"565 699 LINE"
);
}
);
width = 644;
}
);
leftKerningGroup = H;
rightKerningGroup = E;
unicode = 0118;
},
{
glyphname = F;
layers = (
{
layerId = "66FBD069-7978-4D3C-B543-2EFDE6A4602F";
paths = (
{
closed = 1;
nodes = (
"128 699 LINE",
"128 0 LINE",
"148 0 LINE",
"148 323 LINE",
"489 323 LINE",
"489 343 LINE",
"148 343 LINE",
"148 679 LINE",
"535 679 LINE",
"535 699 LINE"
);
}
);
width = 545;
}
);
leftKerningGroup = H;
rightKerningGroup = F;
unicode = 0046;
},
{
glyphname = G;
layers = (
{
anchors = (
{
name = bottom;
position = "{380, 0}";
},
{
name = top;
position = "{380, 699}";
}
);
layerId = "66FBD069-7978-4D3C-B543-2EFDE6A4602F";
paths = (
{
closed = 1;
nodes = (
"212 699 OFFCURVE",
"50 542 OFFCURVE",
"50 350 CURVE SMOOTH",
"50 158 OFFCURVE",
"212 0 OFFCURVE",
"409 0 CURVE SMOOTH",
"501 0 OFFCURVE",
"586 35 OFFCURVE",
"650 91 CURVE",
"636 104 LINE",
"576 51 OFFCURVE",
"496 19 OFFCURVE",
"409 19 CURVE SMOOTH",
"222 19 OFFCURVE",
"69 168 OFFCURVE",
"69 350 CURVE SMOOTH",
"69 532 OFFCURVE",
"222 680 OFFCURVE",
"409 680 CURVE SMOOTH",
"496 680 OFFCURVE",
"576 649 OFFCURVE",
"636 596 CURVE",
"649 609 LINE",
"585 665 OFFCURVE",
"501 699 OFFCURVE",
"409 699 CURVE SMOOTH"
);
},
{
closed = 1;
nodes = (
"630 343 LINE",
"630 91 LINE",
"650 91 LINE",
"650 343 LINE"
);
}
);
width = 760;
}
);
leftKerningGroup = O;
rightKerningGroup = G;
unicode = 0047;
},
{
glyphname = H;
layers = (
{
anchors = (
{
name = center;
position = "{400, 350}";
},
{
name = top;
position = "{400, 699}";
}
);
layerId = "66FBD069-7978-4D3C-B543-2EFDE6A4602F";
paths = (
{
closed = 1;
nodes = (
"651 699 LINE",
"651 363 LINE",
"148 363 LINE",
"148 699 LINE",
"128 699 LINE",
"128 0 LINE",
"148 0 LINE",
"148 343 LINE",
"651 343 LINE",
"651 0 LINE",
"671 0 LINE",
"671 699 LINE"
);
}
);
width = 799;
}
);
leftKerningGroup = H;
rightKerningGroup = H;
unicode = 0048;
},
{
glyphname = Hbar;
layers = (
{
components = (
{
name = H;
transform = "{1, 0, 0, 1, 10, 0}";
}
);
layerId = "66FBD069-7978-4D3C-B543-2EFDE6A4602F";
paths = (
{
closed = 1;
nodes = (
"58 548 LINE",
"58 528 LINE",
"761 528 LINE",
"761 548 LINE"
);
}
);
width = 819;
}
);
leftKerningGroup = H;
rightKerningGroup = H;
unicode = 0126;
},
{
glyphname = I;
layers = (
{
anchors = (
{
name = ogonek;
position = "{206, 10}";
},
{
name = top;
position = "{138, 699}";
}
);
layerId = "66FBD069-7978-4D3C-B543-2EFDE6A4602F";
paths = (
{
closed = 1;
nodes = (
"128 699 LINE",
"128 0 LINE",
"148 0 LINE",
"148 699 LINE"
);
}
);
width = 276;
}
);
leftKerningGroup = H;
rightKerningGroup = H;
unicode = 0049;
},
{
glyphname = Iogonek;
layers = (
{
layerId = "66FBD069-7978-4D3C-B543-2EFDE6A4602F";
paths = (
{
closed = 1;
nodes = (
"192 -145 LINE",
"174 -165 OFFCURVE",
"154 -179 OFFCURVE",
"132 -179 CURVE SMOOTH",
"107 -179 OFFCURVE",
"88 -162 OFFCURVE",
"88 -131 CURVE SMOOTH",
"88 -100 OFFCURVE",
"99 -66 OFFCURVE",
"147 0 CURVE",
"148 0 LINE",
"148 699 LINE",
"128 699 LINE",
"128 4 LINE",
"129 4 LINE",
"85 -58 OFFCURVE",
"68 -99 OFFCURVE",
"68 -131 CURVE SMOOTH",
"68 -172 OFFCURVE",
"96 -199 OFFCURVE",
"132 -199 CURVE SMOOTH",
"159 -199 OFFCURVE",
"187 -181 OFFCURVE",
"206 -159 CURVE"
);
}
);
width = 276;
}
);
leftKerningGroup = H;
rightKerningGroup = H;
unicode = 012E;
},
{
glyphname = J;
layers = (
{
anchors = (
{
name = top;
position = "{204, 699}";
}
);
layerId = "66FBD069-7978-4D3C-B543-2EFDE6A4602F";
paths = (
{
closed = 1;
nodes = (
"67 699 LINE",
"67 679 LINE",
"329 679 LINE",
"329 197 LINE",
"329 82 OFFCURVE",
"275 20 OFFCURVE",
"177 20 CURVE",
"114 20 OFFCURVE",
"58 52 OFFCURVE",
"17 112 CURVE",
"3 98 LINE",
"47 35 OFFCURVE",
"109 0 OFFCURVE",
"177 0 CURVE",
"288 0 OFFCURVE",
"349 70 OFFCURVE",
"349 197 CURVE",
"349 699 LINE"
);
}
);
width = 459;
}
);
leftKerningGroup = J;
rightKerningGroup = U;
unicode = 004A;
},
{
glyphname = K;
layers = (
{
anchors = (
{
name = bottom;
position = "{335, 0}";
},
{
name = top;
position = "{335, 699}";
}
);
layerId = "66FBD069-7978-4D3C-B543-2EFDE6A4602F";
paths = (
{
closed = 1;
nodes = (
"590 699 LINE",
"148 220 LINE",
"148 699 LINE",
"128 699 LINE",
"128 0 LINE",
"148 0 LINE",
"148 191 LINE",
"618 699 LINE"
);
},
{
closed = 1;
nodes = (
"308 376 LINE",
"613 0 LINE",
"640 0 LINE",
"320 394 LINE"
);
}
);
width = 670;
}
);
leftKerningGroup = H;
rightKerningGroup = X;
unicode = 004B;
},
{
glyphname = L;
layers = (
{
anchors = (
{
name = bottom;
position = "{288, 0}";
},
{
name = top;
position = "{148, 699}";
}
);
layerId = "66FBD069-7978-4D3C-B543-2EFDE6A4602F";
paths = (
{
closed = 1;
nodes = (
"128 699 LINE",
"128 0 LINE",
"461 0 LINE",
"461 20 LINE",
"148 20 LINE",
"148 699 LINE"
);
}
);
width = 491;
}
);
leftKerningGroup = H;
rightKerningGroup = L;
unicode = 004C;
},
{
glyphname = Lslash;
layers = (
{
components = (
{
name = L;
transform = "{1, 0, 0, 1, 12, 0}";
}
);
layerId = "66FBD069-7978-4D3C-B543-2EFDE6A4602F";
paths = (
{
closed = 1;
nodes = (
"36 428 LINE",
"41 409 LINE",
"349 497 LINE",
"344 517 LINE"
);
}
);
width = 503;
}
);
leftKerningGroup = H;
rightKerningGroup = L;
rightMetricsKey = L;
unicode = 0141;
},
{
glyphname = M;
layers = (
{
layerId = "66FBD069-7978-4D3C-B543-2EFDE6A4602F";
paths = (
{
closed = 1;
nodes = (
"751 699 LINE",
"458 120 LINE SMOOTH",
"163 699 LINE",
"128 699 LINE",
"128 0 LINE",
"148 0 LINE",
"148 680 LINE",
"456 77 LINE",
"458 77 LINE",
"765 680 LINE",
"766 0 LINE",
"786 0 LINE",
"786 699 LINE"
);
}
);
width = 914;
}
);
leftKerningGroup = H;
rightKerningGroup = H;
unicode = 004D;
},
{
glyphname = N;
layers = (
{
anchors = (
{
name = bottom;
position = "{400, 0}";
},
{
name = top;
position = "{400, 699}";
}
);
layerId = "66FBD069-7978-4D3C-B543-2EFDE6A4602F";
paths = (
{
closed = 1;
nodes = (
"651 699 LINE",
"651 20 LINE",
"158 699 LINE",
"128 699 LINE",
"128 0 LINE",
"148 0 LINE",
"148 679 LINE",
"641 0 LINE",
"671 0 LINE",
"671 699 LINE"
);
}
);
width = 799;
}
);
leftKerningGroup = H;
rightKerningGroup = H;
unicode = 004E;
},
{
glyphname = Eng;
layers = (
{
anchors = (
{
name = bottom;
position = "{400, 0}";
},
{
name = top;
position = "{400, 699}";
}
);
layerId = "66FBD069-7978-4D3C-B543-2EFDE6A4602F";
paths = (
{
closed = 1;
nodes = (
"651 -114 OFFCURVE",
"597 -176 OFFCURVE",
"499 -176 CURVE SMOOTH",
"436 -176 OFFCURVE",
"380 -144 OFFCURVE",
"339 -84 CURVE",
"325 -98 LINE",
"369 -161 OFFCURVE",
"431 -196 OFFCURVE",
"499 -196 CURVE SMOOTH",
"610 -196 OFFCURVE",
"671 -126 OFFCURVE",
"671 0 CURVE",
"651 3 LINE"
);
},
{
closed = 1;
nodes = (
"651 699 LINE",
"651 20 LINE",
"158 699 LINE",
"128 699 LINE",
"128 0 LINE",
"148 0 LINE",
"148 679 LINE",
"641 0 LINE",
"671 0 LINE",
"671 699 LINE"
);
}
);
width = 799;
}
);
leftKerningGroup = H;
rightKerningGroup = H;
unicode = 014A;
},
{
glyphname = O;
layers = (
{
anchors = (
{
name = top;
position = "{409, 699}";
}
);
layerId = "66FBD069-7978-4D3C-B543-2EFDE6A4602F";
paths = (
{
closed = 1;
nodes = (
"212 699 OFFCURVE",
"50 542 OFFCURVE",
"50 350 CURVE SMOOTH",
"50 158 OFFCURVE",
"212 0 OFFCURVE",
"409 0 CURVE SMOOTH",
"606 0 OFFCURVE",
"768 158 OFFCURVE",
"768 350 CURVE SMOOTH",
"768 542 OFFCURVE",
"606 699 OFFCURVE",
"409 699 CURVE SMOOTH"
);
},
{
closed = 1;
nodes = (
"595 679 OFFCURVE",
"748 531 OFFCURVE",
"748 350 CURVE SMOOTH",
"748 169 OFFCURVE",
"595 20 OFFCURVE",
"409 20 CURVE SMOOTH",
"223 20 OFFCURVE",
"70 169 OFFCURVE",
"70 350 CURVE SMOOTH",
"70 531 OFFCURVE",
"223 679 OFFCURVE",
"409 679 CURVE SMOOTH"
);
}
);
width = 818;
}
);
leftKerningGroup = O;
rightKerningGroup = O;
unicode = 004F;
},
{
glyphname = Oslash;
layers = (
{
anchors = (
{
name = top;
position = "{409, 699}";
}
);
components = (
{
name = O;
}
);
layerId = "66FBD069-7978-4D3C-B543-2EFDE6A4602F";
paths = (
{
closed = 1;
nodes = (
"538 816 LINE",
"232 -140 LINE",
"253 -140 LINE",
"559 816 LINE"
);
}
);
width = 818;
}
);
leftKerningGroup = O;
leftMetricsKey = O;
rightKerningGroup = O;
rightMetricsKey = O;
unicode = 00D8;
},
{
glyphname = OE;
layers = (
{
anchors = (
{
name = bottom;
position = "{767, 0}";
},
{
name = ogonek;
position = "{1025, 10}";
},
{
name = top;
position = "{545, 699}";
}
);
layerId = "66FBD069-7978-4D3C-B543-2EFDE6A4602F";
paths = (
{
closed = 1;
nodes = (
"409 699 LINE",
"212 699 OFFCURVE",
"50 542 OFFCURVE",
"50 350 CURVE SMOOTH",
"50 158 OFFCURVE",
"212 0 OFFCURVE",
"409 0 CURVE",
"579 0 LINE",
"578 17 LINE",
"409 19 LINE",
"222 19 OFFCURVE",
"69 168 OFFCURVE",
"69 350 CURVE SMOOTH",
"69 532 OFFCURVE",
"222 680 OFFCURVE",
"409 680 CURVE",
"579 680 LINE",
"581 699 LINE"
);
},
{
closed = 1;
nodes = (
"573 699 LINE",
"573 0 LINE",
"1024 0 LINE",
"1024 20 LINE",
"593 20 LINE",
"593 350 LINE",
"964 350 LINE",
"964 370 LINE",
"593 370 LINE",
"593 679 LINE",
"1010 679 LINE",
"1010 699 LINE"
);
}
);
width = 1089;
}
);
leftKerningGroup = O;
leftMetricsKey = O;
rightKerningGroup = E;
rightMetricsKey = E;
unicode = 0152;
},
{
glyphname = P;
layers = (
{
layerId = "66FBD069-7978-4D3C-B543-2EFDE6A4602F";
paths = (
{
closed = 1;
nodes = (
"128 699 LINE",
"128 0 LINE",
"148 0 LINE",
"148 240 LINE",
"365 240 LINE SMOOTH",
"535 240 OFFCURVE",
"632 325 OFFCURVE",
"632 472 CURVE SMOOTH",
"632 616 OFFCURVE",
"535 699 OFFCURVE",
"365 699 CURVE SMOOTH"
);
},
{
closed = 1;
nodes = (
"522 679 OFFCURVE",
"612 604 OFFCURVE",
"612 472 CURVE SMOOTH",
"612 337 OFFCURVE",
"522 260 OFFCURVE",
"365 260 CURVE SMOOTH",
"148 260 LINE",
"148 679 LINE",
"365 679 LINE SMOOTH"
);
}
);
width = 662;
}
);
leftKerningGroup = H;
rightKerningGroup = P;
unicode = 0050;
},
{
glyphname = Thorn;
layers = (
{
layerId = "66FBD069-7978-4D3C-B543-2EFDE6A4602F";
paths = (
{
closed = 1;
nodes = (
"139 587 LINE",
"141 567 LINE",
"335 567 LINE SMOOTH",
"521 567 OFFCURVE",
"612 501 OFFCURVE",
"612 367 CURVE SMOOTH",
"612 229 OFFCURVE",
"521 162 OFFCURVE",
"335 162 CURVE SMOOTH",
"143 162 LINE",
"143 142 LINE",
"335 142 LINE SMOOTH",
"534 142 OFFCURVE",
"632 216 OFFCURVE",
"632 367 CURVE SMOOTH",
"632 515 OFFCURVE",
"534 587 OFFCURVE",
"335 587 CURVE SMOOTH"
);
},
{
closed = 1;
nodes = (
"128 699 LINE",
"128 0 LINE",
"148 0 LINE",
"148 699 LINE"
);
}
);
width = 662;
}
);
leftKerningGroup = H;
leftMetricsKey = H;
rightKerningGroup = Thorn;
rightMetricsKey = P;
unicode = 00DE;
},
{
glyphname = Q;
layers = (
{
components = (
{
name = O;
}
);
layerId = "66FBD069-7978-4D3C-B543-2EFDE6A4602F";
paths = (
{
closed = 1;
nodes = (
"429 3 LINE",
"508 -82 OFFCURVE",
"579 -124 OFFCURVE",
"648 -124 CURVE SMOOTH",
"701 -124 OFFCURVE",
"754 -99 OFFCURVE",
"808 -48 CURVE",
"794 -34 LINE",
"744 -81 OFFCURVE",
"696 -105 OFFCURVE",
"648 -105 CURVE SMOOTH",
"585 -105 OFFCURVE",
"520 -65 OFFCURVE",
"443 17 CURVE"
);
}
);
width = 839;
}
);
leftKerningGroup = O;
rightKerningGroup = O;
unicode = 0051;
},
{
glyphname = R;
layers = (
{
anchors = (
{
name = bottom;
position = "{361, 0}";
},
{
name = top;
position = "{341, 699}";
}
);
layerId = "66FBD069-7978-4D3C-B543-2EFDE6A4602F";
paths = (
{
closed = 1;
nodes = (
"128 699 LINE",
"128 0 LINE",
"148 0 LINE",
"148 240 LINE",
"365 240 LINE SMOOTH",
"535 240 OFFCURVE",
"632 325 OFFCURVE",
"632 472 CURVE SMOOTH",
"632 616 OFFCURVE",
"535 699 OFFCURVE",
"365 699 CURVE SMOOTH"
);
},
{
closed = 1;
nodes = (
"422 254 LINE",
"607 0 LINE",
"632 0 LINE",
"447 254 LINE"
);
},
{
closed = 1;
nodes = (
"522 679 OFFCURVE",
"612 604 OFFCURVE",
"612 472 CURVE SMOOTH",
"612 337 OFFCURVE",
"522 260 OFFCURVE",
"365 260 CURVE SMOOTH",
"148 260 LINE",
"148 679 LINE",
"365 679 LINE SMOOTH"
);
}
);
width = 722;
}
);
leftKerningGroup = H;
rightKerningGroup = R;
unicode = 0052;
},
{
glyphname = S;
layers = (
{
anchors = (
{
name = bottom;
position = "{297, 0}";
},
{
name = top;
position = "{287, 699}";
}
);
layerId = "66FBD069-7978-4D3C-B543-2EFDE6A4602F";
paths = (
{
closed = 1;
nodes = (
"167 699 OFFCURVE",
"79 638 OFFCURVE",
"79 544 CURVE",
"79 290 OFFCURVE",
"499 410 OFFCURVE",
"497 170 CURVE",
"497 79 OFFCURVE",
"412 20 OFFCURVE",
"280 20 CURVE",
"196 20 OFFCURVE",
"108 56 OFFCURVE",
"55 112 CURVE",
"41 98 LINE",
"99 39 OFFCURVE",
"192 0 OFFCURVE",
"280 0 CURVE",
"424 0 OFFCURVE",
"517 67 OFFCURVE",
"517 170 CURVE",
"519 430 OFFCURVE",
"99 310 OFFCURVE",
"99 544 CURVE",
"99 626 OFFCURVE",
"179 679 OFFCURVE",
"302 679 CURVE",
"364 679 OFFCURVE",
"433 661 OFFCURVE",
"478 632 CURVE",
"488 648 LINE",
"440 679 OFFCURVE",
"367 699 OFFCURVE",
"302 699 CURVE"
);
}
);
width = 593;
}
);
leftKerningGroup = S;
rightKerningGroup = S;
unicode = 0053;
},
{
glyphname = T;
layers = (
{
anchors = (
{
name = bottom;
position = "{258, 0}";
},
{
name = center;
position = "{263, 350}";
},
{
name = top;
position = "{263, 699}";
}
);
layerId = "66FBD069-7978-4D3C-B543-2EFDE6A4602F";
paths = (
{
closed = 1;
nodes = (
"13 699 LINE",
"13 679 LINE",
"253 679 LINE",
"253 0 LINE",
"273 0 LINE",
"273 679 LINE",
"513 679 LINE",
"513 699 LINE"
);
}
);
width = 526;
}
);
leftKerningGroup = T;
rightKerningGroup = T;
unicode = 0054;
},
{
glyphname = U;
layers = (
{
anchors = (
{
name = ogonek;
position = "{527, 10}";
},
{
name = top;
position = "{387, 699}";
}
);
layerId = "66FBD069-7978-4D3C-B543-2EFDE6A4602F";
paths = (
{
closed = 1;
nodes = (
"644 699 LINE",
"644 284 LINE",
"644 116 OFFCURVE",
"550 20 OFFCURVE",
"387 20 CURVE",
"224 20 OFFCURVE",
"130 116 OFFCURVE",
"130 284 CURVE",
"130 699 LINE",
"110 699 LINE",
"110 284 LINE",
"110 103 OFFCURVE",
"211 0 OFFCURVE",
"387 0 CURVE",
"563 0 OFFCURVE",
"664 103 OFFCURVE",
"664 284 CURVE",
"664 699 LINE"
);
}
);
width = 774;
}
);
leftKerningGroup = U;
rightKerningGroup = U;
unicode = 0055;
},
{
glyphname = Uogonek;
layers = (
{
layerId = "66FBD069-7978-4D3C-B543-2EFDE6A4602F";
paths = (
{
closed = 1;
nodes = (
"644 699 LINE",
"644 284 LINE",
"644 116 OFFCURVE",
"550 20 OFFCURVE",
"387 20 CURVE",
"224 20 OFFCURVE",
"130 116 OFFCURVE",
"130 284 CURVE",
"130 699 LINE",
"110 699 LINE",
"110 284 LINE",
"110 103 OFFCURVE",
"211 0 OFFCURVE",
"387 0 CURVE",
"563 0 OFFCURVE",
"664 103 OFFCURVE",
"664 284 CURVE",
"664 699 LINE"
);
},
{
closed = 1;
nodes = (
"464 23 LINE",
"409 -50 OFFCURVE",
"389 -93 OFFCURVE",
"389 -131 CURVE SMOOTH",
"389 -172 OFFCURVE",
"417 -199 OFFCURVE",
"453 -199 CURVE SMOOTH",
"480 -199 OFFCURVE",
"508 -181 OFFCURVE",
"527 -159 CURVE",
"513 -145 LINE",
"495 -165 OFFCURVE",
"475 -179 OFFCURVE",
"453 -179 CURVE SMOOTH",
"428 -179 OFFCURVE",
"409 -162 OFFCURVE",
"409 -131 CURVE SMOOTH",
"409 -95 OFFCURVE",
"424 -55 OFFCURVE",
"484 23 CURVE"
);
}
);
width = 774;
}
);
leftKerningGroup = U;
rightKerningGroup = U;
unicode = 0172;
},
{
glyphname = V;
layers = (
{
layerId = "66FBD069-7978-4D3C-B543-2EFDE6A4602F";
paths = (
{
closed = 1;
nodes = (
"592 699 LINE",
"313 23 LINE",
"33 699 LINE",
"10 699 LINE",
"302 0 LINE",
"324 0 LINE",
"616 699 LINE"
);
}
);
width = 626;
}
);
leftKerningGroup = V;
rightKerningGroup = V;
unicode = 0056;
},
{
glyphname = W;
layers = (
{
anchors = (
{
name = top;
position = "{494, 699}";
}
);
layerId = "66FBD069-7978-4D3C-B543-2EFDE6A4602F";
paths = (
{
closed = 1;
nodes = (
"954 699 LINE",
"730 23 LINE",
"505 699 LINE",
"482 699 LINE",
"258 23 LINE",
"33 699 LINE",
"10 699 LINE",
"247 0 LINE",
"268 0 LINE",
"494 671 LINE",
"719 0 LINE",
"740 0 LINE",
"977 699 LINE"
);
}
);
width = 987;
}
);
leftKerningGroup = V;
rightKerningGroup = V;
unicode = 0057;
},
{
glyphname = X;
layers = (
{
layerId = "66FBD069-7978-4D3C-B543-2EFDE6A4602F";
paths = (
{
closed = 1;
nodes = (
"537 699 LINE",
"306 379 LINE",
"76 699 LINE",
"52 699 LINE",
"294 362 LINE",
"33 0 LINE",
"57 0 LINE",
"306 346 LINE",
"556 0 LINE",
"580 0 LINE",
"318 362 LINE",
"561 699 LINE"
);
}
);
width = 623;
}
);
leftKerningGroup = X;
rightKerningGroup = X;
unicode = 0058;
},
{
glyphname = Y;
layers = (
{
anchors = (
{
name = top;
position = "{303, 699}";
}
);
layerId = "66FBD069-7978-4D3C-B543-2EFDE6A4602F";
paths = (
{
closed = 1;
nodes = (
"572 699 LINE",
"305 289 LINE",
"34 699 LINE",
"10 699 LINE",
"302 258 LINE",
"308 258 LINE",
"596 699 LINE"
);
},
{
closed = 1;
nodes = (
"295 277 LINE",
"295 0 LINE",
"315 0 LINE",
"315 277 LINE"
);
}
);
width = 606;
}
);
leftKerningGroup = V;
rightKerningGroup = V;
unicode = 0059;
},
{
glyphname = Z;
layers = (
{
anchors = (
{
name = top;
position = "{325, 699}";
}
);
layerId = "66FBD069-7978-4D3C-B543-2EFDE6A4602F";
paths = (
{
closed = 1;
nodes = (
"66 699 LINE",
"66 679 LINE",
"575 679 LINE",
"52 25 LINE",
"52 0 LINE",
"598 0 LINE",
"598 20 LINE",
"72 20 LINE",
"595 674 LINE",
"595 699 LINE"
);
}
);
width = 650;
}
);
leftKerningGroup = Z;
rightKerningGroup = Z;
unicode = 005A;
},
{
glyphname = A.ss01;
layers = (
{
anchors = (
{
name = ogonek;
position = "{697, 10}";
},
{
name = top;
position = "{387, 699}";
}
);
layerId = "66FBD069-7978-4D3C-B543-2EFDE6A4602F";
paths = (
{
closed = 1;
nodes = (
"212 699 OFFCURVE",
"110 594 OFFCURVE",
"110 415 CURVE SMOOTH",
"110 0 LINE",
"130 0 LINE",
"130 225 LINE",
"644 225 LINE",
"644 0 LINE",
"664 0 LINE",
"664 415 LINE SMOOTH",
"664 594 OFFCURVE",
"562 699 OFFCURVE",
"387 699 CURVE SMOOTH"
);
},
{
closed = 1;
nodes = (
"549 679 OFFCURVE",
"644 581 OFFCURVE",
"644 415 CURVE SMOOTH",
"644 245 LINE",
"130 245 LINE",
"130 415 LINE SMOOTH",
"130 581 OFFCURVE",
"225 679 OFFCURVE",
"387 679 CURVE SMOOTH"
);
}
);
width = 774;
}
);
leftKerningGroup = A.ss01;
leftMetricsKey = U;
rightKerningGroup = A.ss01;
rightMetricsKey = U;
},
{
glyphname = Aogonek.ss01;
layers = (
{
layerId = "66FBD069-7978-4D3C-B543-2EFDE6A4602F";
paths = (
{
closed = 1;
nodes = (
"212 699 OFFCURVE",
"110 594 OFFCURVE",
"110 415 CURVE SMOOTH",
"110 0 LINE",
"130 0 LINE",
"130 225 LINE",
"644 225 LINE",
"644 0 LINE",
"645 0 LINE",
"601 -63 OFFCURVE",
"583 -99 OFFCURVE",
"583 -131 CURVE SMOOTH",
"583 -172 OFFCURVE",
"611 -199 OFFCURVE",
"647 -199 CURVE SMOOTH",
"674 -199 OFFCURVE",
"702 -181 OFFCURVE",
"721 -159 CURVE",
"707 -145 LINE",
"689 -165 OFFCURVE",
"669 -179 OFFCURVE",
"647 -179 CURVE SMOOTH",
"622 -179 OFFCURVE",
"603 -162 OFFCURVE",
"603 -131 CURVE SMOOTH",
"603 -102 OFFCURVE",
"612 -69 OFFCURVE",
"663 0 CURVE",
"664 0 LINE",
"664 415 LINE SMOOTH",
"664 594 OFFCURVE",
"562 699 OFFCURVE",
"387 699 CURVE SMOOTH"
);
},
{
closed = 1;
nodes = (
"549 679 OFFCURVE",
"644 581 OFFCURVE",
"644 415 CURVE SMOOTH",
"644 245 LINE",
"130 245 LINE",
"130 415 LINE SMOOTH",
"130 581 OFFCURVE",
"225 679 OFFCURVE",
"387 679 CURVE SMOOTH"
);
}
);
width = 774;
}
);
leftKerningGroup = Aogonek.ss01;
rightKerningGroup = Aogonek.ss01;
},
{
glyphname = E.ss01;
layers = (
{
anchors = (
{
name = bottom;
position = "{269, 0}";
},
{
name = ogonek;
position = "{484, 10}";
},
{
name = top;
position = "{269, 699}";
}
);
layerId = "66FBD069-7978-4D3C-B543-2EFDE6A4602F";
paths = (
{
closed = 1;
nodes = (
"185 699 OFFCURVE",
"90 627 OFFCURVE",
"90 528 CURVE SMOOTH",
"90 450 OFFCURVE",
"157 383 OFFCURVE",
"249 370 CURVE",
"140 358 OFFCURVE",
"60 282 OFFCURVE",
"60 189 CURVE SMOOTH",
"60 80 OFFCURVE",
"167 0 OFFCURVE",
"313 0 CURVE SMOOTH",
"380 0 OFFCURVE",
"465 21 OFFCURVE",
"513 49 CURVE",
"503 67 LINE",
"453 40 OFFCURVE",
"373 20 OFFCURVE",
"313 20 CURVE SMOOTH",
"178 20 OFFCURVE",
"80 91 OFFCURVE",
"80 189 CURVE SMOOTH",
"80 288 OFFCURVE",
"180 360 OFFCURVE",
"317 360 CURVE SMOOTH",
"426 360 LINE",
"426 380 LINE",
"317 380 LINE SMOOTH",
"197 380 OFFCURVE",
"110 442 OFFCURVE",
"110 528 CURVE SMOOTH",
"110 615 OFFCURVE",
"196 679 OFFCURVE",
"315 679 CURVE SMOOTH",
"369 679 OFFCURVE",
"435 665 OFFCURVE",
"471 646 CURVE",
"481 664 LINE",
"441 684 OFFCURVE",
"371 699 OFFCURVE",
"315 699 CURVE SMOOTH"
);
}
);
width = 538;
}
);
leftKerningGroup = E.ss01;
leftMetricsKey = eight;
rightKerningGroup = E.ss01;
},
{
glyphname = Eogonek.ss01;
layers = (
{
layerId = "66FBD069-7978-4D3C-B543-2EFDE6A4602F";
paths = (
{
closed = 1;
nodes = (
"185 699 OFFCURVE",
"90 627 OFFCURVE",
"90 528 CURVE SMOOTH",
"90 450 OFFCURVE",
"157 383 OFFCURVE",
"249 370 CURVE",
"140 358 OFFCURVE",
"60 282 OFFCURVE",
"60 189 CURVE SMOOTH",
"60 80 OFFCURVE",
"167 0 OFFCURVE",
"313 0 CURVE SMOOTH",
"380 0 OFFCURVE",
"465 21 OFFCURVE",
"513 49 CURVE",
"503 67 LINE",
"453 40 OFFCURVE",
"373 20 OFFCURVE",
"313 20 CURVE SMOOTH",
"178 20 OFFCURVE",
"80 91 OFFCURVE",
"80 189 CURVE SMOOTH",
"80 288 OFFCURVE",
"180 360 OFFCURVE",
"317 360 CURVE SMOOTH",
"426 360 LINE",
"426 380 LINE",
"317 380 LINE SMOOTH",
"197 380 OFFCURVE",
"110 442 OFFCURVE",
"110 528 CURVE SMOOTH",
"110 615 OFFCURVE",
"196 679 OFFCURVE",
"315 679 CURVE SMOOTH",
"369 679 OFFCURVE",
"435 665 OFFCURVE",
"471 646 CURVE",
"481 664 LINE",
"441 684 OFFCURVE",
"371 699 OFFCURVE",
"315 699 CURVE SMOOTH"
);
},
{
closed = 1;
nodes = (
"426 28 LINE",
"367 -47 OFFCURVE",
"346 -92 OFFCURVE",
"346 -131 CURVE SMOOTH",
"346 -172 OFFCURVE",
"374 -199 OFFCURVE",
"410 -199 CURVE SMOOTH",
"437 -199 OFFCURVE",
"465 -181 OFFCURVE",
"484 -159 CURVE",
"470 -145 LINE",
"452 -165 OFFCURVE",
"432 -179 OFFCURVE",
"410 -179 CURVE SMOOTH",
"385 -179 OFFCURVE",
"366 -162 OFFCURVE",
"366 -131 CURVE SMOOTH",
"366 -93 OFFCURVE",
"383 -50 OFFCURVE",
"451 32 CURVE"
);
}
);
width = 538;
}
);
leftKerningGroup = Eogonek.ss01;
rightKerningGroup = Eogonek.ss01;
},
{
glyphname = F.ss01;
layers = (
{
layerId = "66FBD069-7978-4D3C-B543-2EFDE6A4602F";
paths = (
{
closed = 1;
nodes = (
"129 0 LINE",
"129 502 LINE",
"129 609 OFFCURVE",
"197 679 OFFCURVE",
"301 679 CURVE",
"355 679 OFFCURVE",
"420 663 OFFCURVE",
"466 639 CURVE",
"475 659 LINE",
"425 683 OFFCURVE",
"361 699 OFFCURVE",
"301 699 CURVE",
"185 699 OFFCURVE",
"110 622 OFFCURVE",
"110 502 CURVE",
"110 0 LINE"
);
},
{
closed = 1;
nodes = (
"125 342 LINE",
"125 322 LINE",
"423 322 LINE",
"423 342 LINE"
);
}
);
width = 490;
}
);
leftKerningGroup = F.ss01;
leftMetricsKey = U;
rightKerningGroup = F.ss01;
},
{
glyphname = G.ss01;
layers = (
{
anchors = (
{
name = bottom;
position = "{380, 0}";
},
{
name = top;
position = "{380, 699}";
}
);
layerId = "66FBD069-7978-4D3C-B543-2EFDE6A4602F";
paths = (
{
closed = 1;
nodes = (
"212 699 OFFCURVE",
"50 542 OFFCURVE",
"50 350 CURVE SMOOTH",
"50 158 OFFCURVE",
"212 0 OFFCURVE",
"409 0 CURVE SMOOTH",
"501 0 OFFCURVE",
"586 39 OFFCURVE",
"650 101 CURVE",
"636 114 LINE",
"576 55 OFFCURVE",
"496 19 OFFCURVE",
"409 19 CURVE SMOOTH",
"222 19 OFFCURVE",
"69 168 OFFCURVE",
"69 350 CURVE SMOOTH",
"69 532 OFFCURVE",
"222 680 OFFCURVE",
"409 680 CURVE SMOOTH",
"496 680 OFFCURVE",
"576 649 OFFCURVE",
"636 596 CURVE",
"649 609 LINE",
"585 665 OFFCURVE",
"501 699 OFFCURVE",
"409 699 CURVE SMOOTH"
);
},
{
closed = 1;
nodes = (
"630 343 LINE",
"630 87 LINE",
"630 83 LINE",
"630 0 LINE",
"650 0 LINE",
"650 343 LINE"
);
}
);
width = 760;
}
);
leftKerningGroup = O;
leftMetricsKey = O;
rightKerningGroup = G;
},
{
glyphname = I.ss01;
layers = (
{
anchors = (
{
name = ogonek;
position = "{403, 10}";
},
{
name = top;
position = "{224, 699}";
}
);
layerId = "66FBD069-7978-4D3C-B543-2EFDE6A4602F";
paths = (
{
closed = 1;
nodes = (
"60 679 LINE",
"388 679 LINE",
"388 699 LINE",
"60 699 LINE"
);
},
{
closed = 1;
nodes = (
"60 0 LINE",
"388 0 LINE",
"388 20 LINE",
"60 20 LINE"
);
},
{
closed = 1;
nodes = (
"214 699 LINE",
"214 0 LINE",
"234 0 LINE",
"234 699 LINE"
);
}
);
width = 448;
}
);
leftKerningGroup = I.ss01;
rightKerningGroup = I.ss01;
},
{
glyphname = J.ss01;
layers = (
{
anchors = (
{
name = top;
position = "{229, 699}";
}
);
layerId = "66FBD069-7978-4D3C-B543-2EFDE6A4602F";
paths = (
{
closed = 1;
nodes = (
"67 699 LINE",
"67 679 LINE",
"329 679 LINE",
"329 97 LINE",
"329 -18 OFFCURVE",
"275 -80 OFFCURVE",
"177 -80 CURVE",
"114 -80 OFFCURVE",
"58 -48 OFFCURVE",
"17 12 CURVE",
"3 -2 LINE",
"47 -65 OFFCURVE",
"109 -100 OFFCURVE",
"177 -100 CURVE",
"288 -100 OFFCURVE",
"348 -30 OFFCURVE",
"348 97 CURVE",
"348 699 LINE"
);
}
);
width = 458;
}
);
leftKerningGroup = J.ss01;
leftMetricsKey = J;
rightKerningGroup = J.ss01;
rightMetricsKey = J;
},
{
glyphname = M.ss01;
layers = (
{
anchors = (
{
name = ogonek;
position = "{206, 10}";
},
{
name = top;
position = "{138, 699}";
}
);
layerId = "66FBD069-7978-4D3C-B543-2EFDE6A4602F";
paths = (
{
closed = 1;
nodes = (
"245 695 OFFCURVE",
"129 580 OFFCURVE",
"129 425 CURVE",
"147 425 LINE",
"147 568 OFFCURVE",
"255 675 OFFCURVE",
"402 679 CURVE",
"523 679 OFFCURVE",
"612 580 OFFCURVE",
"612 445 CURVE",
"612 0 LINE SMOOTH",
"632 0 LINE",
"632 445 LINE",
"632 592 OFFCURVE",
"535 699 OFFCURVE",
"402 699 CURVE"
);
},
{
closed = 1;
nodes = (
"730 695 OFFCURVE",
"614 580 OFFCURVE",
"614 425 CURVE",
"632 425 LINE",
"632 568 OFFCURVE",
"740 675 OFFCURVE",
"887 679 CURVE",
"1008 679 OFFCURVE",
"1097 580 OFFCURVE",
"1097 445 CURVE",
"1097 0 LINE SMOOTH",
"1117 0 LINE",
"1117 445 LINE",
"1117 592 OFFCURVE",
"1020 699 OFFCURVE",
"887 699 CURVE"
);
},
{
closed = 1;
nodes = (
"128 699 LINE",
"128 0 LINE",
"148 0 LINE",
"148 699 LINE"
);
}
);
width = 1227;
}
);
leftKerningGroup = M.ss01;
leftMetricsKey = H;
rightKerningGroup = M.ss01;
rightMetricsKey = U;
},
{
glyphname = N.ss01;
layers = (
{
anchors = (
{
name = bottom;
position = "{396, 0}";
},
{
name = ogonek;
position = "{206, 10}";
},
{
name = top;
position = "{396, 699}";
}
);
layerId = "66FBD069-7978-4D3C-B543-2EFDE6A4602F";
paths = (
{
closed = 1;
nodes = (
"257 695 OFFCURVE",
"129 580 OFFCURVE",
"129 425 CURVE",
"147 425 LINE",
"147 568 OFFCURVE",
"267 675 OFFCURVE",
"432 679 CURVE",
"565 679 OFFCURVE",
"662 580 OFFCURVE",
"662 445 CURVE",
"662 0 LINE SMOOTH",
"682 0 LINE",
"682 445 LINE",
"682 592 OFFCURVE",
"577 699 OFFCURVE",
"432 699 CURVE"
);
},
{
closed = 1;
nodes = (
"128 699 LINE",
"128 0 LINE",
"148 0 LINE",
"148 699 LINE"
);
}
);
width = 792;
}
);
leftKerningGroup = N.ss01;
leftMetricsKey = H;
rightKerningGroup = N.ss01;
rightMetricsKey = U;
},
{
glyphname = Eng.ss01;
layers = (
{
anchors = (
{
name = bottom;
position = "{396, 0}";
},
{
name = ogonek;
position = "{206, 10}";
},
{
name = top;
position = "{396, 699}";
}
);
layerId = "66FBD069-7978-4D3C-B543-2EFDE6A4602F";
paths = (
{
closed = 1;
nodes = (
"662 -114 OFFCURVE",
"608 -176 OFFCURVE",
"510 -176 CURVE SMOOTH",
"447 -176 OFFCURVE",
"391 -144 OFFCURVE",
"350 -84 CURVE",
"336 -98 LINE",
"380 -161 OFFCURVE",
"442 -196 OFFCURVE",
"510 -196 CURVE SMOOTH",
"621 -196 OFFCURVE",
"682 -126 OFFCURVE",
"682 0 CURVE",
"662 3 LINE"
);
},
{
closed = 1;
nodes = (
"257 695 OFFCURVE",
"129 580 OFFCURVE",
"129 425 CURVE",
"147 425 LINE",
"147 568 OFFCURVE",
"267 675 OFFCURVE",
"432 679 CURVE",
"565 679 OFFCURVE",
"662 580 OFFCURVE",
"662 445 CURVE",
"662 0 LINE SMOOTH",
"682 0 LINE",
"682 445 LINE",
"682 592 OFFCURVE",
"577 699 OFFCURVE",
"432 699 CURVE"
);
},
{
closed = 1;
nodes = (
"128 699 LINE",
"128 0 LINE",
"148 0 LINE",
"148 699 LINE"
);
}
);
width = 792;
}
);
leftKerningGroup = H;
rightKerningGroup = H;
},
{
glyphname = Q.ss01;
layers = (
{
components = (
{
name = O;
}
);
layerId = "66FBD069-7978-4D3C-B543-2EFDE6A4602F";
paths = (
{
closed = 1;
nodes = (
"399 -135 LINE",
"419 -135 LINE",
"419 224 LINE",
"399 224 LINE"
);
}
);
width = 818;
}
);
leftKerningGroup = O;
leftMetricsKey = O;
rightKerningGroup = O;
rightMetricsKey = O;
},
{
glyphname = T.ss01;
layers = (
{
anchors = (
{
name = bottom;
position = "{296, 0}";
},
{
name = center;
position = "{301, 350}";
},
{
name = top;
position = "{301, 699}";
}
);
layerId = "66FBD069-7978-4D3C-B543-2EFDE6A4602F";
paths = (
{
closed = 1;
nodes = (
"210 699 OFFCURVE",
"118 677 OFFCURVE",
"42 637 CURVE",
"50 620 LINE",
"125 658 OFFCURVE",
"215 679 OFFCURVE",
"300 679 CURVE SMOOTH",
"387 679 OFFCURVE",
"478 658 OFFCURVE",
"552 620 CURVE",
"560 636 LINE",
"483 677 OFFCURVE",
"391 699 OFFCURVE",
"300 699 CURVE SMOOTH"
);
},
{
closed = 1;
nodes = (
"291 686 LINE",
"291 0 LINE",
"311 0 LINE",
"311 686 LINE"
);
}
);
width = 602;
}
);
leftKerningGroup = T;
rightKerningGroup = T;
},
{
glyphname = W.ss01;
layers = (
{
anchors = (
{
name = top;
position = "{601, 699}";
}
);
layerId = "66FBD069-7978-4D3C-B543-2EFDE6A4602F";
paths = (
{
closed = 1;
nodes = (
"1072 699 LINE",
"1072 234 LINE SMOOTH",
"1072 104 OFFCURVE",
"983 20 OFFCURVE",
"845 20 CURVE SMOOTH",
"704 20 OFFCURVE",
"612 104 OFFCURVE",
"612 234 CURVE SMOOTH",
"612 699 LINE",
"592 699 LINE",
"592 234 LINE SMOOTH",
"592 104 OFFCURVE",
"500 20 OFFCURVE",
"357 20 CURVE SMOOTH",
"219 20 OFFCURVE",
"130 104 OFFCURVE",
"130 234 CURVE SMOOTH",
"130 699 LINE",
"110 699 LINE",
"110 234 LINE SMOOTH",
"110 92 OFFCURVE",
"207 0 OFFCURVE",
"357 0 CURVE SMOOTH",
"478 0 OFFCURVE",
"574 61 OFFCURVE",
"602 155 CURVE",
"629 61 OFFCURVE",
"724 0 OFFCURVE",
"845 0 CURVE SMOOTH",
"995 0 OFFCURVE",
"1092 92 OFFCURVE",
"1092 234 CURVE SMOOTH",
"1092 699 LINE"
);
}
);
width = 1202;
}
);
leftKerningGroup = W.ss01;
leftMetricsKey = U;
rightKerningGroup = W.ss01;
rightMetricsKey = U;
},
{
glyphname = Y.ss01;
layers = (
{
anchors = (
{
name = top;
position = "{367, 699}";
}
);
layerId = "66FBD069-7978-4D3C-B543-2EFDE6A4602F";
paths = (
{
closed = 1;
nodes = (
"510 163 OFFCURVE",
"624 278 OFFCURVE",
"624 434 CURVE",
"606 434 LINE",
"606 290 OFFCURVE",
"499 183 OFFCURVE",
"353 180 CURVE",
"224 180 OFFCURVE",
"130 279 OFFCURVE",
"130 414 CURVE",
"130 699 LINE SMOOTH",
"110 699 LINE",
"110 414 LINE",
"110 267 OFFCURVE",
"212 160 OFFCURVE",
"353 160 CURVE"
);
},
{
closed = 1;
nodes = (
"605 699 LINE",
"605 147 LINE",
"605 16 OFFCURVE",
"507 -80 OFFCURVE",
"373 -80 CURVE",
"277 -80 OFFCURVE",
"173 -34 OFFCURVE",
"127 28 CURVE",
"112 14 LINE",
"159 -52 OFFCURVE",
"269 -100 OFFCURVE",
"373 -100 CURVE",
"518 -100 OFFCURVE",
"624 4 OFFCURVE",
"624 147 CURVE",
"624 699 LINE"
);
}
);
width = 734;
}
);
leftKerningGroup = Y.ss01;
leftMetricsKey = U;
rightKerningGroup = Y.ss01;
rightMetricsKey = J;
},
{
glyphname = Z.ss01;
layers = (
{
anchors = (
{
name = top;
position = "{325, 699}";
}
);
layerId = "66FBD069-7978-4D3C-B543-2EFDE6A4602F";
paths = (
{
closed = 1;
nodes = (
"323 359 LINE",
"323 339 LINE",
"535 339 LINE",
"535 359 LINE"
);
},
{
closed = 1;
nodes = (
"116 362 LINE",
"116 342 LINE",
"327 342 LINE",
"327 362 LINE"
);
},
{
closed = 1;
nodes = (
"66 699 LINE",
"66 679 LINE",
"575 679 LINE",
"52 25 LINE",
"52 0 LINE",
"598 0 LINE",
"598 20 LINE",
"72 20 LINE",
"595 674 LINE",
"595 699 LINE"
);
}
);
width = 650;
}
);
leftKerningGroup = Z.ss01;
leftMetricsKey = Z;
rightKerningGroup = Z.ss01;
rightMetricsKey = Z;
},
{
glyphname = a;
layers = (
{
anchors = (
{
name = ogonek;
position = "{505, 10}";
},
{
name = top;
position = "{275, 517}";
}
);
layerId = "66FBD069-7978-4D3C-B543-2EFDE6A4602F";
paths = (
{
closed = 1;
nodes = (
"210 517 OFFCURVE",
"148 487 OFFCURVE",
"90 441 CURVE",
"102 425 LINE",
"158 469 OFFCURVE",
"214 497 OFFCURVE",
"283 497 CURVE",
"392 497 OFFCURVE",
"446 440 OFFCURVE",
"447 345 CURVE",
"449 0 LINE",
"469 0 LINE",
"467 345 LINE",
"466 450 OFFCURVE",
"402 517 OFFCURVE",
"283 517 CURVE"
);
},
{
closed = 1;
nodes = (
"255 282 LINE",
"137 282 OFFCURVE",
"63 233 OFFCURVE",
"63 149 CURVE",
"63 63 OFFCURVE",
"131 0 OFFCURVE",
"231 0 CURVE",
"338 0 OFFCURVE",
"424 47 OFFCURVE",
"467 156 CURVE",
"449 164 LINE",
"408 61 OFFCURVE",
"333 20 OFFCURVE",
"232 20 CURVE",
"141 20 OFFCURVE",
"83 73 OFFCURVE",
"83 149 CURVE",
"83 221 OFFCURVE",
"145 262 OFFCURVE",
"255 262 CURVE",
"458 262 LINE",
"458 282 LINE"
);
}
);
width = 562;
}
);
leftKerningGroup = a;
rightKerningGroup = n;
unicode = 0061;
},
{
glyphname = aogonek;
layers = (
{
layerId = "66FBD069-7978-4D3C-B543-2EFDE6A4602F";
paths = (
{
closed = 1;
nodes = (
"210 517 OFFCURVE",
"149 487 OFFCURVE",
"90 441 CURVE",
"102 425 LINE",
"159 469 OFFCURVE",
"214 497 OFFCURVE",
"288 497 CURVE SMOOTH",
"394 497 OFFCURVE",
"450 440 OFFCURVE",
"451 345 CURVE SMOOTH",
"451 282 LINE",
"257 282 LINE SMOOTH",
"138 282 OFFCURVE",
"63 234 OFFCURVE",
"63 147 CURVE SMOOTH",
"63 66 OFFCURVE",
"127 0 OFFCURVE",
"239 0 CURVE SMOOTH",
"319 0 OFFCURVE",
"403 33 OFFCURVE",
"451 115 CURVE",
"451 7 LINE",
"452 7 LINE",
"384 -56 OFFCURVE",
"361 -97 OFFCURVE",
"361 -132 CURVE SMOOTH",
"361 -171 OFFCURVE",
"389 -199 OFFCURVE",
"424 -199 CURVE SMOOTH",
"451 -199 OFFCURVE",
"478 -183 OFFCURVE",
"499 -159 CURVE",
"485 -145 LINE",
"467 -165 OFFCURVE",
"447 -179 OFFCURVE",
"425 -179 CURVE SMOOTH",
"400 -179 OFFCURVE",
"381 -162 OFFCURVE",
"381 -131 CURVE SMOOTH",
"381 -100 OFFCURVE",
"398 -66 OFFCURVE",
"470 0 CURVE",
"471 0 LINE",
"471 345 LINE",
"470 450 OFFCURVE",
"404 517 OFFCURVE",
"288 517 CURVE SMOOTH"
);
},
{
closed = 1;
nodes = (
"451 159 LINE",
"408 56 OFFCURVE",
"324 20 OFFCURVE",
"240 20 CURVE SMOOTH",
"134 20 OFFCURVE",
"83 78 OFFCURVE",
"83 146 CURVE SMOOTH",
"83 222 OFFCURVE",
"145 262 OFFCURVE",
"257 262 CURVE SMOOTH",
"451 262 LINE"
);
}
);
width = 566;
}
);
leftKerningGroup = a;
rightKerningGroup = n;
unicode = 0105;
},
{
glyphname = ae;
layers = (
{
anchors = (
{
name = top;
position = "{494, 517}";
}
);
layerId = "66FBD069-7978-4D3C-B543-2EFDE6A4602F";
paths = (
{
closed = 0;
nodes = (
"556 124 LINE"
);
},
{
closed = 1;
nodes = (
"209 517 OFFCURVE",
"148 487 OFFCURVE",
"89 441 CURVE",
"101 425 LINE",
"158 469 OFFCURVE",
"213 497 OFFCURVE",
"283 497 CURVE",
"392 497 OFFCURVE",
"447 440 OFFCURVE",
"448 345 CURVE",
"450 259 LINE",
"470 259 LINE",
"468 345 LINE",
"467 450 OFFCURVE",
"402 517 OFFCURVE",
"283 517 CURVE"
);
},
{
closed = 1;
nodes = (
"256 282 LINE",
"138 282 OFFCURVE",
"63 233 OFFCURVE",
"63 149 CURVE",
"63 63 OFFCURVE",
"132 0 OFFCURVE",
"232 0 CURVE",
"341 0 OFFCURVE",
"427 48 OFFCURVE",
"471 161 CURVE",
"465 199 LINE",
"420 65 OFFCURVE",
"340 20 OFFCURVE",
"232 20 CURVE",
"142 20 OFFCURVE",
"83 73 OFFCURVE",
"83 149 CURVE",
"83 221 OFFCURVE",
"146 262 OFFCURVE",
"256 262 CURVE",
"460 262 LINE",
"460 282 LINE"
);
},
{
closed = 1;
nodes = (
"462 259 LINE",
"940 259 LINE",
"940 409 OFFCURVE",
"843 517 OFFCURVE",
"700 517 CURVE SMOOTH",
"557 517 OFFCURVE",
"450 409 OFFCURVE",
"450 259 CURVE SMOOTH",
"450 108 OFFCURVE",
"557 0 OFFCURVE",
"700 0 CURVE SMOOTH",
"780 0 OFFCURVE",
"849 30 OFFCURVE",
"897 81 CURVE",
"883 95 LINE",
"839 47 OFFCURVE",
"775 20 OFFCURVE",
"700 20 CURVE SMOOTH",
"567 20 OFFCURVE",
"470 118 OFFCURVE",
"470 259 CURVE SMOOTH",
"470 399 OFFCURVE",
"567 497 OFFCURVE",
"700 497 CURVE SMOOTH",
"827 497 OFFCURVE",
"911 408 OFFCURVE",
"920 279 CURVE",
"462 279 LINE"
);
}
);
width = 988;
}
);
leftKerningGroup = a;
leftMetricsKey = a;
rightKerningGroup = e;
rightMetricsKey = e;
unicode = 00E6;
},
{
glyphname = b;
layers = (
{
layerId = "66FBD069-7978-4D3C-B543-2EFDE6A4602F";
paths = (
{
closed = 1;
nodes = (
"115 742 LINE",
"115 0 LINE",
"135 0 LINE",
"135 742 LINE"
);
},
{
closed = 1;
nodes = (
"221 517 OFFCURVE",
"115 408 OFFCURVE",
"115 258 CURVE",
"115 109 OFFCURVE",
"221 0 OFFCURVE",
"366 0 CURVE SMOOTH",
"511 0 OFFCURVE",
"617 109 OFFCURVE",
"617 258 CURVE SMOOTH",
"617 408 OFFCURVE",
"511 517 OFFCURVE",
"366 517 CURVE SMOOTH"
);
},
{
closed = 1;
nodes = (
"500 497 OFFCURVE",
"597 396 OFFCURVE",
"597 258 CURVE SMOOTH",
"597 120 OFFCURVE",
"500 20 OFFCURVE",
"366 20 CURVE SMOOTH",
"232 20 OFFCURVE",
"135 120 OFFCURVE",
"135 258 CURVE SMOOTH",
"135 396 OFFCURVE",
"232 497 OFFCURVE",
"366 497 CURVE SMOOTH"
);
}
);
width = 669;
}
);
leftKerningGroup = h;
rightKerningGroup = o;
unicode = 0062;
},
{
glyphname = c;
layers = (
{
anchors = (
{
name = bottom;
position = "{289, 0}";
},
{
name = top;
position = "{279, 517}";
}
);
layerId = "66FBD069-7978-4D3C-B543-2EFDE6A4602F";
paths = (
{
closed = 1;
nodes = (
"159 517 OFFCURVE",
"52 409 OFFCURVE",
"52 259 CURVE SMOOTH",
"52 108 OFFCURVE",
"159 0 OFFCURVE",
"303 0 CURVE SMOOTH",
"379 0 OFFCURVE",
"445 30 OFFCURVE",
"490 81 CURVE",
"477 95 LINE",
"435 47 OFFCURVE",
"374 20 OFFCURVE",
"303 20 CURVE SMOOTH",
"169 20 OFFCURVE",
"71 118 OFFCURVE",
"71 259 CURVE SMOOTH",
"71 399 OFFCURVE",
"169 497 OFFCURVE",
"303 497 CURVE SMOOTH",
"368 497 OFFCURVE",
"423 473 OFFCURVE",
"466 434 CURVE",
"479 448 LINE",
"434 491 OFFCURVE",
"372 517 OFFCURVE",
"303 517 CURVE SMOOTH"
);
}
);
width = 557;
}
);
leftKerningGroup = o;
rightKerningGroup = c;
unicode = 0063;
},
{
glyphname = d;
layers = (
{
anchors = (
{
name = center;
position = "{-7, 0}";
}
);
layerId = "66FBD069-7978-4D3C-B543-2EFDE6A4602F";
paths = (
{
closed = 0;
nodes = (
"416 264 LINE"
);
},
{
closed = 1;
nodes = (
"159 519 OFFCURVE",
"52 409 OFFCURVE",
"52 258 CURVE SMOOTH",
"52 108 OFFCURVE",
"159 -2 OFFCURVE",
"305 -2 CURVE SMOOTH",
"451 -2 OFFCURVE",
"558 108 OFFCURVE",
"558 258 CURVE",
"558 409 OFFCURVE",
"451 519 OFFCURVE",
"305 519 CURVE SMOOTH"
);
},
{
closed = 1;
nodes = (
"440 499 OFFCURVE",
"538 397 OFFCURVE",
"538 258 CURVE SMOOTH",
"538 119 OFFCURVE",
"440 18 OFFCURVE",
"305 18 CURVE SMOOTH",
"170 18 OFFCURVE",
"72 119 OFFCURVE",
"72 258 CURVE SMOOTH",
"72 397 OFFCURVE",
"170 499 OFFCURVE",
"305 499 CURVE SMOOTH"
);
},
{
closed = 1;
nodes = (
"538 742 LINE",
"538 0 LINE",
"558 0 LINE",
"558 742 LINE"
);
}
);
width = 673;
}
);
leftKerningGroup = o;
rightKerningGroup = l;
unicode = 0064;
},
{
glyphname = eth;
layers = (
{
layerId = "66FBD069-7978-4D3C-B543-2EFDE6A4602F";
paths = (
{
closed = 1;
nodes = (
"156 724 LINE",
"318 635 OFFCURVE",
"451 475 OFFCURVE",
"493 315 CURVE",
"461 390 OFFCURVE",
"380 438 OFFCURVE",
"287 438 CURVE SMOOTH",
"149 438 OFFCURVE",
"60 353 OFFCURVE",
"60 222 CURVE SMOOTH",
"60 87 OFFCURVE",
"147 0 OFFCURVE",
"281 0 CURVE SMOOTH",
"424 0 OFFCURVE",
"516 89 OFFCURVE",
"516 227 CURVE SMOOTH",
"516 417 OFFCURVE",
"379 619 OFFCURVE",
"168 742 CURVE"
);
},
{
closed = 1;
nodes = (
"414 418 OFFCURVE",
"496 339 OFFCURVE",
"496 216 CURVE",
"496 97 OFFCURVE",
"414 20 OFFCURVE",
"286 20 CURVE SMOOTH",
"161 20 OFFCURVE",
"80 100 OFFCURVE",
"80 224 CURVE SMOOTH",
"80 342 OFFCURVE",
"161 418 OFFCURVE",
"287 418 CURVE SMOOTH"
);
},
{
closed = 1;
nodes = (
"160 601 LINE",
"165 582 LINE",
"427 657 LINE",
"422 677 LINE"
);
}
);
width = 566;
}
);
leftKerningGroup = o;
rightKerningGroup = O;
rightMetricsKey = O;
unicode = 00F0;
},
{
glyphname = dcroat;
layers = (
{
components = (
{
name = d;
}
);
layerId = "66FBD069-7978-4D3C-B543-2EFDE6A4602F";
paths = (
{
closed = 1;
nodes = (
"417 677 LINE",
"417 657 LINE",
"634 657 LINE",
"634 677 LINE"
);
}
);
width = 673;
}
);
leftKerningGroup = o;
rightKerningGroup = l;
unicode = 0111;
},
{
glyphname = e;
layers = (
{
anchors = (
{
name = bottom;
position = "{295, 0}";
},
{
name = ogonek;
position = "{509, 10}";
},
{
name = top;
position = "{295, 517}";
}
);
layerId = "66FBD069-7978-4D3C-B543-2EFDE6A4602F";
paths = (
{
closed = 1;
nodes = (
"64 259 LINE",
"541 259 LINE",
"541 409 OFFCURVE",
"445 517 OFFCURVE",
"301 517 CURVE SMOOTH",
"158 517 OFFCURVE",
"52 409 OFFCURVE",
"52 259 CURVE SMOOTH",
"52 108 OFFCURVE",
"158 0 OFFCURVE",
"301 0 CURVE SMOOTH",
"381 0 OFFCURVE",
"451 30 OFFCURVE",
"498 81 CURVE",
"484 95 LINE",
"441 47 OFFCURVE",
"376 20 OFFCURVE",
"301 20 CURVE SMOOTH",
"168 20 OFFCURVE",
"72 118 OFFCURVE",
"72 259 CURVE SMOOTH",
"72 399 OFFCURVE",
"168 497 OFFCURVE",
"301 497 CURVE SMOOTH",
"429 497 OFFCURVE",
"512 408 OFFCURVE",
"521 279 CURVE",
"64 279 LINE"
);
}
);
width = 589;
}
);
leftKerningGroup = o;
rightKerningGroup = o;
unicode = 0065;
},
{
glyphname = eogonek;
layers = (
{
layerId = "66FBD069-7978-4D3C-B543-2EFDE6A4602F";
paths = (
{
closed = 1;
nodes = (
"158 517 OFFCURVE",
"52 409 OFFCURVE",
"52 259 CURVE SMOOTH",
"52 108 OFFCURVE",
"158 0 OFFCURVE",
"301 0 CURVE SMOOTH",
"360 0 OFFCURVE",
"413 18 OFFCURVE",
"457 51 CURVE",
"401 -28 OFFCURVE",
"382 -84 OFFCURVE",
"382 -131 CURVE SMOOTH",
"382 -172 OFFCURVE",
"410 -199 OFFCURVE",
"446 -199 CURVE SMOOTH",
"472 -199 OFFCURVE",
"500 -181 OFFCURVE",
"519 -159 CURVE",
"505 -145 LINE",
"487 -165 OFFCURVE",
"467 -179 OFFCURVE",
"446 -179 CURVE SMOOTH",
"421 -179 OFFCURVE",
"402 -162 OFFCURVE",
"402 -131 CURVE SMOOTH",
"402 -81 OFFCURVE",
"418 -23 OFFCURVE",
"498 81 CURVE",
"484 95 LINE",
"441 47 OFFCURVE",
"376 20 OFFCURVE",
"301 20 CURVE SMOOTH",
"168 20 OFFCURVE",
"72 118 OFFCURVE",
"72 259 CURVE",
"541 259 LINE",
"541 409 OFFCURVE",
"445 517 OFFCURVE",
"301 517 CURVE SMOOTH"
);
},
{
closed = 1;
nodes = (
"429 497 OFFCURVE",
"512 408 OFFCURVE",
"521 279 CURVE",
"73 279 LINE",
"81 408 OFFCURVE",
"175 497 OFFCURVE",
"301 497 CURVE SMOOTH"
);
}
);
width = 589;
}
);
leftKerningGroup = o;
rightKerningGroup = e;
unicode = 0119;
},
{
glyphname = f;
layers = (
{
layerId = "66FBD069-7978-4D3C-B543-2EFDE6A4602F";
paths = (
{
closed = 1;
nodes = (
"182 743 OFFCURVE",
"117 672 OFFCURVE",
"117 580 CURVE",
"117 0 LINE",
"137 0 LINE",
"137 580 LINE",
"137 662 OFFCURVE",
"192 723 OFFCURVE",
"263 722 CURVE",
"295 721 OFFCURVE",
"327 709 OFFCURVE",
"353 689 CURVE",
"365 705 LINE",
"337 727 OFFCURVE",
"299 741 OFFCURVE",
"263 742 CURVE"
);
},
{
closed = 1;
nodes = (
"52 507 LINE",
"52 487 LINE",
"305 487 LINE",
"305 507 LINE"
);
}
);
width = 295;
}
);
leftKerningGroup = f;
rightKerningGroup = f;
unicode = 0066;
},
{
glyphname = g;
layers = (
{
anchors = (
{
name = top;
position = "{315, 517}";
}
);
layerId = "66FBD069-7978-4D3C-B543-2EFDE6A4602F";
paths = (
{
closed = 1;
nodes = (
"516 517 LINE",
"516 59 LINE",
"516 -83 OFFCURVE",
"427 -174 OFFCURVE",
"290 -173 CURVE SMOOTH",
"212 -170 OFFCURVE",
"151 -144 OFFCURVE",
"96 -89 CURVE",
"82 -103 LINE",
"142 -162 OFFCURVE",
"207 -190 OFFCURVE",
"290 -193 CURVE SMOOTH",
"439 -194 OFFCURVE",
"536 -95 OFFCURVE",
"536 59 CURVE",
"536 517 LINE"
);
},
{
closed = 1;
nodes = (
"154 517 OFFCURVE",
"52 412 OFFCURVE",
"52 267 CURVE SMOOTH",
"52 124 OFFCURVE",
"154 19 OFFCURVE",
"293 19 CURVE SMOOTH",
"433 19 OFFCURVE",
"535 124 OFFCURVE",
"535 267 CURVE",
"535 412 OFFCURVE",
"433 517 OFFCURVE",
"293 517 CURVE SMOOTH"
);
},
{
closed = 1;
nodes = (
"422 498 OFFCURVE",
"516 400 OFFCURVE",
"516 267 CURVE SMOOTH",
"516 135 OFFCURVE",
"422 38 OFFCURVE",
"293 38 CURVE SMOOTH",
"164 38 OFFCURVE",
"71 135 OFFCURVE",
"71 267 CURVE SMOOTH",
"71 400 OFFCURVE",
"164 498 OFFCURVE",
"293 498 CURVE SMOOTH"
);
}
);
width = 630;
}
);
leftKerningGroup = o;
rightKerningGroup = j;
unicode = 0067;
},
{
glyphname = h;
layers = (
{
anchors = (
{
name = bottom;
position = "{570, 0}";
},
{
name = center;
position = "{327, 259}";
},
{
name = top;
position = "{126, 742}";
},
{
name = topright;
position = "{223, 517}";
}
);
layerId = "66FBD069-7978-4D3C-B543-2EFDE6A4602F";
paths = (
{
closed = 1;
nodes = (
"557 0 LINE",
"557 313 LINE",
"557 441 OFFCURVE",
"482 517 OFFCURVE",
"354 517 CURVE",
"205 514 OFFCURVE",
"117 416 OFFCURVE",
"117 253 CURVE",
"135 253 LINE",
"135 403 OFFCURVE",
"216 494 OFFCURVE",
"354 497 CURVE",
"469 497 OFFCURVE",
"537 429 OFFCURVE",
"537 313 CURVE",
"537 0 LINE SMOOTH"
);
},
{
closed = 1;
nodes = (
"135 0 LINE",
"135 742 LINE",
"115 742 LINE",
"115 0 LINE"
);
}
);
width = 650;
}
);
leftKerningGroup = h;
rightKerningGroup = n;
unicode = 0068;
},
{
glyphname = hbar;
layers = (
{
components = (
{
name = h;
}
);
layerId = "66FBD069-7978-4D3C-B543-2EFDE6A4602F";
paths = (
{
closed = 1;
nodes = (
"25 635 LINE",
"25 615 LINE",
"315 615 LINE",
"315 635 LINE"
);
}
);
width = 642;
}
);
leftKerningGroup = h;
rightKerningGroup = n;
unicode = 0127;
},
{
glyphname = i;
layers = (
{
anchors = (
{
name = _top;
position = "{120, 517}";
},
{
name = ogonek;
position = "{189, 10}";
},
{
name = top;
position = "{120, 517}";
}
);
layerId = "66FBD069-7978-4D3C-B543-2EFDE6A4602F";
paths = (
{
closed = 1;
nodes = (
"110 517 LINE",
"110 0 LINE",
"130 0 LINE",
"130 517 LINE"
);
},
{
closed = 1;
nodes = (
"106 692 OFFCURVE",
"94 680 OFFCURVE",
"94 666 CURVE SMOOTH",
"94 652 OFFCURVE",
"106 640 OFFCURVE",
"120 640 CURVE SMOOTH",
"134 640 OFFCURVE",
"146 652 OFFCURVE",
"146 666 CURVE SMOOTH",
"146 680 OFFCURVE",
"134 692 OFFCURVE",
"120 692 CURVE SMOOTH"
);
}
);
width = 240;
}
);
leftKerningGroup = dotlessi;
rightKerningGroup = dotlessi;
unicode = 0069;
},
{
glyphname = idotless;
layers = (
{
anchors = (
{
name = ogonek;
position = "{189, 10}";
},
{
name = top;
position = "{120, 517}";
}
);
layerId = "66FBD069-7978-4D3C-B543-2EFDE6A4602F";
paths = (
{
closed = 1;
nodes = (
"110 517 LINE",
"110 0 LINE",
"130 0 LINE",
"130 517 LINE"
);
}
);
width = 240;
}
);
leftKerningGroup = i;
rightKerningGroup = i;
unicode = 0131;
},
{
glyphname = iogonek;
layers = (
{
layerId = "66FBD069-7978-4D3C-B543-2EFDE6A4602F";
paths = (
{
closed = 1;
nodes = (
"105 517 LINE",
"105 0 LINE",
"106 0 LINE",
"68 -62 OFFCURVE",
"53 -99 OFFCURVE",
"53 -131 CURVE SMOOTH",
"53 -172 OFFCURVE",
"81 -199 OFFCURVE",
"117 -199 CURVE SMOOTH",
"144 -199 OFFCURVE",
"172 -181 OFFCURVE",
"191 -159 CURVE",
"177 -145 LINE",
"159 -165 OFFCURVE",
"139 -179 OFFCURVE",
"117 -179 CURVE SMOOTH",
"92 -179 OFFCURVE",
"73 -162 OFFCURVE",
"73 -131 CURVE SMOOTH",
"73 -100 OFFCURVE",
"82 -66 OFFCURVE",
"124 0 CURVE",
"125 0 LINE",
"125 517 LINE"
);
},
{
closed = 1;
nodes = (
"101 692 OFFCURVE",
"89 680 OFFCURVE",
"89 666 CURVE SMOOTH",
"89 652 OFFCURVE",
"101 640 OFFCURVE",
"115 640 CURVE SMOOTH",
"129 640 OFFCURVE",
"141 652 OFFCURVE",
"141 666 CURVE SMOOTH",
"141 680 OFFCURVE",
"129 692 OFFCURVE",
"115 692 CURVE SMOOTH"
);
}
);
width = 230;
}
);
leftKerningGroup = i;
rightKerningGroup = i;
unicode = 012F;
},
{
glyphname = j;
layers = (
{
layerId = "66FBD069-7978-4D3C-B543-2EFDE6A4602F";
paths = (
{
closed = 1;
nodes = (
"105 517 LINE",
"105 -31 LINE",
"105 -125 OFFCURVE",
"72 -174 OFFCURVE",
"9 -173 CURVE",
"-23 -172 OFFCURVE",
"-55 -161 OFFCURVE",
"-81 -140 CURVE",
"-93 -156 LINE",
"-63 -179 OFFCURVE",
"-28 -192 OFFCURVE",
"9 -193 CURVE",
"85 -194 OFFCURVE",
"125 -139 OFFCURVE",
"125 -31 CURVE",
"125 517 LINE"
);
},
{
closed = 1;
nodes = (
"101 692 OFFCURVE",
"89 680 OFFCURVE",
"89 666 CURVE SMOOTH",
"89 652 OFFCURVE",
"101 640 OFFCURVE",
"115 640 CURVE SMOOTH",
"129 640 OFFCURVE",
"141 652 OFFCURVE",
"141 666 CURVE SMOOTH",
"141 680 OFFCURVE",
"129 692 OFFCURVE",
"115 692 CURVE SMOOTH"
);
}
);
width = 235;
}
);
leftKerningGroup = j;
rightKerningGroup = j;
unicode = 006A;
},
{
glyphname = jdotless;
layers = (
{
anchors = (
{
name = top;
position = "{115, 517}";
}
);
layerId = "66FBD069-7978-4D3C-B543-2EFDE6A4602F";
paths = (
{
closed = 1;
nodes = (
"105 517 LINE",
"105 -31 LINE",
"105 -125 OFFCURVE",
"72 -174 OFFCURVE",
"9 -173 CURVE",
"-23 -172 OFFCURVE",
"-55 -161 OFFCURVE",
"-81 -140 CURVE",
"-93 -156 LINE",
"-63 -179 OFFCURVE",
"-28 -192 OFFCURVE",
"9 -193 CURVE",
"85 -194 OFFCURVE",
"125 -139 OFFCURVE",
"125 -31 CURVE",
"125 517 LINE"
);
}
);
width = 219;
}
);
leftKerningGroup = j;
rightKerningGroup = j;
rightMetricsKey = i;
unicode = 0237;
},
{
glyphname = k;
layers = (
{
anchors = (
{
name = bottom;
position = "{105, 0}";
},
{
name = top;
position = "{125, 742}";
},
{
name = topright;
position = "{223, 517}";
}
);
layerId = "66FBD069-7978-4D3C-B543-2EFDE6A4602F";
paths = (
{
closed = 0;
nodes = (
"230 111 LINE"
);
},
{
closed = 1;
nodes = (
"115 742 LINE",
"115 0 LINE",
"135 0 LINE",
"135 742 LINE"
);
},
{
closed = 1;
nodes = (
"464 517 LINE",
"128 178 LINE",
"128 147 LINE",
"492 517 LINE"
);
},
{
closed = 1;
nodes = (
"272 314 LINE",
"498 0 LINE",
"522 0 LINE",
"288 326 LINE"
);
}
);
width = 538;
}
);
leftKerningGroup = h;
rightKerningGroup = x;
unicode = 006B;
},
{
glyphname = kgreenlandic;
layers = (
{
anchors = (
{
name = bottom;
position = "{266, 0}";
},
{
name = ogonek;
position = "{189, 10}";
},
{
name = top;
position = "{120, 517}";
}
);
layerId = "66FBD069-7978-4D3C-B543-2EFDE6A4602F";
paths = (
{
closed = 0;
nodes = (
"230 111 LINE"
);
},
{
closed = 1;
nodes = (
"110 517 LINE",
"110 0 LINE",
"130 0 LINE",
"130 517 LINE"
);
},
{
closed = 1;
nodes = (
"461 517 LINE",
"125 178 LINE",
"125 147 LINE",
"489 517 LINE"
);
},
{
closed = 1;
nodes = (
"269 314 LINE",
"495 0 LINE",
"519 0 LINE",
"285 326 LINE"
);
}
);
width = 535;
}
);
leftKerningGroup = h;
leftMetricsKey = n;
rightKerningGroup = k;
rightMetricsKey = k;
unicode = 0138;
},
{
glyphname = l;
layers = (
{
anchors = (
{
name = bottom;
position = "{125, 0}";
},
{
name = top;
position = "{125, 742}";
},
{
name = topright;
position = "{223, 517}";
}
);
layerId = "66FBD069-7978-4D3C-B543-2EFDE6A4602F";
paths = (
{
closed = 1;
nodes = (
"115 742 LINE",
"115 0 LINE",
"135 0 LINE",
"135 742 LINE"
);
}
);
width = 250;
}
);
leftKerningGroup = h;
rightKerningGroup = l;
unicode = 006C;
},
{
glyphname = ldot;
layers = (
{
components = (
{
name = l;
}
);
layerId = "66FBD069-7978-4D3C-B543-2EFDE6A4602F";
paths = (
{
closed = 1;
nodes = (
"216 331 OFFCURVE",
"204 319 OFFCURVE",
"204 305 CURVE SMOOTH",
"204 291 OFFCURVE",
"216 279 OFFCURVE",
"230 279 CURVE SMOOTH",
"244 279 OFFCURVE",
"256 291 OFFCURVE",
"256 305 CURVE SMOOTH",
"256 319 OFFCURVE",
"244 331 OFFCURVE",
"230 331 CURVE SMOOTH"
);
}
);
width = 236;
}
);
leftKerningGroup = h;
leftMetricsKey = l;
rightKerningGroup = l;
unicode = 0140;
},
{
glyphname = lslash;
layers = (
{
components = (
{
name = l;
transform = "{1, 0, 0, 1, 40, 0}";
}
);
layerId = "66FBD069-7978-4D3C-B543-2EFDE6A4602F";
paths = (
{
closed = 1;
nodes = (
"30 441 LINE",
"35 422 LINE",
"297 497 LINE",
"292 517 LINE"
);
}
);
width = 316;
}
);
leftKerningGroup = lslash;
rightKerningGroup = lslash;
unicode = 0142;
},
{
glyphname = m;
layers = (
{
layerId = "66FBD069-7978-4D3C-B543-2EFDE6A4602F";
paths = (
{
closed = 1;
nodes = (
"110 517 LINE",
"110 0 LINE",
"130 0 LINE",
"130 517 LINE"
);
},
{
closed = 1;
nodes = (
"198 514 OFFCURVE",
"112 416 OFFCURVE",
"112 253 CURVE",
"130 253 LINE",
"130 403 OFFCURVE",
"209 494 OFFCURVE",
"343 497 CURVE",
"455 497 OFFCURVE",
"522 429 OFFCURVE",
"522 313 CURVE",
"522 0 LINE SMOOTH",
"542 0 LINE",
"542 313 LINE",
"542 441 OFFCURVE",
"468 517 OFFCURVE",
"344 517 CURVE"
);
},
{
closed = 1;
nodes = (
"610 514 OFFCURVE",
"524 416 OFFCURVE",
"524 253 CURVE",
"542 253 LINE",
"542 403 OFFCURVE",
"620 494 OFFCURVE",
"755 497 CURVE",
"867 497 OFFCURVE",
"933 429 OFFCURVE",
"933 313 CURVE",
"933 0 LINE SMOOTH",
"953 0 LINE",
"953 313 LINE",
"953 441 OFFCURVE",
"880 517 OFFCURVE",
"755 517 CURVE"
);
}
);
width = 1046;
}
);
leftKerningGroup = n;
rightKerningGroup = n;
unicode = 006D;
},
{
glyphname = n;
layers = (
{
anchors = (
{
name = bottom;
position = "{325, 0}";
},
{
name = top;
position = "{332, 517}";
}
);
layerId = "66FBD069-7978-4D3C-B543-2EFDE6A4602F";
paths = (
{
closed = 1;
nodes = (
"110 517 LINE",
"110 0 LINE",
"130 0 LINE",
"130 517 LINE"
);
},
{
closed = 1;
nodes = (
"199 514 OFFCURVE",
"111 416 OFFCURVE",
"111 253 CURVE",
"129 253 LINE",
"129 403 OFFCURVE",
"210 494 OFFCURVE",
"348 497 CURVE",
"463 497 OFFCURVE",
"531 429 OFFCURVE",
"531 313 CURVE",
"531 0 LINE SMOOTH",
"551 0 LINE",
"551 313 LINE",
"551 441 OFFCURVE",
"476 517 OFFCURVE",
"348 517 CURVE"
);
}
);
width = 644;
}
);
leftKerningGroup = n;
rightKerningGroup = n;
unicode = 006E;
},
{
glyphname = eng;
layers = (
{
anchors = (
{
name = bottom;
position = "{325, 0}";
},
{
name = top;
position = "{332, 517}";
}
);
layerId = "66FBD069-7978-4D3C-B543-2EFDE6A4602F";
paths = (
{
closed = 1;
nodes = (
"199 514 OFFCURVE",
"111 416 OFFCURVE",
"111 253 CURVE",
"129 253 LINE",
"129 403 OFFCURVE",
"210 494 OFFCURVE",
"348 497 CURVE SMOOTH",
"463 497 OFFCURVE",
"531 429 OFFCURVE",
"531 313 CURVE SMOOTH",
"531 -32 LINE SMOOTH",
"531 -126 OFFCURVE",
"498 -174 OFFCURVE",
"435 -173 CURVE SMOOTH",
"403 -172 OFFCURVE",
"371 -161 OFFCURVE",
"345 -140 CURVE",
"333 -156 LINE",
"363 -179 OFFCURVE",
"398 -192 OFFCURVE",
"435 -193 CURVE SMOOTH",
"511 -194 OFFCURVE",
"551 -140 OFFCURVE",
"551 -32 CURVE SMOOTH",
"551 313 LINE SMOOTH",
"551 441 OFFCURVE",
"476 517 OFFCURVE",
"348 517 CURVE SMOOTH"
);
},
{
closed = 1;
nodes = (
"110 517 LINE",
"110 0 LINE",
"130 0 LINE",
"130 517 LINE"
);
}
);
width = 644;
}
);
leftKerningGroup = i;
rightKerningGroup = i;
unicode = 014B;
},
{
glyphname = o;
layers = (
{
anchors = (
{
name = top;
position = "{303, 517}";
}
);
layerId = "66FBD069-7978-4D3C-B543-2EFDE6A4602F";
paths = (
{
closed = 1;
nodes = (
"159 517 OFFCURVE",
"52 409 OFFCURVE",
"52 259 CURVE SMOOTH",
"52 108 OFFCURVE",
"159 0 OFFCURVE",
"303 0 CURVE SMOOTH",
"447 0 OFFCURVE",
"554 108 OFFCURVE",
"554 259 CURVE SMOOTH",
"554 409 OFFCURVE",
"447 517 OFFCURVE",
"303 517 CURVE SMOOTH"
);
},
{
closed = 1;
nodes = (
"437 497 OFFCURVE",
"534 399 OFFCURVE",
"534 259 CURVE SMOOTH",
"534 118 OFFCURVE",
"437 20 OFFCURVE",
"303 20 CURVE SMOOTH",
"169 20 OFFCURVE",
"72 118 OFFCURVE",
"72 259 CURVE SMOOTH",
"72 399 OFFCURVE",
"169 497 OFFCURVE",
"303 497 CURVE SMOOTH"
);
}
);
width = 606;
}
);
leftKerningGroup = o;
rightKerningGroup = o;
unicode = 006F;
},
{
glyphname = oslash;
layers = (
{
anchors = (
{
name = top;
position = "{303, 517}";
}
);
layerId = "66FBD069-7978-4D3C-B543-2EFDE6A4602F";
paths = (
{
closed = 1;
nodes = (
"418 653 LINE",
"161 -153 LINE",
"182 -153 LINE",
"439 653 LINE"
);
},
{
closed = 1;
nodes = (
"159 517 OFFCURVE",
"52 409 OFFCURVE",
"52 259 CURVE SMOOTH",
"52 108 OFFCURVE",
"159 0 OFFCURVE",
"303 0 CURVE SMOOTH",
"447 0 OFFCURVE",
"554 108 OFFCURVE",
"554 259 CURVE SMOOTH",
"554 409 OFFCURVE",
"447 517 OFFCURVE",
"303 517 CURVE SMOOTH"
);
},
{
closed = 1;
nodes = (
"437 497 OFFCURVE",
"534 399 OFFCURVE",
"534 259 CURVE SMOOTH",
"534 118 OFFCURVE",
"437 20 OFFCURVE",
"303 20 CURVE SMOOTH",
"169 20 OFFCURVE",
"72 118 OFFCURVE",
"72 259 CURVE SMOOTH",
"72 399 OFFCURVE",
"169 497 OFFCURVE",
"303 497 CURVE SMOOTH"
);
}
);
width = 606;
}
);
leftKerningGroup = o;
leftMetricsKey = o;
rightKerningGroup = o;
rightMetricsKey = o;
unicode = 00F8;
},
{
glyphname = oe;
layers = (
{
anchors = (
{
name = top;
position = "{538, 517}";
}
);
layerId = "66FBD069-7978-4D3C-B543-2EFDE6A4602F";
paths = (
{
closed = 0;
nodes = (
"396 206 LINE"
);
},
{
closed = 1;
nodes = (
"159 517 OFFCURVE",
"52 409 OFFCURVE",
"52 259 CURVE SMOOTH",
"52 108 OFFCURVE",
"159 0 OFFCURVE",
"303 0 CURVE SMOOTH",
"447 0 OFFCURVE",
"554 108 OFFCURVE",
"554 259 CURVE SMOOTH",
"554 409 OFFCURVE",
"447 517 OFFCURVE",
"303 517 CURVE SMOOTH"
);
},
{
closed = 1;
nodes = (
"437 497 OFFCURVE",
"534 399 OFFCURVE",
"534 259 CURVE SMOOTH",
"534 118 OFFCURVE",
"437 20 OFFCURVE",
"303 20 CURVE SMOOTH",
"169 20 OFFCURVE",
"72 118 OFFCURVE",
"72 259 CURVE SMOOTH",
"72 399 OFFCURVE",
"169 497 OFFCURVE",
"303 497 CURVE SMOOTH"
);
},
{
closed = 1;
nodes = (
"547 259 LINE",
"1027 259 LINE",
"1027 409 OFFCURVE",
"930 517 OFFCURVE",
"786 517 CURVE SMOOTH",
"642 517 OFFCURVE",
"535 409 OFFCURVE",
"535 259 CURVE SMOOTH",
"535 108 OFFCURVE",
"642 0 OFFCURVE",
"786 0 CURVE SMOOTH",
"866 0 OFFCURVE",
"936 30 OFFCURVE",
"984 81 CURVE",
"970 95 LINE",
"926 47 OFFCURVE",
"861 20 OFFCURVE",
"786 20 CURVE SMOOTH",
"652 20 OFFCURVE",
"555 118 OFFCURVE",
"555 259 CURVE SMOOTH",
"555 399 OFFCURVE",
"652 497 OFFCURVE",
"786 497 CURVE SMOOTH",
"914 497 OFFCURVE",
"998 408 OFFCURVE",
"1007 279 CURVE",
"547 279 LINE"
);
}
);
width = 1075;
}
);
leftKerningGroup = o;
leftMetricsKey = o;
rightKerningGroup = e;
rightMetricsKey = e;
unicode = 0153;
},
{
glyphname = p;
layers = (
{
layerId = "66FBD069-7978-4D3C-B543-2EFDE6A4602F";
paths = (
{
closed = 1;
nodes = (
"115 517 LINE",
"115 -194 LINE",
"135 -194 LINE",
"135 517 LINE"
);
},
{
closed = 0;
nodes = (
"145 36 LINE"
);
},
{
closed = 1;
nodes = (
"221 517 OFFCURVE",
"115 408 OFFCURVE",
"115 258 CURVE",
"115 109 OFFCURVE",
"221 0 OFFCURVE",
"366 0 CURVE SMOOTH",
"511 0 OFFCURVE",
"617 109 OFFCURVE",
"617 258 CURVE SMOOTH",
"617 408 OFFCURVE",
"511 517 OFFCURVE",
"366 517 CURVE SMOOTH"
);
},
{
closed = 1;
nodes = (
"500 497 OFFCURVE",
"597 396 OFFCURVE",
"597 258 CURVE SMOOTH",
"597 120 OFFCURVE",
"500 20 OFFCURVE",
"366 20 CURVE SMOOTH",
"232 20 OFFCURVE",
"135 120 OFFCURVE",
"135 258 CURVE SMOOTH",
"135 396 OFFCURVE",
"232 497 OFFCURVE",
"366 497 CURVE SMOOTH"
);
}
);
width = 669;
}
);
leftKerningGroup = p;
rightKerningGroup = o;
unicode = 0070;
},
{
glyphname = thorn;
layers = (
{
anchors = (
{
name = bottom;
position = "{125, 0}";
},
{
name = top;
position = "{125, 742}";
},
{
name = topright;
position = "{223, 517}";
}
);
layerId = "66FBD069-7978-4D3C-B543-2EFDE6A4602F";
paths = (
{
closed = 0;
nodes = (
"309 329 LINE"
);
},
{
closed = 1;
nodes = (
"115 517 LINE",
"115 -194 LINE",
"135 -194 LINE",
"135 517 LINE"
);
},
{
closed = 0;
nodes = (
"145 36 LINE"
);
},
{
closed = 1;
nodes = (
"221 517 OFFCURVE",
"115 408 OFFCURVE",
"115 258 CURVE",
"115 109 OFFCURVE",
"221 0 OFFCURVE",
"366 0 CURVE SMOOTH",
"511 0 OFFCURVE",
"617 109 OFFCURVE",
"617 258 CURVE SMOOTH",
"617 408 OFFCURVE",
"511 517 OFFCURVE",
"366 517 CURVE SMOOTH"
);
},
{
closed = 1;
nodes = (
"500 497 OFFCURVE",
"597 396 OFFCURVE",
"597 258 CURVE SMOOTH",
"597 120 OFFCURVE",
"500 20 OFFCURVE",
"366 20 CURVE SMOOTH",
"232 20 OFFCURVE",
"135 120 OFFCURVE",
"135 258 CURVE SMOOTH",
"135 396 OFFCURVE",
"232 497 OFFCURVE",
"366 497 CURVE SMOOTH"
);
},
{
closed = 1;
nodes = (
"115 742 LINE",
"115 0 LINE",
"135 0 LINE",
"135 742 LINE"
);
}
);
width = 669;
}
);
leftKerningGroup = h;
leftMetricsKey = l;
rightKerningGroup = o;
rightMetricsKey = o;
unicode = 00FE;
},
{
glyphname = q;
layers = (
{
layerId = "66FBD069-7978-4D3C-B543-2EFDE6A4602F";
paths = (
{
closed = 1;
nodes = (
"538 517 LINE",
"538 -194 LINE",
"558 -194 LINE",
"558 517 LINE"
);
},
{
closed = 0;
nodes = (
"423 39 LINE"
);
},
{
closed = 1;
nodes = (
"159 519 OFFCURVE",
"52 409 OFFCURVE",
"52 258 CURVE SMOOTH",
"52 108 OFFCURVE",
"159 -2 OFFCURVE",
"305 -2 CURVE SMOOTH",
"451 -2 OFFCURVE",
"558 108 OFFCURVE",
"558 258 CURVE",
"558 409 OFFCURVE",
"451 519 OFFCURVE",
"305 519 CURVE SMOOTH"
);
},
{
closed = 1;
nodes = (
"440 499 OFFCURVE",
"538 397 OFFCURVE",
"538 258 CURVE SMOOTH",
"538 119 OFFCURVE",
"440 18 OFFCURVE",
"305 18 CURVE SMOOTH",
"170 18 OFFCURVE",
"72 119 OFFCURVE",
"72 258 CURVE SMOOTH",
"72 397 OFFCURVE",
"170 499 OFFCURVE",
"305 499 CURVE SMOOTH"
);
}
);
width = 673;
}
);
leftKerningGroup = o;
rightKerningGroup = q;
unicode = 0071;
},
{
glyphname = r;
layers = (
{
anchors = (
{
name = bottom;
position = "{120, 0}";
},
{
name = top;
position = "{166, 517}";
}
);
layerId = "66FBD069-7978-4D3C-B543-2EFDE6A4602F";
paths = (
{
closed = 1;
nodes = (
"110 517 LINE",
"110 0 LINE",
"130 0 LINE",
"130 517 LINE"
);
},
{
closed = 1;
nodes = (
"191 514 OFFCURVE",
"111 416 OFFCURVE",
"111 253 CURVE",
"129 253 LINE",
"129 403 OFFCURVE",
"202 494 OFFCURVE",
"328 497 CURVE",
"328 517 LINE"
);
}
);
width = 338;
}
);
leftKerningGroup = n;
rightKerningGroup = r;
unicode = 0072;
},
{
glyphname = s;
layers = (
{
anchors = (
{
name = bottom;
position = "{210, 0}";
},
{
name = top;
position = "{213, 517}";
}
);
layerId = "66FBD069-7978-4D3C-B543-2EFDE6A4602F";
paths = (
{
closed = 1;
nodes = (
"133 517 OFFCURVE",
"58 478 OFFCURVE",
"58 393 CURVE SMOOTH",
"58 219 OFFCURVE",
"375 288 OFFCURVE",
"369 129 CURVE SMOOTH",
"366 54 OFFCURVE",
"296 20 OFFCURVE",
"215 20 CURVE SMOOTH",
"147 20 OFFCURVE",
"87 44 OFFCURVE",
"43 87 CURVE",
"30 72 LINE",
"76 26 OFFCURVE",
"143 0 OFFCURVE",
"215 0 CURVE SMOOTH",
"305 0 OFFCURVE",
"389 41 OFFCURVE",
"389 134 CURVE SMOOTH",
"389 314 OFFCURVE",
"78 240 OFFCURVE",
"78 395 CURVE SMOOTH",
"78 465 OFFCURVE",
"142 497 OFFCURVE",
"223 497 CURVE SMOOTH",
"274 497 OFFCURVE",
"317 484 OFFCURVE",
"350 463 CURVE",
"360 480 LINE",
"322 502 OFFCURVE",
"277 517 OFFCURVE",
"222 517 CURVE SMOOTH"
);
}
);
width = 427;
}
);
leftKerningGroup = s;
rightKerningGroup = s;
unicode = 0073;
},
{
glyphname = germandbls;
layers = (
{
layerId = "66FBD069-7978-4D3C-B543-2EFDE6A4602F";
paths = (
{
closed = 1;
nodes = (
"197 742 OFFCURVE",
"110 645 OFFCURVE",
"110 496 CURVE SMOOTH",
"110 0 LINE",
"130 0 LINE",
"130 496 LINE SMOOTH",
"130 633 OFFCURVE",
"209 722 OFFCURVE",
"331 722 CURVE SMOOTH",
"441 722 OFFCURVE",
"512 658 OFFCURVE",
"512 560 CURVE SMOOTH",
"512 454 OFFCURVE",
"435 385 OFFCURVE",
"316 385 CURVE",
"316 365 LINE",
"321 365 LINE",
"459 365 OFFCURVE",
"548 299 OFFCURVE",
"548 197 CURVE SMOOTH",
"548 90 OFFCURVE",
"462 20 OFFCURVE",
"330 20 CURVE SMOOTH",
"275 20 LINE",
"275 0 LINE",
"330 0 LINE SMOOTH",
"475 0 OFFCURVE",
"568 77 OFFCURVE",
"568 197 CURVE SMOOTH",
"568 293 OFFCURVE",
"495 364 OFFCURVE",
"383 377 CURVE",
"473 394 OFFCURVE",
"532 466 OFFCURVE",
"532 560 CURVE SMOOTH",
"532 671 OFFCURVE",
"453 742 OFFCURVE",
"331 742 CURVE SMOOTH"
);
}
);
width = 640;
}
);
leftKerningGroup = f;
leftMetricsKey = U;
rightKerningGroup = B;
rightMetricsKey = B;
unicode = 00DF;
},
{
glyphname = t;
layers = (
{
anchors = (
{
name = bottom;
position = "{221, 0}";
},
{
name = center;
position = "{181, 259}";
}
);
layerId = "66FBD069-7978-4D3C-B543-2EFDE6A4602F";
paths = (
{
closed = 1;
nodes = (
"126 630 LINE",
"126 142 LINE",
"126 48 OFFCURVE",
"164 -1 OFFCURVE",
"236 0 CURVE",
"273 1 OFFCURVE",
"308 14 OFFCURVE",
"338 37 CURVE",
"326 53 LINE",
"300 32 OFFCURVE",
"268 21 OFFCURVE",
"236 20 CURVE",
"177 19 OFFCURVE",
"146 62 OFFCURVE",
"146 142 CURVE",
"146 630 LINE"
);
},
{
closed = 1;
nodes = (
"50 507 LINE",
"50 487 LINE",
"328 487 LINE",
"328 507 LINE"
);
}
);
width = 362;
}
);
leftKerningGroup = u;
rightKerningGroup = t;
unicode = 0074;
},
{
glyphname = tbar;
layers = (
{
anchors = (
{
name = bottom;
position = "{221, 0}";
},
{
name = center;
position = "{181, 259}";
}
);
layerId = "66FBD069-7978-4D3C-B543-2EFDE6A4602F";
paths = (
{
closed = 1;
nodes = (
"126 630 LINE",
"126 142 LINE",
"126 48 OFFCURVE",
"164 -1 OFFCURVE",
"236 0 CURVE",
"273 1 OFFCURVE",
"308 14 OFFCURVE",
"338 37 CURVE",
"326 53 LINE",
"300 32 OFFCURVE",
"268 21 OFFCURVE",
"236 20 CURVE",
"177 19 OFFCURVE",
"146 62 OFFCURVE",
"146 142 CURVE",
"146 630 LINE"
);
},
{
closed = 1;
nodes = (
"50 507 LINE",
"50 487 LINE",
"328 487 LINE",
"328 507 LINE"
);
},
{
closed = 1;
nodes = (
"50 317 LINE",
"50 297 LINE",
"328 297 LINE",
"328 317 LINE"
);
}
);
width = 362;
}
);
leftKerningGroup = t;
rightKerningGroup = t;
unicode = 0167;
},
{
glyphname = u;
layers = (
{
anchors = (
{
name = ogonek;
position = "{567, 10}";
},
{
name = top;
position = "{316, 517}";
}
);
layerId = "66FBD069-7978-4D3C-B543-2EFDE6A4602F";
paths = (
{
closed = 1;
nodes = (
"527 0 LINE",
"527 517 LINE",
"507 517 LINE",
"507 0 LINE"
);
},
{
closed = 1;
nodes = (
"438 3 OFFCURVE",
"524 101 OFFCURVE",
"524 264 CURVE",
"507 264 LINE",
"507 114 OFFCURVE",
"427 23 OFFCURVE",
"292 20 CURVE",
"179 20 OFFCURVE",
"112 88 OFFCURVE",
"112 204 CURVE",
"112 517 LINE SMOOTH",
"92 517 LINE",
"92 204 LINE",
"92 76 OFFCURVE",
"166 0 OFFCURVE",
"292 0 CURVE"
);
}
);
width = 637;
}
);
leftKerningGroup = u;
rightKerningGroup = i;
unicode = 0075;
},
{
glyphname = uogonek;
layers = (
{
layerId = "66FBD069-7978-4D3C-B543-2EFDE6A4602F";
paths = (
{
closed = 1;
nodes = (
"513 517 LINE",
"513 236 LINE",
"504 101 OFFCURVE",
"419 21 OFFCURVE",
"296 20 CURVE SMOOTH",
"183 19 OFFCURVE",
"112 85 OFFCURVE",
"112 204 CURVE SMOOTH",
"112 517 LINE",
"92 517 LINE",
"92 204 LINE SMOOTH",
"92 76 OFFCURVE",
"164 1 OFFCURVE",
"294 1 CURVE SMOOTH",
"407 1 OFFCURVE",
"480 57 OFFCURVE",
"513 146 CURVE",
"513 5 LINE",
"514 5 LINE",
"460 -65 OFFCURVE",
"446 -103 OFFCURVE",
"446 -133 CURVE SMOOTH",
"446 -179 OFFCURVE",
"478 -199 OFFCURVE",
"509 -199 CURVE SMOOTH",
"536 -199 OFFCURVE",
"563 -183 OFFCURVE",
"584 -159 CURVE",
"570 -145 LINE",
"551 -166 OFFCURVE",
"532 -179 OFFCURVE",
"509 -179 CURVE SMOOTH",
"485 -179 OFFCURVE",
"466 -166 OFFCURVE",
"466 -131 CURVE SMOOTH",
"466 -106 OFFCURVE",
"475 -67 OFFCURVE",
"532 0 CURVE",
"533 0 LINE",
"533 517 LINE"
);
}
);
width = 638;
}
);
leftKerningGroup = u;
leftMetricsKey = u;
rightKerningGroup = u;
unicode = 0173;
},
{
glyphname = v;
layers = (
{
layerId = "66FBD069-7978-4D3C-B543-2EFDE6A4602F";
paths = (
{
closed = 1;
nodes = (
"432 517 LINE",
"233 23 LINE",
"33 517 LINE",
"10 517 LINE",
"222 0 LINE",
"244 0 LINE",
"456 517 LINE"
);
}
);
width = 456;
}
);
leftKerningGroup = v;
rightKerningGroup = v;
unicode = 0076;
},
{
glyphname = w;
layers = (
{
anchors = (
{
name = top;
position = "{409, 517}";
}
);
layerId = "66FBD069-7978-4D3C-B543-2EFDE6A4602F";
paths = (
{
closed = 1;
nodes = (
"795 517 LINE",
"611 23 LINE",
"426 517 LINE",
"402 517 LINE",
"219 23 LINE",
"34 517 LINE",
"10 517 LINE",
"207 0 LINE",
"229 0 LINE",
"415 489 LINE",
"599 0 LINE",
"621 0 LINE",
"818 517 LINE"
);
}
);
width = 818;
}
);
leftKerningGroup = v;
rightKerningGroup = v;
unicode = 0077;
},
{
glyphname = x;
layers = (
{
layerId = "66FBD069-7978-4D3C-B543-2EFDE6A4602F";
paths = (
{
closed = 1;
nodes = (
"46 517 LINE",
"230 268 LINE",
"31 0 LINE",
"56 0 LINE",
"242 251 LINE",
"429 0 LINE",
"454 0 LINE",
"255 268 LINE",
"440 517 LINE",
"416 517 LINE",
"243 284 LINE",
"70 517 LINE"
);
}
);
width = 489;
}
);
leftKerningGroup = x;
rightKerningGroup = x;
unicode = 0078;
},
{
glyphname = y;
layers = (
{
anchors = (
{
name = top;
position = "{233, 517}";
}
);
layerId = "66FBD069-7978-4D3C-B543-2EFDE6A4602F";
paths = (
{
closed = 1;
nodes = (
"432 517 LINE",
"234 23 LINE",
"33 517 LINE",
"10 517 LINE",
"224 -2 LINE",
"198 -68 LINE SMOOTH",
"171 -136 OFFCURVE",
"128 -174 OFFCURVE",
"77 -174 CURVE SMOOTH",
"47 -174 OFFCURVE",
"18 -166 OFFCURVE",
"-4 -151 CURVE",
"-13 -168 LINE",
"11 -185 OFFCURVE",
"43 -194 OFFCURVE",
"79 -194 CURVE SMOOTH",
"134 -194 OFFCURVE",
"182 -152 OFFCURVE",
"214 -75 CURVE SMOOTH",
"456 517 LINE"
);
}
);
width = 456;
}
);
leftKerningGroup = v;
rightKerningGroup = v;
unicode = 0079;
},
{
glyphname = z;
layers = (
{
anchors = (
{
name = top;
position = "{255, 517}";
}
);
layerId = "66FBD069-7978-4D3C-B543-2EFDE6A4602F";
paths = (
{
closed = 1;
nodes = (
"71 517 LINE",
"71 497 LINE",
"432 496 LINE",
"62 25 LINE",
"62 0 LINE",
"459 -1 LINE",
"459 19 LINE",
"82 20 LINE",
"452 491 LINE",
"452 516 LINE"
);
}
);
width = 510;
}
);
leftKerningGroup = z;
rightKerningGroup = z;
unicode = 007A;
},
{
glyphname = a.ss01;
layers = (
{
anchors = (
{
name = ogonek;
position = "{616, 10}";
},
{
name = top;
position = "{332, 517}";
}
);
layerId = "66FBD069-7978-4D3C-B543-2EFDE6A4602F";
paths = (
{
closed = 1;
nodes = (
"538 517 LINE",
"538 0 LINE",
"558 0 LINE",
"558 517 LINE"
);
},
{
closed = 1;
nodes = (
"159 519 OFFCURVE",
"52 409 OFFCURVE",
"52 258 CURVE SMOOTH",
"52 108 OFFCURVE",
"159 -2 OFFCURVE",
"305 -2 CURVE SMOOTH",
"451 -2 OFFCURVE",
"558 108 OFFCURVE",
"558 258 CURVE",
"558 409 OFFCURVE",
"451 519 OFFCURVE",
"305 519 CURVE SMOOTH"
);
},
{
closed = 1;
nodes = (
"440 499 OFFCURVE",
"538 397 OFFCURVE",
"538 258 CURVE SMOOTH",
"538 119 OFFCURVE",
"440 18 OFFCURVE",
"305 18 CURVE SMOOTH",
"170 18 OFFCURVE",
"72 119 OFFCURVE",
"72 258 CURVE SMOOTH",
"72 397 OFFCURVE",
"170 499 OFFCURVE",
"305 499 CURVE SMOOTH"
);
}
);
width = 668;
}
);
leftKerningGroup = o;
leftMetricsKey = o;
rightKerningGroup = dotlessi;
rightMetricsKey = dotlessi;
},
{
glyphname = ae.ss01;
layers = (
{
anchors = (
{
name = top;
position = "{487, 517}";
}
);
layerId = "66FBD069-7978-4D3C-B543-2EFDE6A4602F";
paths = (
{
closed = 0;
nodes = (
"558 124 LINE"
);
},
{
closed = 1;
nodes = (
"257 282 LINE",
"138 282 OFFCURVE",
"63 233 OFFCURVE",
"63 149 CURVE",
"63 63 OFFCURVE",
"132 0 OFFCURVE",
"233 0 CURVE",
"342 0 OFFCURVE",
"429 48 OFFCURVE",
"473 161 CURVE",
"467 199 LINE",
"422 65 OFFCURVE",
"341 20 OFFCURVE",
"233 20 CURVE",
"142 20 OFFCURVE",
"83 73 OFFCURVE",
"83 149 CURVE",
"83 221 OFFCURVE",
"146 262 OFFCURVE",
"257 262 CURVE",
"462 262 LINE",
"462 282 LINE"
);
},
{
closed = 1;
nodes = (
"101 425 LINE",
"158 469 OFFCURVE",
"214 497 OFFCURVE",
"284 497 CURVE",
"394 497 OFFCURVE",
"449 440 OFFCURVE",
"450 345 CURVE",
"450 259 LINE",
"470 259 LINE",
"470 345 LINE",
"469 450 OFFCURVE",
"404 517 OFFCURVE",
"284 517 CURVE",
"210 517 OFFCURVE",
"148 487 OFFCURVE",
"89 441 CURVE"
);
},
{
closed = 1;
nodes = (
"843 50 OFFCURVE",
"780 20 OFFCURVE",
"705 20 CURVE SMOOTH",
"568 20 OFFCURVE",
"472 119 OFFCURVE",
"472 259 CURVE SMOOTH",
"472 398 OFFCURVE",
"568 497 OFFCURVE",
"702 497 CURVE SMOOTH",
"795 497 OFFCURVE",
"871 451 OFFCURVE",
"900 371 CURVE",
"464 193 LINE",
"471 175 LINE",
"926 360 LINE",
"897 457 OFFCURVE",
"809 517 OFFCURVE",
"703 517 CURVE SMOOTH",
"558 517 OFFCURVE",
"452 408 OFFCURVE",
"452 259 CURVE SMOOTH",
"452 109 OFFCURVE",
"558 0 OFFCURVE",
"704 0 CURVE SMOOTH",
"785 0 OFFCURVE",
"854 33 OFFCURVE",
"909 104 CURVE",
"892 115 LINE"
);
}
);
width = 974;
}
);
leftKerningGroup = ae.ss01;
leftMetricsKey = a;
rightKerningGroup = ae.ss01;
rightMetricsKey = e;
},
{
glyphname = e.ss01;
layers = (
{
anchors = (
{
name = bottom;
position = "{296, 0}";
},
{
name = ogonek;
position = "{533, 10}";
},
{
name = top;
position = "{296, 517}";
}
);
layerId = "66FBD069-7978-4D3C-B543-2EFDE6A4602F";
paths = (
{
closed = 1;
nodes = (
"71 175 LINE",
"526 360 LINE",
"497 457 OFFCURVE",
"409 517 OFFCURVE",
"303 517 CURVE SMOOTH",
"158 517 OFFCURVE",
"52 408 OFFCURVE",
"52 259 CURVE SMOOTH",
"52 109 OFFCURVE",
"158 0 OFFCURVE",
"304 0 CURVE SMOOTH",
"385 0 OFFCURVE",
"454 33 OFFCURVE",
"509 104 CURVE",
"492 115 LINE",
"443 50 OFFCURVE",
"380 20 OFFCURVE",
"305 20 CURVE SMOOTH",
"168 20 OFFCURVE",
"72 119 OFFCURVE",
"72 259 CURVE SMOOTH",
"72 398 OFFCURVE",
"168 497 OFFCURVE",
"302 497 CURVE SMOOTH",
"395 497 OFFCURVE",
"471 451 OFFCURVE",
"500 371 CURVE",
"64 193 LINE"
);
}
);
width = 592;
}
);
leftKerningGroup = o;
leftMetricsKey = o;
rightKerningGroup = e;
},
{
glyphname = eogonek.ss01;
layers = (
{
layerId = "66FBD069-7978-4D3C-B543-2EFDE6A4602F";
paths = (
{
closed = 1;
nodes = (
"168 20 OFFCURVE",
"72 119 OFFCURVE",
"72 259 CURVE SMOOTH",
"72 398 OFFCURVE",
"168 497 OFFCURVE",
"302 497 CURVE SMOOTH",
"395 497 OFFCURVE",
"471 451 OFFCURVE",
"500 371 CURVE",
"64 193 LINE",
"71 175 LINE",
"526 360 LINE",
"497 457 OFFCURVE",
"409 517 OFFCURVE",
"303 517 CURVE SMOOTH",
"158 517 OFFCURVE",
"52 408 OFFCURVE",
"52 259 CURVE SMOOTH",
"52 109 OFFCURVE",
"158 0 OFFCURVE",
"304 0 CURVE",
"363 0 OFFCURVE",
"416 18 OFFCURVE",
"460 51 CURVE",
"404 -28 OFFCURVE",
"385 -84 OFFCURVE",
"385 -131 CURVE SMOOTH",
"385 -172 OFFCURVE",
"413 -199 OFFCURVE",
"449 -199 CURVE SMOOTH",
"475 -199 OFFCURVE",
"503 -181 OFFCURVE",
"522 -159 CURVE",
"508 -145 LINE",
"490 -165 OFFCURVE",
"470 -179 OFFCURVE",
"449 -179 CURVE SMOOTH",
"424 -179 OFFCURVE",
"405 -162 OFFCURVE",
"405 -131 CURVE SMOOTH",
"405 -81 OFFCURVE",
"421 -23 OFFCURVE",
"501 81 CURVE",
"487 95 LINE",
"444 47 OFFCURVE",
"380 20 OFFCURVE",
"305 20 CURVE"
);
}
);
width = 592;
}
);
leftKerningGroup = o;
rightKerningGroup = e;
},
{
glyphname = f.ss01;
layers = (
{
layerId = "66FBD069-7978-4D3C-B543-2EFDE6A4602F";
paths = (
{
closed = 1;
nodes = (
"163 753 OFFCURVE",
"98 682 OFFCURVE",
"98 590 CURVE",
"98 0 LINE",
"118 0 LINE",
"118 590 LINE",
"118 672 OFFCURVE",
"173 733 OFFCURVE",
"244 732 CURVE",
"276 731 OFFCURVE",
"308 719 OFFCURVE",
"334 699 CURVE",
"346 715 LINE",
"318 737 OFFCURVE",
"280 751 OFFCURVE",
"244 752 CURVE"
);
},
{
closed = 1;
nodes = (
"103 507 LINE",
"103 487 LINE",
"286 487 LINE",
"286 507 LINE"
);
}
);
width = 276;
}
);
leftKerningGroup = f.ss01;
rightKerningGroup = f.ss01;
},
{
glyphname = g.ss01;
layers = (
{
anchors = (
{
name = top;
position = "{312, 517}";
}
);
layerId = "66FBD069-7978-4D3C-B543-2EFDE6A4602F";
paths = (
{
closed = 1;
nodes = (
"516 517 LINE",
"516 59 LINE",
"516 -83 OFFCURVE",
"427 -174 OFFCURVE",
"290 -173 CURVE",
"206 -169 OFFCURVE",
"138 -122 OFFCURVE",
"116 -55 CURVE",
"98 -62 LINE",
"121 -138 OFFCURVE",
"196 -189 OFFCURVE",
"290 -193 CURVE",
"439 -194 OFFCURVE",
"536 -95 OFFCURVE",
"536 59 CURVE",
"536 517 LINE"
);
},
{
closed = 1;
nodes = (
"154 517 OFFCURVE",
"52 412 OFFCURVE",
"52 267 CURVE SMOOTH",
"52 124 OFFCURVE",
"154 19 OFFCURVE",
"293 19 CURVE SMOOTH",
"433 19 OFFCURVE",
"535 124 OFFCURVE",
"535 267 CURVE",
"535 412 OFFCURVE",
"433 517 OFFCURVE",
"293 517 CURVE SMOOTH"
);
},
{
closed = 1;
nodes = (
"422 498 OFFCURVE",
"516 400 OFFCURVE",
"516 267 CURVE SMOOTH",
"516 135 OFFCURVE",
"422 38 OFFCURVE",
"293 38 CURVE SMOOTH",
"164 38 OFFCURVE",
"71 135 OFFCURVE",
"71 267 CURVE SMOOTH",
"71 400 OFFCURVE",
"164 498 OFFCURVE",
"293 498 CURVE SMOOTH"
);
}
);
width = 630;
}
);
leftKerningGroup = o;
leftMetricsKey = o;
rightKerningGroup = j;
rightMetricsKey = j;
},
{
glyphname = l.ss01;
layers = (
{
anchors = (
{
name = bottom;
position = "{130, 0}";
},
{
name = top;
position = "{130, 517}";
},
{
name = topright;
position = "{240, 517}";
}
);
layerId = "66FBD069-7978-4D3C-B543-2EFDE6A4602F";
paths = (
{
closed = 1;
nodes = (
"102 90 LINE SMOOTH",
"102 30 OFFCURVE",
"128 0 OFFCURVE",
"175 0 CURVE SMOOTH",
"198 0 OFFCURVE",
"224 13 OFFCURVE",
"247 37 CURVE",
"234 51 LINE",
"215 31 OFFCURVE",
"194 20 OFFCURVE",
"175 20 CURVE SMOOTH",
"140 20 OFFCURVE",
"121 43 OFFCURVE",
"121 90 CURVE SMOOTH",
"121 742 LINE",
"102 742 LINE"
);
}
);
width = 259;
}
);
leftKerningGroup = l.ss01;
rightKerningGroup = l.ss01;
},
{
glyphname = oe.ss01;
layers = (
{
anchors = (
{
name = bottom;
position = "{902, 0}";
},
{
name = ogonek;
position = "{1139, 10}";
},
{
name = top;
position = "{902, 517}";
}
);
layerId = "66FBD069-7978-4D3C-B543-2EFDE6A4602F";
paths = (
{
closed = 1;
nodes = (
"159 517 OFFCURVE",
"52 409 OFFCURVE",
"52 259 CURVE SMOOTH",
"52 108 OFFCURVE",
"159 0 OFFCURVE",
"303 0 CURVE SMOOTH",
"447 0 OFFCURVE",
"554 108 OFFCURVE",
"554 259 CURVE SMOOTH",
"554 409 OFFCURVE",
"447 517 OFFCURVE",
"303 517 CURVE SMOOTH"
);
},
{
closed = 1;
nodes = (
"437 497 OFFCURVE",
"534 399 OFFCURVE",
"534 259 CURVE SMOOTH",
"534 118 OFFCURVE",
"437 20 OFFCURVE",
"303 20 CURVE SMOOTH",
"169 20 OFFCURVE",
"72 118 OFFCURVE",
"72 259 CURVE SMOOTH",
"72 399 OFFCURVE",
"169 497 OFFCURVE",
"303 497 CURVE SMOOTH"
);
},
{
closed = 1;
nodes = (
"640 517 OFFCURVE",
"534 408 OFFCURVE",
"534 259 CURVE SMOOTH",
"534 109 OFFCURVE",
"640 0 OFFCURVE",
"786 0 CURVE SMOOTH",
"867 0 OFFCURVE",
"936 33 OFFCURVE",
"991 104 CURVE",
"974 115 LINE",
"925 50 OFFCURVE",
"862 20 OFFCURVE",
"787 20 CURVE SMOOTH",
"650 20 OFFCURVE",
"554 119 OFFCURVE",
"554 259 CURVE SMOOTH",
"554 398 OFFCURVE",
"650 497 OFFCURVE",
"784 497 CURVE SMOOTH",
"877 497 OFFCURVE",
"953 451 OFFCURVE",
"982 371 CURVE",
"546 193 LINE",
"553 175 LINE",
"1008 360 LINE",
"979 457 OFFCURVE",
"891 517 OFFCURVE",
"785 517 CURVE SMOOTH"
);
}
);
width = 1074;
}
);
leftKerningGroup = o;
leftMetricsKey = "=o";
rightKerningGroup = o;
rightMetricsKey = e.ss01;
},
{
glyphname = t.ss01;
layers = (
{
anchors = (
{
name = bottom;
position = "{205, 0}";
},
{
name = center;
position = "{150, 259}";
}
);
layerId = "66FBD069-7978-4D3C-B543-2EFDE6A4602F";
paths = (
{
closed = 1;
nodes = (
"95 630 LINE",
"95 162 LINE",
"95 54 OFFCURVE",
"133 -1 OFFCURVE",
"205 0 CURVE",
"242 1 OFFCURVE",
"277 14 OFFCURVE",
"307 37 CURVE",
"295 53 LINE",
"269 32 OFFCURVE",
"237 21 OFFCURVE",
"205 20 CURVE",
"146 19 OFFCURVE",
"115 68 OFFCURVE",
"115 162 CURVE",
"115 630 LINE"
);
},
{
closed = 1;
nodes = (
"109 507 LINE",
"109 487 LINE",
"297 487 LINE",
"297 507 LINE"
);
}
);
width = 331;
}
);
leftKerningGroup = u;
rightKerningGroup = t;
rightMetricsKey = t;
},
{
glyphname = tbar.ss01;
layers = (
{
anchors = (
{
name = bottom;
position = "{190, 0}";
},
{
name = center;
position = "{150, 259}";
}
);
layerId = "66FBD069-7978-4D3C-B543-2EFDE6A4602F";
paths = (
{
closed = 1;
nodes = (
"95 630 LINE",
"95 162 LINE",
"95 54 OFFCURVE",
"133 -1 OFFCURVE",
"205 0 CURVE",
"242 1 OFFCURVE",
"277 14 OFFCURVE",
"307 37 CURVE",
"295 53 LINE",
"269 32 OFFCURVE",
"237 21 OFFCURVE",
"205 20 CURVE",
"146 19 OFFCURVE",
"115 68 OFFCURVE",
"115 162 CURVE",
"115 630 LINE"
);
},
{
closed = 1;
nodes = (
"109 507 LINE",
"109 487 LINE",
"297 487 LINE",
"297 507 LINE"
);
},
{
closed = 1;
nodes = (
"109 317 LINE",
"109 297 LINE",
"297 297 LINE",
"297 317 LINE"
);
}
);
width = 331;
}
);
leftKerningGroup = tbar.ss01;
rightKerningGroup = tbar.ss01;
},
{
glyphname = w.ss01;
layers = (
{
anchors = (
{
name = top;
position = "{479, 517}";
}
);
layerId = "66FBD069-7978-4D3C-B543-2EFDE6A4602F";
paths = (
{
closed = 1;
nodes = (
"847 517 LINE",
"847 194 LINE SMOOTH",
"847 88 OFFCURVE",
"777 20 OFFCURVE",
"670 20 CURVE SMOOTH",
"561 20 OFFCURVE",
"489 88 OFFCURVE",
"489 194 CURVE SMOOTH",
"489 517 LINE",
"469 517 LINE",
"469 194 LINE SMOOTH",
"469 88 OFFCURVE",
"398 20 OFFCURVE",
"287 20 CURVE SMOOTH",
"180 20 OFFCURVE",
"110 88 OFFCURVE",
"110 194 CURVE SMOOTH",
"110 517 LINE",
"90 517 LINE",
"90 194 LINE SMOOTH",
"90 76 OFFCURVE",
"168 0 OFFCURVE",
"286 0 CURVE SMOOTH",
"381 0 OFFCURVE",
"457 50 OFFCURVE",
"479 127 CURVE",
"501 50 OFFCURVE",
"576 0 OFFCURVE",
"671 0 CURVE SMOOTH",
"789 0 OFFCURVE",
"867 76 OFFCURVE",
"867 194 CURVE SMOOTH",
"867 517 LINE"
);
}
);
width = 957;
}
);
leftKerningGroup = u;
rightKerningGroup = w.ss01;
},
{
glyphname = y.ss01;
layers = (
{
anchors = (
{
name = top;
position = "{311, 517}";
}
);
layerId = "66FBD069-7978-4D3C-B543-2EFDE6A4602F";
paths = (
{
closed = 1;
nodes = (
"444 47 OFFCURVE",
"532 145 OFFCURVE",
"532 308 CURVE",
"514 308 LINE",
"514 158 OFFCURVE",
"433 67 OFFCURVE",
"295 64 CURVE",
"180 64 OFFCURVE",
"112 132 OFFCURVE",
"112 248 CURVE",
"112 517 LINE SMOOTH",
"92 517 LINE",
"92 248 LINE",
"92 120 OFFCURVE",
"167 44 OFFCURVE",
"295 44 CURVE"
);
},
{
closed = 1;
nodes = (
"514 517 LINE",
"514 59 LINE",
"514 -89 OFFCURVE",
"435 -174 OFFCURVE",
"298 -173 CURVE",
"223 -169 OFFCURVE",
"155 -136 OFFCURVE",
"109 -83 CURVE",
"96 -97 LINE",
"145 -154 OFFCURVE",
"219 -189 OFFCURVE",
"298 -193 CURVE",
"448 -194 OFFCURVE",
"534 -102 OFFCURVE",
"534 59 CURVE",
"534 517 LINE"
);
}
);
width = 628;
}
);
leftKerningGroup = u;
leftMetricsKey = u;
rightKerningGroup = j;
rightMetricsKey = g;
},
{
glyphname = z.ss01;
layers = (
{
anchors = (
{
name = top;
position = "{255, 517}";
}
);
layerId = "66FBD069-7978-4D3C-B543-2EFDE6A4602F";
paths = (
{
closed = 1;
nodes = (
"256 269 LINE",
"256 249 LINE",
"424 249 LINE",
"424 269 LINE"
);
},
{
closed = 1;
nodes = (
"102 271 LINE",
"102 251 LINE",
"260 251 LINE",
"260 271 LINE"
);
},
{
closed = 1;
nodes = (
"71 517 LINE",
"71 497 LINE",
"432 496 LINE",
"62 25 LINE",
"62 0 LINE",
"459 -1 LINE",
"459 19 LINE",
"82 20 LINE",
"452 491 LINE",
"452 516 LINE"
);
}
);
width = 510;
}
);
leftKerningGroup = z;
leftMetricsKey = z;
rightKerningGroup = z;
rightMetricsKey = z;
},
{
glyphname = fi;
layers = (
{
components = (
{
name = i;
transform = "{1, 0, 0, 1, 295, 0}";
}
);
layerId = "66FBD069-7978-4D3C-B543-2EFDE6A4602F";
paths = (
{
closed = 1;
nodes = (
"182 753 OFFCURVE",
"117 682 OFFCURVE",
"117 590 CURVE",
"117 0 LINE",
"137 0 LINE",
"137 590 LINE",
"137 672 OFFCURVE",
"192 733 OFFCURVE",
"263 732 CURVE",
"295 731 OFFCURVE",
"327 719 OFFCURVE",
"353 699 CURVE",
"353 723 LINE",
"328 740 OFFCURVE",
"295 751 OFFCURVE",
"263 752 CURVE"
);
},
{
closed = 1;
nodes = (
"52 517 LINE",
"52 497 LINE",
"305 497 LINE",
"305 517 LINE"
);
}
);
width = 535;
}
);
leftKerningGroup = f;
leftMetricsKey = f;
rightKerningGroup = dotlessi;
rightMetricsKey = i;
unicode = FB01;
},
{
glyphname = fl;
layers = (
{
components = (
{
name = l;
transform = "{1, 0, 0, 1, 295, 0}";
}
);
layerId = "66FBD069-7978-4D3C-B543-2EFDE6A4602F";
paths = (
{
closed = 1;
nodes = (
"182 753 OFFCURVE",
"117 682 OFFCURVE",
"117 590 CURVE",
"117 0 LINE",
"137 0 LINE",
"137 590 LINE",
"137 672 OFFCURVE",
"192 733 OFFCURVE",
"263 732 CURVE",
"295 731 OFFCURVE",
"327 719 OFFCURVE",
"353 699 CURVE",
"353 723 LINE",
"328 740 OFFCURVE",
"295 751 OFFCURVE",
"263 752 CURVE"
);
},
{
closed = 1;
nodes = (
"52 517 LINE",
"52 497 LINE",
"305 497 LINE",
"305 517 LINE"
);
}
);
width = 545;
}
);
leftKerningGroup = f;
leftMetricsKey = f;
rightKerningGroup = l;
rightMetricsKey = l;
unicode = FB02;
},
{
glyphname = fi.ss01;
layers = (
{
components = (
{
name = i;
transform = "{1, 0, 0, 1, 276, 0}";
}
);
layerId = "66FBD069-7978-4D3C-B543-2EFDE6A4602F";
paths = (
{
closed = 1;
nodes = (
"163 753 OFFCURVE",
"98 682 OFFCURVE",
"98 590 CURVE",
"98 0 LINE",
"118 0 LINE",
"118 590 LINE",
"118 672 OFFCURVE",
"173 733 OFFCURVE",
"244 732 CURVE",
"276 731 OFFCURVE",
"308 719 OFFCURVE",
"334 699 CURVE",
"334 723 LINE",
"309 740 OFFCURVE",
"276 751 OFFCURVE",
"244 752 CURVE"
);
},
{
closed = 1;
nodes = (
"113 507 LINE",
"113 487 LINE",
"286 487 LINE",
"286 507 LINE"
);
}
);
width = 516;
}
);
leftKerningGroup = f;
leftMetricsKey = f.ss01;
rightKerningGroup = dotlessi;
rightMetricsKey = i;
},
{
glyphname = fl.ss01;
layers = (
{
anchors = (
{
name = caret_1;
position = "{278, 0}";
}
);
layerId = "66FBD069-7978-4D3C-B543-2EFDE6A4602F";
paths = (
{
closed = 1;
nodes = (
"529 -49 LINE",
"510 -69 OFFCURVE",
"489 -80 OFFCURVE",
"470 -80 CURVE SMOOTH",
"435 -80 OFFCURVE",
"416 -57 OFFCURVE",
"416 -10 CURVE SMOOTH",
"416 602 LINE SMOOTH",
"416 691 OFFCURVE",
"358 750 OFFCURVE",
"269 752 CURVE SMOOTH",
"177 753 OFFCURVE",
"117 689 OFFCURVE",
"117 590 CURVE SMOOTH",
"117 507 LINE",
"52 507 LINE",
"52 487 LINE",
"117 487 LINE",
"117 0 LINE",
"137 0 LINE",
"137 487 LINE",
"275 487 LINE",
"275 507 LINE",
"137 507 LINE",
"137 590 LINE SMOOTH",
"137 677 OFFCURVE",
"189 733 OFFCURVE",
"269 732 CURVE SMOOTH",
"347 730 OFFCURVE",
"397 679 OFFCURVE",
"397 602 CURVE SMOOTH",
"397 -10 LINE SMOOTH",
"397 -70 OFFCURVE",
"423 -100 OFFCURVE",
"470 -100 CURVE SMOOTH",
"493 -100 OFFCURVE",
"519 -87 OFFCURVE",
"542 -63 CURVE"
);
}
);
width = 554;
}
);
leftKerningGroup = f;
leftMetricsKey = f;
rightKerningGroup = l;
rightMetricsKey = l.ss01;
},
{
glyphname = ordfeminine;
layers = (
{
layerId = "66FBD069-7978-4D3C-B543-2EFDE6A4602F";
paths = (
{
closed = 1;
nodes = (
"143 760 OFFCURVE",
"104 743 OFFCURVE",
"67 717 CURVE",
"76 701 LINE",
"111 726 OFFCURVE",
"145 741 OFFCURVE",
"185 741 CURVE",
"249 741 OFFCURVE",
"281 710 OFFCURVE",
"282 657 CURVE",
"283 458 LINE",
"303 458 LINE",
"302 658 LINE",
"302 720 OFFCURVE",
"261 760 OFFCURVE",
"188 760 CURVE"
);
},
{
closed = 1;
nodes = (
"289 624 LINE",
"168 624 LINE",
"96 624 OFFCURVE",
"51 595 OFFCURVE",
"51 545 CURVE",
"51 494 OFFCURVE",
"92 458 OFFCURVE",
"153 458 CURVE",
"218 458 OFFCURVE",
"268 485 OFFCURVE",
"294 546 CURVE",
"283 554 LINE",
"259 497 OFFCURVE",
"215 475 OFFCURVE",
"157 475 CURVE",
"105 475 OFFCURVE",
"71 504 OFFCURVE",
"71 546 CURVE",
"71 586 OFFCURVE",
"107 608 OFFCURVE",
"170 608 CURVE",
"289 608 LINE"
);
}
);
width = 372;
}
);
leftKerningGroup = asterisk;
rightKerningGroup = asterisk;
unicode = 00AA;
},
{
glyphname = ordmasculine;
layers = (
{
layerId = "66FBD069-7978-4D3C-B543-2EFDE6A4602F";
paths = (
{
closed = 1;
nodes = (
"109 760 OFFCURVE",
"45 697 OFFCURVE",
"45 609 CURVE SMOOTH",
"45 520 OFFCURVE",
"109 458 OFFCURVE",
"198 458 CURVE SMOOTH",
"286 458 OFFCURVE",
"351 520 OFFCURVE",
"351 609 CURVE SMOOTH",
"351 697 OFFCURVE",
"286 760 OFFCURVE",
"198 760 CURVE SMOOTH"
);
},
{
closed = 1;
nodes = (
"275 741 OFFCURVE",
"330 687 OFFCURVE",
"330 609 CURVE SMOOTH",
"330 530 OFFCURVE",
"275 476 OFFCURVE",
"198 476 CURVE SMOOTH",
"121 476 OFFCURVE",
"65 530 OFFCURVE",
"65 609 CURVE SMOOTH",
"65 687 OFFCURVE",
"121 741 OFFCURVE",
"198 741 CURVE SMOOTH"
);
}
);
width = 396;
}
);
leftKerningGroup = asterisk;
rightKerningGroup = asterisk;
unicode = 00BA;
},
{
glyphname = Delta;
layers = (
{
layerId = "66FBD069-7978-4D3C-B543-2EFDE6A4602F";
paths = (
{
closed = 1;
nodes = (
"330 699 LINE",
"10 0 LINE",
"34 0 LINE",
"341 676 LINE",
"653 0 LINE",
"676 0 LINE",
"352 699 LINE"
);
},
{
closed = 1;
nodes = (
"25 20 LINE",
"25 0 LINE",
"660 0 LINE",
"660 20 LINE"
);
}
);
width = 686;
}
);
leftKerningGroup = A;
rightKerningGroup = A;
unicode = 0394;
},
{
glyphname = Omega;
layers = (
{
anchors = (
{
name = topleft;
position = "{20, 699}";
}
);
layerId = "66FBD069-7978-4D3C-B543-2EFDE6A4602F";
paths = (
{
closed = 1;
nodes = (
"257 699 OFFCURVE",
"104 551 OFFCURVE",
"104 353 CURVE SMOOTH",
"104 224 OFFCURVE",
"176 89 OFFCURVE",
"279 20 CURVE",
"13 20 LINE",
"13 0 LINE",
"318 0 LINE",
"318 20 LINE",
"205 78 OFFCURVE",
"124 218 OFFCURVE",
"124 353 CURVE SMOOTH",
"124 541 OFFCURVE",
"267 679 OFFCURVE",
"463 679 CURVE SMOOTH",
"659 679 OFFCURVE",
"802 541 OFFCURVE",
"802 353 CURVE SMOOTH",
"802 218 OFFCURVE",
"721 79 OFFCURVE",
"609 21 CURVE",
"609 0 LINE",
"913 0 LINE",
"913 20 LINE",
"647 20 LINE",
"750 89 OFFCURVE",
"822 224 OFFCURVE",
"822 353 CURVE SMOOTH",
"822 551 OFFCURVE",
"669 699 OFFCURVE",
"463 699 CURVE SMOOTH"
);
}
);
width = 926;
}
);
leftMetricsKey = T;
rightMetricsKey = T;
unicode = 03A9;
},
{
glyphname = pi;
layers = (
{
layerId = "66FBD069-7978-4D3C-B543-2EFDE6A4602F";
paths = (
{
closed = 1;
nodes = (
"162 517 LINE",
"70 517 OFFCURVE",
"-1 452 OFFCURVE",
"0 371 CURVE",
"1 335 OFFCURVE",
"15 297 OFFCURVE",
"37 269 CURVE",
"53 280 LINE",
"33 307 OFFCURVE",
"21 339 OFFCURVE",
"20 371 CURVE",
"19 442 OFFCURVE",
"80 497 OFFCURVE",
"162 497 CURVE",
"711 497 LINE",
"712 517 LINE"
);
},
{
closed = 1;
nodes = (
"509 517 LINE",
"509 0 LINE",
"529 0 LINE",
"529 517 LINE"
);
},
{
closed = 1;
nodes = (
"249 517 LINE",
"189 0 LINE",
"209 0 LINE",
"269 517 LINE"
);
}
);
width = 718;
}
);
unicode = 03C0;
},
{
glyphname = "aaMatra-gurmukhi";
layers = (
{
anchors = (
{
name = bindu;
position = "{102, 680}";
},
{
name = candra;
position = "{102, 690}";
},
{
name = top;
position = "{102, 670}";
}
);
layerId = "66FBD069-7978-4D3C-B543-2EFDE6A4602F";
paths = (
{
closed = 1;
nodes = (
"112 310 LINE",
"112 660 LINE",
"224 660 LINE",
"224 680 LINE",
"0 680 LINE",
"0 660 LINE",
"92 660 LINE",
"92 310 LINE"
);
}
);
width = 224;
}
);
unicode = 0A3E;
},
{
glyphname = "iMatra-gurmukhi";
layers = (
{
anchors = (
{
name = bindu;
position = "{461, 670}";
},
{
name = candra;
position = "{638, 690}";
}
);
layerId = "66FBD069-7978-4D3C-B543-2EFDE6A4602F";
paths = (
{
closed = 1;
nodes = (
"102 660 LINE",
"102 753 LINE SMOOTH",
"102 844 OFFCURVE",
"135 887 OFFCURVE",
"212 887 CURVE SMOOTH",
"308 887 OFFCURVE",
"364 819 OFFCURVE",
"403 757 CURVE",
"420 767 LINE",
"360 864 OFFCURVE",
"291 907 OFFCURVE",
"212 907 CURVE SMOOTH",
"119 907 OFFCURVE",
"82 847 OFFCURVE",
"82 751 CURVE SMOOTH",
"82 680 LINE",
"0 680 LINE",
"0 660 LINE"
);
},
{
closed = 1;
nodes = (
"102 0 LINE",
"102 669 LINE",
"95 660 LINE",
"214 660 LINE",
"214 680 LINE",
"82 680 LINE",
"82 0 LINE"
);
}
);
width = 214;
}
);
unicode = 0A3F;
},
{
glyphname = "iiMatra-gurmukhi";
layers = (
{
anchors = (
{
name = bindu;
position = "{181, 670}";
},
{
name = candra;
position = "{355, 690}";
}
);
layerId = "66FBD069-7978-4D3C-B543-2EFDE6A4602F";
paths = (
{
closed = 1;
nodes = (
"114 660 LINE",
"114 750 LINE SMOOTH",
"114 849 OFFCURVE",
"71 907 OFFCURVE",
"-7 907 CURVE SMOOTH",
"-85 907 OFFCURVE",
"-124 848 OFFCURVE",
"-133 760 CURVE",
"-115 757 LINE",
"-105 826 OFFCURVE",
"-81 887 OFFCURVE",
"-7 887 CURVE SMOOTH",
"60 887 OFFCURVE",
"94 837 OFFCURVE",
"94 753 CURVE SMOOTH",
"94 669 LINE",
"105 680 LINE",
"0 680 LINE",
"0 660 LINE"
);
},
{
closed = 1;
nodes = (
"114 0 LINE",
"114 669 LINE",
"107 660 LINE",
"226 660 LINE",
"226 680 LINE",
"94 680 LINE",
"94 0 LINE"
);
}
);
width = 226;
}
);
rightMetricsKey = "STEM-GURM";
unicode = 0A40;
},
{
glyphname = "a-gurmukhi";
layers = (
{
anchors = (
{
name = bindu;
position = "{673, 680}";
},
{
name = candra;
position = "{673, 690}";
},
{
name = top;
position = "{673, 670}";
}
);
layerId = "66FBD069-7978-4D3C-B543-2EFDE6A4602F";
paths = (
{
closed = 1;
nodes = (
"414 198 OFFCURVE",
"436 286 OFFCURVE",
"436 385 CURVE SMOOTH",
"436 510 OFFCURVE",
"401 584 OFFCURVE",
"301 584 CURVE SMOOTH",
"214 584 OFFCURVE",
"170 529 OFFCURVE",
"149 457 CURVE",
"159 484 LINE",
"154 624 OFFCURVE",
"91 680 OFFCURVE",
"10 680 CURVE SMOOTH",
"0 680 LINE",
"0 660 LINE",
"12 660 LINE SMOOTH",
"130 660 OFFCURVE",
"147 505 OFFCURVE",
"141 426 CURVE",
"151 478 LINE",
"122 396 OFFCURVE",
"97 304 OFFCURVE",
"79 208 CURVE",
"98 203 LINE",
"143 321 OFFCURVE",
"160 386 OFFCURVE",
"159 463 CURVE",
"146 393 LINE",
"176 522 OFFCURVE",
"233 564 OFFCURVE",
"302 564 CURVE SMOOTH",
"404 564 OFFCURVE",
"419 470 OFFCURVE",
"417 337 CURVE",
"424 407 LINE",
"409 345 OFFCURVE",
"391 274 OFFCURVE",
"379 211 CURVE SMOOTH",
"373 181 OFFCURVE",
"364 124 OFFCURVE",
"361 104 CURVE",
"381 100 LINE"
);
},
{
closed = 1;
nodes = (
"670 361 LINE",
"670 381 LINE",
"429 381 LINE",
"429 361 LINE"
);
},
{
closed = 1;
nodes = (
"682 0 LINE",
"682 669 LINE",
"675 660 LINE",
"794 660 LINE",
"794 680 LINE",
"662 680 LINE",
"662 0 LINE"
);
}
);
width = 794;
}
);
rightMetricsKey = "STEM-GURM";
unicode = 0A05;
},
{
glyphname = "ee-gurmukhi";
layers = (
{
anchors = (
{
name = _top;
position = "{488, 670}";
},
{
name = bindu;
position = "{590, 680}";
},
{
name = bottom;
position = "{355, 2}";
},
{
name = candra;
position = "{640, 690}";
},
{
name = caret_1;
position = "{346, 30}";
},
{
name = nukta;
position = "{92, 0}";
},
{
name = top;
position = "{590, 670}";
}
);
components = (
{
name = "iri-gurmukhi";
}
);
layerId = "66FBD069-7978-4D3C-B543-2EFDE6A4602F";
paths = (
{
closed = 1;
nodes = (
"498 669 LINE",
"498 813 OFFCURVE",
"416 907 OFFCURVE",
"256 907 CURVE SMOOTH",
"212 907 OFFCURVE",
"167 900 OFFCURVE",
"132 888 CURVE",
"138 870 LINE",
"170 880 OFFCURVE",
"214 887 OFFCURVE",
"257 887 CURVE SMOOTH",
"417 887 OFFCURVE",
"478 789 OFFCURVE",
"478 669 CURVE"
);
}
);
width = 610;
}
);
unicode = 0A0F;
},
{
glyphname = "ai-gurmukhi";
layers = (
{
anchors = (
{
name = _top;
position = "{673, 670}";
},
{
name = bindu;
position = "{770, 680}";
},
{
name = candra;
position = "{820, 690}";
},
{
name = top;
position = "{770, 670}";
}
);
components = (
{
name = "a-gurmukhi";
}
);
layerId = "66FBD069-7978-4D3C-B543-2EFDE6A4602F";
paths = (
{
closed = 1;
nodes = (
"683 669 LINE",
"682 874 OFFCURVE",
"569 947 OFFCURVE",
"445 947 CURVE",
"444 927 LINE",
"552 927 OFFCURVE",
"648 870 OFFCURVE",
"664 704 CURVE",
"669 719 LINE",
"640 795 OFFCURVE",
"542 836 OFFCURVE",
"447 836 CURVE SMOOTH",
"397 836 OFFCURVE",
"350 827 OFFCURVE",
"315 814 CURVE",
"320 796 LINE",
"354 808 OFFCURVE",
"399 816 OFFCURVE",
"447 816 CURVE SMOOTH",
"549 816 OFFCURVE",
"662 765 OFFCURVE",
"663 669 CURVE"
);
}
);
width = 794;
}
);
unicode = 0A10;
},
{
glyphname = "oo-gurmukhi";
layers = (
{
anchors = (
{
name = bindu;
position = "{610, 680}";
},
{
name = bottom;
position = "{356, 0}";
},
{
name = candra;
position = "{700, 650}";
},
{
name = caret_1;
position = "{346, 30}";
},
{
name = nukta;
position = "{92, 0}";
},
{
name = top;
position = "{538, 670}";
}
);
layerId = "66FBD069-7978-4D3C-B543-2EFDE6A4602F";
paths = (
{
closed = 1;
nodes = (
"463 0 OFFCURVE",
"536 83 OFFCURVE",
"536 193 CURVE SMOOTH",
"536 301 OFFCURVE",
"466 393 OFFCURVE",
"301 390 CURVE",
"311 387 LINE",
"438 387 OFFCURVE",
"548 505 OFFCURVE",
"548 669 CURVE",
"528 668 LINE",
"528 529 OFFCURVE",
"446 398 OFFCURVE",
"273 398 CURVE SMOOTH",
"84 398 LINE",
"84 378 LINE",
"273 378 LINE SMOOTH",
"466 378 OFFCURVE",
"516 284 OFFCURVE",
"516 193 CURVE SMOOTH",
"516 81 OFFCURVE",
"439 20 OFFCURVE",
"350 20 CURVE SMOOTH",
"167 20 OFFCURVE",
"81 276 OFFCURVE",
"82 550 CURVE SMOOTH",
"82 782 OFFCURVE",
"161 893 OFFCURVE",
"315 893 CURVE SMOOTH",
"353 893 OFFCURVE",
"420 886 OFFCURVE",
"475 874 CURVE",
"480 893 LINE",
"425 905 OFFCURVE",
"353 913 OFFCURVE",
"316 913 CURVE SMOOTH",
"154 913 OFFCURVE",
"62 799 OFFCURVE",
"62 550 CURVE SMOOTH",
"62 245 OFFCURVE",
"158 0 OFFCURVE",
"353 0 CURVE SMOOTH"
);
},
{
closed = 1;
nodes = (
"619 660 LINE",
"619 680 LINE",
"0 680 LINE",
"0 660 LINE"
);
}
);
width = 619;
}
);
leftMetricsKey = "ura-gurmukhi";
rightMetricsKey = "ura-gurmukhi";
unicode = 0A13;
},
{
glyphname = "ka-gurmukhi";
layers = (
{
anchors = (
{
name = bindu;
position = "{507, 680}";
},
{
name = bottom;
position = "{531, 0}";
},
{
name = candra;
position = "{507, 690}";
},
{
name = caret_1;
position = "{257, 30}";
},
{
name = nukta;
position = "{94, 0}";
},
{
name = top;
position = "{507, 670}";
}
);
layerId = "66FBD069-7978-4D3C-B543-2EFDE6A4602F";
paths = (
{
closed = 1;
nodes = (
"541 0 LINE",
"541 37 LINE SMOOTH",
"541 161 OFFCURVE",
"515 259 OFFCURVE",
"475 332 CURVE",
"475 315 LINE",
"502 386 OFFCURVE",
"517 476 OFFCURVE",
"517 586 CURVE SMOOTH",
"517 669 LINE",
"497 669 LINE",
"497 588 LINE SMOOTH",
"497 493 OFFCURVE",
"486 413 OFFCURVE",
"465 348 CURVE",
"407 441 OFFCURVE",
"322 488 OFFCURVE",
"232 488 CURVE SMOOTH",
"125 488 OFFCURVE",
"41 421 OFFCURVE",
"41 303 CURVE SMOOTH",
"41 182 OFFCURVE",
"135 116 OFFCURVE",
"235 116 CURVE SMOOTH",
"335 116 OFFCURVE",
"424 181 OFFCURVE",
"475 314 CURVE",
"465 309 LINE",
"499 240 OFFCURVE",
"521 150 OFFCURVE",
"521 38 CURVE SMOOTH",
"521 0 LINE"
);
},
{
closed = 1;
nodes = (
"139 136 OFFCURVE",
"61 200 OFFCURVE",
"61 302 CURVE SMOOTH",
"61 406 OFFCURVE",
"133 468 OFFCURVE",
"232 468 CURVE SMOOTH",
"320 468 OFFCURVE",
"404 418 OFFCURVE",
"459 320 CURVE",
"459 329 LINE",
"414 201 OFFCURVE",
"331 136 OFFCURVE",
"235 136 CURVE SMOOTH"
);
},
{
closed = 1;
nodes = (
"629 660 LINE",
"629 680 LINE",
"0 680 LINE",
"0 660 LINE"
);
}
);
width = 629;
}
);
leftMetricsKey = "ra-gurmukhi";
rightMetricsKey = "STEM-GURM";
unicode = 0A15;
},
{
glyphname = "kha-gurmukhi";
layers = (
{
anchors = (
{
name = bindu;
position = "{500, 680}";
},
{
name = bottom;
position = "{500, 0}";
},
{
name = candra;
position = "{500, 690}";
},
{
name = caret_1;
position = "{308, 30}";
},
{
name = nukta;
position = "{125, 81}";
},
{
name = top;
position = "{500, 670}";
}
);
components = (
{
name = "pa-gurmukhi";
}
);
layerId = "66FBD069-7978-4D3C-B543-2EFDE6A4602F";
paths = (
{
closed = 1;
nodes = (
"501 427 LINE",
"501 447 LINE",
"155 447 LINE",
"155 427 LINE"
);
}
);
width = 622;
}
);
leftMetricsKey = "pa-gurmukhi";
rightMetricsKey = "pa-gurmukhi";
unicode = 0A16;
},
{
glyphname = "ga-gurmukhi";
layers = (
{
anchors = (
{
name = bindu;
position = "{612, 680}";
},
{
name = bottom;
position = "{612, 0}";
},
{
name = candra;
position = "{612, 690}";
},
{
name = caret_1;
position = "{418, 30}";
},
{
name = nukta;
position = "{74, 6}";
},
{
name = top;
position = "{612, 670}";
}
);
layerId = "66FBD069-7978-4D3C-B543-2EFDE6A4602F";
paths = (
{
closed = 1;
nodes = (
"397 0 OFFCURVE",
"433 24 OFFCURVE",
"433 102 CURVE SMOOTH",
"435 667 LINE",
"415 667 LINE",
"414 435 LINE",
"429 440 LINE",
"188 440 LINE SMOOTH",
"104 440 OFFCURVE",
"52 383 OFFCURVE",
"52 286 CURVE SMOOTH",
"52 114 OFFCURVE",
"222 0 OFFCURVE",
"343 0 CURVE SMOOTH"
);
},
{
closed = 1;
nodes = (
"216 20 OFFCURVE",
"72 141 OFFCURVE",
"72 283 CURVE SMOOTH",
"72 359 OFFCURVE",
"111 420 OFFCURVE",
"192 420 CURVE SMOOTH",
"429 420 LINE",
"414 425 LINE",
"413 109 LINE SMOOTH",
"413 54 OFFCURVE",
"403 20 OFFCURVE",
"340 20 CURVE SMOOTH"
);
},
{
closed = 1;
nodes = (
"629 660 LINE",
"629 680 LINE",
"0 680 LINE",
"0 660 LINE"
);
},
{
closed = 1;
nodes = (
"622 0 LINE",
"622 669 LINE",
"615 660 LINE",
"734 660 LINE",
"734 680 LINE",
"602 680 LINE",
"602 0 LINE"
);
}
);
width = 734;
}
);
leftMetricsKey = "ra-gurmukhi";
rightMetricsKey = "STEM-GURM";
unicode = 0A17;
},
{
glyphname = "gha-gurmukhi";
layers = (
{
anchors = (
{
name = bindu;
position = "{667, 680}";
},
{
name = bottom;
position = "{667, 0}";
},
{
name = candra;
position = "{667, 690}";
},
{
name = caret_1;
position = "{391, 30}";
},
{
name = nukta;
position = "{132, 0}";
},
{
name = top;
position = "{667, 670}";
}
);
layerId = "66FBD069-7978-4D3C-B543-2EFDE6A4602F";
paths = (
{
closed = 1;
nodes = (
"299 161 OFFCURVE",
"397 188 OFFCURVE",
"400 313 CURVE",
"386 303 LINE",
"405 217 OFFCURVE",
"455 161 OFFCURVE",
"544 161 CURVE SMOOTH",
"583 161 OFFCURVE",
"634 172 OFFCURVE",
"665 213 CURVE",
"665 248 LINE",
"638 192 OFFCURVE",
"581 181 OFFCURVE",
"545 181 CURVE SMOOTH",
"449 181 OFFCURVE",
"404 258 OFFCURVE",
"399 350 CURVE",
"398 279 LINE",
"409 362 OFFCURVE",
"416 434 OFFCURVE",
"416 480 CURVE SMOOTH",
"416 539 OFFCURVE",
"412 600 OFFCURVE",
"402 660 CURVE",
"382 660 LINE",
"382 309 LINE",
"372 200 OFFCURVE",
"288 181 OFFCURVE",
"235 181 CURVE SMOOTH",
"143 181 OFFCURVE",
"85 238 OFFCURVE",
"75 321 CURVE",
"67 302 LINE",
"138 344 OFFCURVE",
"175 429 OFFCURVE",
"175 507 CURVE SMOOTH",
"175 597 OFFCURVE",
"126 680 OFFCURVE",
"21 680 CURVE SMOOTH",
"0 680 LINE",
"0 660 LINE",
"24 660 LINE SMOOTH",
"114 660 OFFCURVE",
"155 590 OFFCURVE",
"155 511 CURVE SMOOTH",
"155 439 OFFCURVE",
"121 359 OFFCURVE",
"56 318 CURVE",
"70 222 OFFCURVE",
"134 161 OFFCURVE",
"234 161 CURVE SMOOTH"
);
},
{
closed = 1;
nodes = (
"677 0 LINE",
"677 669 LINE",
"670 660 LINE",
"789 660 LINE",
"789 680 LINE",
"657 680 LINE",
"657 0 LINE"
);
}
);
width = 789;
}
);
leftMetricsKey = "pa-gurmukhi";
rightMetricsKey = "STEM-GURM";
unicode = 0A18;
},
{
glyphname = "nga-gurmukhi";
layers = (
{
anchors = (
{
name = bindu;
position = "{439, 680}";
},
{
name = bottom;
position = "{285, 0}";
},
{
name = candra;
position = "{439, 690}";
},
{
name = caret_1;
position = "{307, 30}";
},
{
name = nukta;
position = "{72, 0}";
},
{
name = top;
position = "{439, 670}";
}
);
layerId = "66FBD069-7978-4D3C-B543-2EFDE6A4602F";
paths = (
{
closed = 1;
nodes = (
"519 137 LINE",
"458 200 OFFCURVE",
"370 237 OFFCURVE",
"271 237 CURVE SMOOTH",
"159 237 OFFCURVE",
"94 190 OFFCURVE",
"94 121 CURVE SMOOTH",
"94 51 OFFCURVE",
"161 0 OFFCURVE",
"285 0 CURVE SMOOTH",
"454 0 OFFCURVE",
"555 93 OFFCURVE",
"555 229 CURVE SMOOTH",
"555 335 OFFCURVE",
"494 444 OFFCURVE",
"326 444 CURVE SMOOTH",
"132 444 LINE",
"132 661 LINE",
"112 661 LINE",
"112 424 LINE",
"314 424 LINE SMOOTH",
"483 424 OFFCURVE",
"535 324 OFFCURVE",
"535 232 CURVE SMOOTH",
"535 119 OFFCURVE",
"457 20 OFFCURVE",
"287 20 CURVE SMOOTH",
"177 20 OFFCURVE",
"114 61 OFFCURVE",
"114 122 CURVE SMOOTH",
"114 180 OFFCURVE",
"173 217 OFFCURVE",
"271 217 CURVE SMOOTH",
"367 217 OFFCURVE",
"452 181 OFFCURVE",
"510 118 CURVE"
);
},
{
closed = 1;
nodes = (
"640 660 LINE",
"640 680 LINE",
"0 680 LINE",
"0 660 LINE"
);
}
);
width = 640;
}
);
rightMetricsKey = "ttha-gurmukhi";
unicode = 0A19;
},
{
glyphname = "ca-gurmukhi";
layers = (
{
anchors = (
{
name = bindu;
position = "{533, 680}";
},
{
name = bottom;
position = "{451, 2}";
},
{
name = candra;
position = "{533, 690}";
},
{
name = caret_1;
position = "{383, 30}";
},
{
name = nukta;
position = "{162, 0}";
},
{
name = top;
position = "{533, 670}";
}
);
layerId = "66FBD069-7978-4D3C-B543-2EFDE6A4602F";
paths = (
{
closed = 1;
nodes = (
"506 0 OFFCURVE",
"543 24 OFFCURVE",
"543 102 CURVE",
"543 662 LINE",
"523 662 LINE",
"523 109 LINE",
"523 53 OFFCURVE",
"512 20 OFFCURVE",
"448 20 CURVE SMOOTH",
"307 20 OFFCURVE",
"145 180 OFFCURVE",
"145 369 CURVE",
"125 371 LINE",
"125 148 OFFCURVE",
"314 0 OFFCURVE",
"451 0 CURVE SMOOTH"
);
},
{
closed = 1;
nodes = (
"155 375 LINE",
"122 399 OFFCURVE",
"109 401 OFFCURVE",
"30 406 CURVE",
"25 387 LINE",
"51 375 OFFCURVE",
"84 361 OFFCURVE",
"126 361 CURVE"
);
},
{
closed = 1;
nodes = (
"531 361 LINE",
"531 381 LINE",
"126 381 LINE",
"126 361 LINE"
);
},
{
closed = 1;
nodes = (
"655 660 LINE",
"655 680 LINE",
"0 680 LINE",
"0 660 LINE"
);
}
);
width = 655;
}
);
leftMetricsKey = "da-gurmukhi";
rightMetricsKey = "STEM-GURM";
unicode = 0A1A;
},
{
glyphname = "cha-gurmukhi";
layers = (
{
anchors = (
{
name = bindu;
position = "{499, 680}";
},
{
name = bottom;
position = "{305, 2}";
},
{
name = candra;
position = "{499, 690}";
},
{
name = caret_1;
position = "{304, 30}";
},
{
name = nukta;
position = "{72, 0}";
},
{
name = top;
position = "{499, 670}";
}
);
layerId = "66FBD069-7978-4D3C-B543-2EFDE6A4602F";
paths = (
{
closed = 1;
nodes = (
"496 0 OFFCURVE",
"564 59 OFFCURVE",
"564 133 CURVE SMOOTH",
"564 214 OFFCURVE",
"481 270 OFFCURVE",
"295 270 CURVE SMOOTH",
"275 270 OFFCURVE",
"256 269 OFFCURVE",
"239 268 CURVE SMOOTH",
"172 266 OFFCURVE",
"100 298 OFFCURVE",
"100 370 CURVE SMOOTH",
"100 414 OFFCURVE",
"130 467 OFFCURVE",
"241 467 CURVE SMOOTH",
"509 467 LINE",
"509 669 LINE",
"489 669 LINE",
"489 487 LINE",
"229 487 LINE SMOOTH",
"123 487 OFFCURVE",
"80 426 OFFCURVE",
"80 370 CURVE SMOOTH",
"80 316 OFFCURVE",
"113 276 OFFCURVE",
"172 259 CURVE",
"86 239 OFFCURVE",
"52 197 OFFCURVE",
"52 139 CURVE SMOOTH",
"52 57 OFFCURVE",
"121 0 OFFCURVE",
"308 0 CURVE SMOOTH"
);
},
{
closed = 1;
nodes = (
"132 20 OFFCURVE",
"72 69 OFFCURVE",
"72 138 CURVE SMOOTH",
"72 205 OFFCURVE",
"131 250 OFFCURVE",
"297 250 CURVE SMOOTH",
"468 250 OFFCURVE",
"544 201 OFFCURVE",
"544 132 CURVE SMOOTH",
"544 71 OFFCURVE",
"483 20 OFFCURVE",
"307 20 CURVE SMOOTH"
);
},
{
closed = 1;
nodes = (
"314 11 LINE",
"314 259 LINE",
"294 259 LINE",
"294 11 LINE"
);
},
{
closed = 1;
nodes = (
"621 660 LINE",
"621 680 LINE",
"0 680 LINE",
"0 660 LINE"
);
}
);
width = 621;
}
);
leftMetricsKey = "ttha-gurmukhi";
rightMetricsKey = "ttha-gurmukhi";
unicode = 0A1B;
},
{
glyphname = "ja-gurmukhi";
layers = (
{
anchors = (
{
name = bindu;
position = "{495, 680}";
},
{
name = bottom;
position = "{495, 0}";
},
{
name = candra;
position = "{495, 690}";
},
{
name = caret_1;
position = "{309, 30}";
},
{
name = nukta;
position = "{309, 21}";
},
{
name = top;
position = "{495, 670}";
}
);
layerId = "66FBD069-7978-4D3C-B543-2EFDE6A4602F";
paths = (
{
closed = 1;
nodes = (
"142 65 OFFCURVE",
"158 144 OFFCURVE",
"158 217 CURVE SMOOTH",
"158 259 OFFCURVE",
"153 296 OFFCURVE",
"140 333 CURVE",
"497 333 LINE",
"497 353 LINE",
"128 353 LINE",
"109 374 OFFCURVE",
"93 379 OFFCURVE",
"34 394 CURVE",
"25 376 LINE",
"46 359 OFFCURVE",
"78 340 OFFCURVE",
"118 334 CURVE",
"132 298 OFFCURVE",
"138 260 OFFCURVE",
"138 217 CURVE SMOOTH",
"138 145 OFFCURVE",
"123 69 OFFCURVE",
"104 7 CURVE",
"103 4 LINE",
"122 0 LINE"
);
},
{
closed = 1;
nodes = (
"567 660 LINE",
"567 680 LINE",
"0 680 LINE",
"0 660 LINE"
);
},
{
closed = 1;
nodes = (
"505 0 LINE",
"505 669 LINE",
"498 660 LINE",
"617 660 LINE",
"617 680 LINE",
"485 680 LINE",
"485 0 LINE"
);
}
);
width = 617;
}
);
leftMetricsKey = "da-gurmukhi";
rightMetricsKey = "STEM-GURM";
unicode = 0A1C;
},
{
glyphname = "jha-gurmukhi";
layers = (
{
anchors = (
{
name = bindu;
position = "{540, 680}";
},
{
name = bottom;
position = "{179, -37}";
},
{
name = candra;
position = "{540, 690}";
},
{
name = caret_1;
position = "{309, 0}";
},
{
name = nukta;
position = "{112, 0}";
},
{
name = top;
position = "{540, 670}";
}
);
layerId = "66FBD069-7978-4D3C-B543-2EFDE6A4602F";
paths = (
{
closed = 1;
nodes = (
"189 -37 LINE",
"189 99 LINE",
"178 89 LINE",
"214 83 OFFCURVE",
"249 80 OFFCURVE",
"280 80 CURVE SMOOTH",
"460 80 OFFCURVE",
"550 148 OFFCURVE",
"550 252 CURVE SMOOTH",
"550 324 OFFCURVE",
"500 411 OFFCURVE",
"339 426 CURVE",
"361 413 LINE",
"462 432 OFFCURVE",
"550 506 OFFCURVE",
"550 673 CURVE",
"530 673 LINE",
"533 491 OFFCURVE",
"422 428 OFFCURVE",
"312 428 CURVE SMOOTH",
"202 428 OFFCURVE",
"93 489 OFFCURVE",
"94 673 CURVE",
"74 673 LINE",
"74 534 OFFCURVE",
"135 459 OFFCURVE",
"213 428 CURVE",
"92 428 LINE",
"92 408 LINE",
"288 408 LINE SMOOTH",
"483 408 OFFCURVE",
"530 320 OFFCURVE",
"530 254 CURVE SMOOTH",
"530 164 OFFCURVE",
"457 100 OFFCURVE",
"282 100 CURVE SMOOTH",
"236 100 OFFCURVE",
"191 107 OFFCURVE",
"152 118 CURVE",
"186 106 LINE",
"160 125 OFFCURVE",
"137 136 OFFCURVE",
"115 143 CURVE SMOOTH",
"100 148 OFFCURVE",
"83 151 OFFCURVE",
"57 153 CURVE",
"52 134 LINE",
"85 113 OFFCURVE",
"126 100 OFFCURVE",
"169 91 CURVE",
"169 -33 LINE",
"169 -37 LINE"
);
},
{
closed = 1;
nodes = (
"612 660 LINE",
"612 680 LINE",
"0 680 LINE",
"0 660 LINE"
);
}
);
width = 612;
}
);
leftMetricsKey = "ta-gurmukhi";
rightMetricsKey = "ta-gurmukhi";
unicode = 0A1D;
},
{
glyphname = "nya-gurmukhi";
layers = (
{
anchors = (
{
name = bindu;
position = "{491, 680}";
},
{
name = bottom;
position = "{383, 2}";
},
{
name = candra;
position = "{491, 690}";
},
{
name = caret_1;
position = "{343, 30}";
},
{
name = nukta;
position = "{102, 0}";
},
{
name = top;
position = "{491, 670}";
}
);
components = (
{
name = "va-gurmukhi";
}
);
layerId = "66FBD069-7978-4D3C-B543-2EFDE6A4602F";
paths = (
{
closed = 1;
nodes = (
"382 460 LINE",
"237 460 OFFCURVE",
"93 513 OFFCURVE",
"94 673 CURVE",
"74 673 LINE",
"74 502 OFFCURVE",
"228 442 OFFCURVE",
"381 442 CURVE"
);
}
);
width = 613;
}
);
leftMetricsKey = "va-gurmukhi";
rightMetricsKey = "va-gurmukhi";
unicode = 0A1E;
},
{
glyphname = "tta-gurmukhi";
layers = (
{
anchors = (
{
name = bindu;
position = "{448, 680}";
},
{
name = bottom;
position = "{358, 2}";
},
{
name = candra;
position = "{448, 690}";
},
{
name = caret_1;
position = "{346, 30}";
},
{
name = nukta;
position = "{102, 0}";
},
{
name = top;
position = "{448, 670}";
}
);
layerId = "66FBD069-7978-4D3C-B543-2EFDE6A4602F";
paths = (
{
closed = 1;
nodes = (
"419 0 OFFCURVE",
"481 14 OFFCURVE",
"517 31 CURVE",
"509 51 LINE",
"469 31 OFFCURVE",
"412 20 OFFCURVE",
"361 20 CURVE SMOOTH",
"150 20 OFFCURVE",
"70 205 OFFCURVE",
"71 237 CURVE",
"69 220 LINE",
"81 254 OFFCURVE",
"140 432 OFFCURVE",
"454 433 CURVE",
"458 433 LINE",
"458 672 LINE",
"438 672 LINE",
"438 444 LINE",
"446 453 LINE",
"150 453 OFFCURVE",
"69 289 OFFCURVE",
"52 231 CURVE",
"62 168 OFFCURVE",
"150 0 OFFCURVE",
"358 0 CURVE SMOOTH"
);
},
{
closed = 1;
nodes = (
"570 660 LINE",
"570 680 LINE",
"0 680 LINE",
"0 660 LINE"
);
}
);
width = 570;
}
);
leftMetricsKey = "ra-gurmukhi";
rightMetricsKey = "STEM-GURM";
unicode = 0A1F;
},
{
glyphname = "ttha-gurmukhi";
layers = (
{
anchors = (
{
name = bindu;
position = "{479, 680}";
},
{
name = bottom;
position = "{318, 2}";
},
{
name = candra;
position = "{317, 690}";
},
{
name = caret_1;
position = "{318, 30}";
},
{
name = nukta;
position = "{82, 0}";
},
{
name = top;
position = "{479, 670}";
}
);
layerId = "66FBD069-7978-4D3C-B543-2EFDE6A4602F";
paths = (
{
closed = 1;
nodes = (
"482 0 OFFCURVE",
"584 96 OFFCURVE",
"584 227 CURVE SMOOTH",
"584 358 OFFCURVE",
"482 455 OFFCURVE",
"317 454 CURVE SMOOTH",
"154 454 OFFCURVE",
"52 358 OFFCURVE",
"52 227 CURVE SMOOTH",
"52 96 OFFCURVE",
"154 0 OFFCURVE",
"318 0 CURVE SMOOTH"
);
},
{
closed = 1;
nodes = (
"166 20 OFFCURVE",
"72 108 OFFCURVE",
"72 227 CURVE SMOOTH",
"72 345 OFFCURVE",
"166 434 OFFCURVE",
"317 434 CURVE SMOOTH",
"468 434 OFFCURVE",
"564 345 OFFCURVE",
"564 226 CURVE SMOOTH",
"564 108 OFFCURVE",
"469 20 OFFCURVE",
"318 20 CURVE SMOOTH"
);
},
{
closed = 1;
nodes = (
"327 445 LINE",
"327 661 LINE",
"307 661 LINE",
"307 445 LINE"
);
},
{
closed = 1;
nodes = (
"636 660 LINE",
"636 680 LINE",
"0 680 LINE",
"0 660 LINE"
);
}
);
width = 636;
}
);
unicode = 0A20;
},
{
glyphname = "dda-gurmukhi";
layers = (
{
anchors = (
{
name = bindu;
position = "{493, 680}";
},
{
name = bottom;
position = "{249, 2}";
},
{
name = candra;
position = "{493, 690}";
},
{
name = caret_1;
position = "{263, 30}";
},
{
name = nukta;
position = "{52, 0}";
},
{
name = top;
position = "{493, 670}";
}
);
layerId = "66FBD069-7978-4D3C-B543-2EFDE6A4602F";
paths = (
{
closed = 1;
nodes = (
"408 0 OFFCURVE",
"511 89 OFFCURVE",
"511 207 CURVE SMOOTH",
"511 299 OFFCURVE",
"447 404 OFFCURVE",
"272 399 CURVE",
"288 394 LINE",
"419 406 OFFCURVE",
"503 508 OFFCURVE",
"503 675 CURVE",
"483 675 LINE",
"483 530 OFFCURVE",
"417 413 OFFCURVE",
"250 405 CURVE",
"308 405 LINE",
"280 412 OFFCURVE",
"231 414 OFFCURVE",
"184 414 CURVE SMOOTH",
"165 414 OFFCURVE",
"134 414 OFFCURVE",
"104 410 CURVE",
"104 390 LINE",
"135 386 OFFCURVE",
"164 383 OFFCURVE",
"200 383 CURVE SMOOTH",
"229 383 OFFCURVE",
"278 385 OFFCURVE",
"300 392 CURVE",
"224 388 LINE",
"437 393 OFFCURVE",
"491 290 OFFCURVE",
"491 207 CURVE SMOOTH",
"491 107 OFFCURVE",
"407 20 OFFCURVE",
"248 20 CURVE SMOOTH",
"136 20 OFFCURVE",
"72 63 OFFCURVE",
"72 123 CURVE SMOOTH",
"72 183 OFFCURVE",
"136 216 OFFCURVE",
"226 216 CURVE SMOOTH",
"322 216 OFFCURVE",
"399 179 OFFCURVE",
"471 116 CURVE",
"480 134 LINE",
"409 196 OFFCURVE",
"331 236 OFFCURVE",
"227 236 CURVE SMOOTH",
"127 236 OFFCURVE",
"52 198 OFFCURVE",
"52 123 CURVE SMOOTH",
"52 48 OFFCURVE",
"129 0 OFFCURVE",
"247 0 CURVE SMOOTH"
);
},
{
closed = 1;
nodes = (
"573 660 LINE",
"573 680 LINE",
"0 680 LINE",
"0 660 LINE"
);
}
);
width = 573;
}
);
leftMetricsKey = "ta-gurmukhi";
rightMetricsKey = "ta-gurmukhi";
unicode = 0A21;
},
{
glyphname = "ddha-gurmukhi";
layers = (
{
anchors = (
{
name = bindu;
position = "{529, 680}";
},
{
name = bottom;
position = "{402, 2}";
},
{
name = candra;
position = "{529, 690}";
},
{
name = caret_1;
position = "{373, 30}";
},
{
name = nukta;
position = "{132, 0}";
},
{
name = top;
position = "{529, 670}";
}
);
layerId = "66FBD069-7978-4D3C-B543-2EFDE6A4602F";
paths = (
{
closed = 1;
nodes = (
"525 0 OFFCURVE",
"592 51 OFFCURVE",
"592 121 CURVE SMOOTH",
"592 190 OFFCURVE",
"528 237 OFFCURVE",
"413 237 CURVE SMOOTH",
"305 237 OFFCURVE",
"230 194 OFFCURVE",
"171 139 CURVE",
"181 122 LINE",
"241 180 OFFCURVE",
"312 217 OFFCURVE",
"413 217 CURVE SMOOTH",
"514 217 OFFCURVE",
"572 180 OFFCURVE",
"572 122 CURVE SMOOTH",
"572 61 OFFCURVE",
"508 20 OFFCURVE",
"400 20 CURVE SMOOTH",
"227 20 OFFCURVE",
"144 136 OFFCURVE",
"144 272 CURVE SMOOTH",
"144 409 LINE",
"140.994 401 LINE",
"539 401 LINE",
"539 666 LINE",
"519 666 LINE",
"519 421 LINE",
"100 421 LINE",
"169 404 LINE",
"123 438 OFFCURVE",
"120 440 OFFCURVE",
"30 446 CURVE",
"25 427 LINE",
"51 415 OFFCURVE",
"83 401 OFFCURVE",
"124 401 CURVE",
"124 268 LINE SMOOTH",
"124 114 OFFCURVE",
"227 0 OFFCURVE",
"402 0 CURVE SMOOTH"
);
},
{
closed = 1;
nodes = (
"651 660 LINE",
"651 680 LINE",
"0 680 LINE",
"0 660 LINE"
);
}
);
width = 651;
}
);
leftMetricsKey = "da-gurmukhi";
rightMetricsKey = "ttha-gurmukhi";
unicode = 0A22;
},
{
glyphname = "nna-gurmukhi";
layers = (
{
anchors = (
{
name = bindu;
position = "{408, 680}";
},
{
name = bottom;
position = "{355, 2}";
},
{
name = candra;
position = "{408, 690}";
},
{
name = caret_1;
position = "{333, 30}";
},
{
name = nukta;
position = "{102, 0}";
},
{
name = top;
position = "{408, 670}";
}
);
layerId = "66FBD069-7978-4D3C-B543-2EFDE6A4602F";
paths = (
{
closed = 1;
nodes = (
"420 0 OFFCURVE",
"481 14 OFFCURVE",
"517 31 CURVE",
"509 51 LINE",
"469 31 OFFCURVE",
"413 20 OFFCURVE",
"357 20 CURVE SMOOTH",
"151 20 OFFCURVE",
"67 172 OFFCURVE",
"71 196 CURVE",
"69 181 LINE",
"76 204 OFFCURVE",
"140 345 OFFCURVE",
"373 353 CURVE",
"373 464 LINE",
"353 471 LINE",
"353 359 LINE",
"367 372 LINE",
"148 367 OFFCURVE",
"67 238 OFFCURVE",
"52 191 CURVE",
"61 141 OFFCURVE",
"150 0 OFFCURVE",
"355 0 CURVE SMOOTH"
);
},
{
closed = 1;
nodes = (
"521 447 LINE",
"342 454 OFFCURVE",
"205 547 OFFCURVE",
"207 672 CURVE",
"187 672 LINE",
"187 539 OFFCURVE",
"333 433 OFFCURVE",
"521 431 CURVE"
);
},
{
closed = 1;
nodes = (
"576 660 LINE",
"576 680 LINE",
"0 680 LINE",
"0 660 LINE"
);
}
);
width = 576;
}
);
leftMetricsKey = "ra-gurmukhi";
unicode = 0A23;
},
{
glyphname = "ta-gurmukhi";
layers = (
{
anchors = (
{
name = bindu;
position = "{493, 680}";
},
{
name = bottom;
position = "{247, 2}";
},
{
name = candra;
position = "{493, 690}";
},
{
name = caret_1;
position = "{258, 30}";
},
{
name = nukta;
position = "{33, -33}";
},
{
name = top;
position = "{493, 670}";
}
);
layerId = "66FBD069-7978-4D3C-B543-2EFDE6A4602F";
paths = (
{
closed = 1;
nodes = (
"410 0 OFFCURVE",
"512 90 OFFCURVE",
"512 205 CURVE SMOOTH",
"512 296 OFFCURVE",
"444 396 OFFCURVE",
"266 390 CURVE",
"283 386 LINE",
"419 393 OFFCURVE",
"503 498 OFFCURVE",
"503 675 CURVE SMOOTH",
"503 677 LINE",
"483 677 LINE",
"483 675 LINE SMOOTH",
"483 523 OFFCURVE",
"424 404 OFFCURVE",
"242 395 CURVE",
"303 394 LINE",
"274 402 OFFCURVE",
"230 404 OFFCURVE",
"185 404 CURVE SMOOTH",
"166 404 OFFCURVE",
"135 404 OFFCURVE",
"105 400 CURVE",
"105 380 LINE",
"136 376 OFFCURVE",
"167 373 OFFCURVE",
"199 373 CURVE SMOOTH",
"231 373 OFFCURVE",
"275 377 OFFCURVE",
"300 379 CURVE",
"222 378 LINE",
"437 383 OFFCURVE",
"492 287 OFFCURVE",
"492 205 CURVE SMOOTH",
"492 98 OFFCURVE",
"397 20 OFFCURVE",
"248 20 CURVE SMOOTH",
"183 20 OFFCURVE",
"104 35 OFFCURVE",
"59 56 CURVE",
"52 36 LINE",
"105 15 OFFCURVE",
"180 0 OFFCURVE",
"247 0 CURVE SMOOTH"
);
},
{
closed = 1;
nodes = (
"574 660 LINE",
"574 680 LINE",
"0 680 LINE",
"0 660 LINE"
);
}
);
width = 574;
}
);
unicode = 0A24;
},
{
glyphname = "tha-gurmukhi";
layers = (
{
anchors = (
{
name = bindu;
position = "{500, 680}";
},
{
name = bottom;
position = "{500, 0}";
},
{
name = candra;
position = "{500, 690}";
},
{
name = caret_1;
position = "{309, 30}";
},
{
name = nukta;
position = "{132, 0}";
},
{
name = top;
position = "{500, 670}";
}
);
components = (
{
name = "dha-gurmukhi";
}
);
layerId = "66FBD069-7978-4D3C-B543-2EFDE6A4602F";
paths = (
{
closed = 1;
nodes = (
"501 427 LINE",
"501 447 LINE",
"155 447 LINE",
"155 427 LINE"
);
}
);
width = 622;
}
);
leftMetricsKey = "pa-gurmukhi";
rightMetricsKey = "pa-gurmukhi";
unicode = 0A25;
},
{
glyphname = "da-gurmukhi";
layers = (
{
anchors = (
{
name = bindu;
position = "{528, 680}";
},
{
name = bottom;
position = "{398, 2}";
},
{
name = candra;
position = "{528, 690}";
},
{
name = caret_1;
position = "{383, 30}";
},
{
name = nukta;
position = "{122, 0}";
},
{
name = top;
position = "{528, 670}";
}
);
layerId = "66FBD069-7978-4D3C-B543-2EFDE6A4602F";
paths = (
{
closed = 1;
nodes = (
"469 0 OFFCURVE",
"524 17 OFFCURVE",
"554 32 CURVE",
"545 51 LINE",
"500 31 OFFCURVE",
"449 20 OFFCURVE",
"396 20 CURVE SMOOTH",
"242 20 OFFCURVE",
"145 110 OFFCURVE",
"145 270 CURVE SMOOTH",
"145 409 LINE",
"137 401 LINE",
"538 401 LINE",
"538 666 LINE",
"518 666 LINE",
"518 421 LINE",
"101 421 LINE",
"169 404 LINE",
"124 438 OFFCURVE",
"120 440 OFFCURVE",
"30 446 CURVE",
"25 427 LINE",
"50 416 OFFCURVE",
"82 401 OFFCURVE",
"125 401 CURVE",
"125 269 LINE SMOOTH",
"125 106 OFFCURVE",
"223 0 OFFCURVE",
"398 0 CURVE SMOOTH"
);
},
{
closed = 1;
nodes = (
"650 660 LINE",
"650 680 LINE",
"0 680 LINE",
"0 660 LINE"
);
}
);
width = 650;
}
);
rightMetricsKey = "STEM-GURM";
unicode = 0A26;
},
{
glyphname = "dha-gurmukhi";
layers = (
{
anchors = (
{
name = bindu;
position = "{500, 680}";
},
{
name = bottom;
position = "{500, 0}";
},
{
name = candra;
position = "{500, 690}";
},
{
name = caret_1;
position = "{309, 30}";
},
{
name = nukta;
position = "{132, 0}";
},
{
name = top;
position = "{500, 670}";
}
);
components = (
{
name = "pa-gurmukhi";
}
);
layerId = "66FBD069-7978-4D3C-B543-2EFDE6A4602F";
paths = (
{
closed = 1;
nodes = (
"577 660 LINE",
"577 680 LINE",
"0 680 LINE",
"0 660 LINE"
);
}
);
width = 622;
}
);
leftMetricsKey = "pa-gurmukhi";
rightMetricsKey = "pa-gurmukhi";
unicode = 0A27;
},
{
glyphname = "na-gurmukhi";
layers = (
{
anchors = (
{
name = bindu;
position = "{479, 680}";
},
{
name = bottom;
position = "{409, 23}";
},
{
name = candra;
position = "{317, 690}";
},
{
name = caret_1;
position = "{318, 30}";
},
{
name = nukta;
position = "{72, 0}";
},
{
name = top;
position = "{479, 670}";
}
);
layerId = "66FBD069-7978-4D3C-B543-2EFDE6A4602F";
paths = (
{
closed = 1;
nodes = (
"242 23 LINE",
"138 40 OFFCURVE",
"72 118 OFFCURVE",
"72 226 CURVE SMOOTH",
"72 355 OFFCURVE",
"166 434 OFFCURVE",
"318 434 CURVE SMOOTH",
"470 434 OFFCURVE",
"564 354 OFFCURVE",
"564 226 CURVE SMOOTH",
"564 123 OFFCURVE",
"504 42 OFFCURVE",
"399 23 CURVE",
"402 4 LINE",
"517 23 OFFCURVE",
"584 113 OFFCURVE",
"584 225 CURVE SMOOTH",
"584 363 OFFCURVE",
"481 454 OFFCURVE",
"318 454 CURVE SMOOTH",
"155 454 OFFCURVE",
"52 364 OFFCURVE",
"52 224 CURVE SMOOTH",
"52 107 OFFCURVE",
"125 21 OFFCURVE",
"239 4 CURVE"
);
},
{
closed = 1;
nodes = (
"328 441 LINE",
"328 673 LINE",
"308 673 LINE",
"308 441 LINE"
);
},
{
closed = 1;
nodes = (
"636 660 LINE",
"636 680 LINE",
"0 680 LINE",
"0 660 LINE"
);
}
);
width = 636;
}
);
leftMetricsKey = "ttha-gurmukhi";
rightMetricsKey = "ttha-gurmukhi";
unicode = 0A28;
},
{
glyphname = "pa-gurmukhi";
layers = (
{
anchors = (
{
name = bindu;
position = "{500, 680}";
},
{
name = bottom;
position = "{500, 0}";
},
{
name = candra;
position = "{500, 690}";
},
{
name = caret_1;
position = "{309, 30}";
},
{
name = nukta;
position = "{132, 0}";
},
{
name = top;
position = "{500, 670}";
}
);
layerId = "66FBD069-7978-4D3C-B543-2EFDE6A4602F";
paths = (
{
closed = 1;
nodes = (
"364 161 OFFCURVE",
"447 182 OFFCURVE",
"501 221 CURVE",
"501 248 LINE",
"449 203 OFFCURVE",
"360 181 OFFCURVE",
"282 181 CURVE SMOOTH",
"158 181 OFFCURVE",
"93 238 OFFCURVE",
"76 319 CURVE",
"71 304 LINE",
"140 348 OFFCURVE",
"176 431 OFFCURVE",
"176 507 CURVE SMOOTH",
"176 597 OFFCURVE",
"127 680 OFFCURVE",
"22 680 CURVE SMOOTH",
"0 680 LINE",
"0 660 LINE",
"25 660 LINE SMOOTH",
"115 660 OFFCURVE",
"156 590 OFFCURVE",
"156 511 CURVE SMOOTH",
"156 439 OFFCURVE",
"122 359 OFFCURVE",
"57 318 CURVE",
"77 219 OFFCURVE",
"149 161 OFFCURVE",
"283 161 CURVE SMOOTH"
);
},
{
closed = 1;
nodes = (
"510 0 LINE",
"510 669 LINE",
"503 660 LINE",
"622 660 LINE",
"622 680 LINE",
"490 680 LINE",
"490 0 LINE"
);
}
);
width = 622;
}
);
leftMetricsKey = "ma-gurmukhi";
rightMetricsKey = "STEM-GURM";
unicode = 0A2A;
},
{
glyphname = "pha-gurmukhi";
layers = (
{
anchors = (
{
name = bindu;
position = "{451, 680}";
},
{
name = bottom;
position = "{322, 2}";
},
{
name = candra;
position = "{451, 690}";
},
{
name = caret_1;
position = "{309, 30}";
},
{
name = nukta;
position = "{77, 0}";
},
{
name = top;
position = "{451, 670}";
}
);
layerId = "66FBD069-7978-4D3C-B543-2EFDE6A4602F";
paths = (
{
closed = 1;
nodes = (
"99 119 LINE",
"160 180 OFFCURVE",
"232 217 OFFCURVE",
"334 217 CURVE SMOOTH",
"435 217 OFFCURVE",
"493 180 OFFCURVE",
"493 122 CURVE SMOOTH",
"493 61 OFFCURVE",
"430 20 OFFCURVE",
"320 20 CURVE SMOOTH",
"156 20 OFFCURVE",
"72 118 OFFCURVE",
"72 239 CURVE SMOOTH",
"72 333 OFFCURVE",
"124 431 OFFCURVE",
"293 431 CURVE SMOOTH",
"461 431 LINE",
"461 669 LINE",
"441 669 LINE",
"441 451 LINE",
"281 451 LINE SMOOTH",
"113 451 OFFCURVE",
"52 345 OFFCURVE",
"52 237 CURVE SMOOTH",
"52 98 OFFCURVE",
"153 0 OFFCURVE",
"322 0 CURVE SMOOTH",
"446 0 OFFCURVE",
"513 51 OFFCURVE",
"513 121 CURVE SMOOTH",
"513 190 OFFCURVE",
"449 237 OFFCURVE",
"334 237 CURVE SMOOTH",
"225 237 OFFCURVE",
"150 194 OFFCURVE",
"90 138 CURVE"
);
},
{
closed = 1;
nodes = (
"573 660 LINE",
"573 680 LINE",
"0 680 LINE",
"0 660 LINE"
);
}
);
width = 573;
}
);
leftMetricsKey = "ra-gurmukhi";
rightMetricsKey = "ttha-gurmukhi";
unicode = 0A2B;
},
{
glyphname = "ba-gurmukhi";
layers = (
{
anchors = (
{
name = bindu;
position = "{498, 680}";
},
{
name = bottom;
position = "{498, 0}";
},
{
name = candra;
position = "{498, 690}";
},
{
name = caret_1;
position = "{309, 30}";
},
{
name = nukta;
position = "{102, 0}";
},
{
name = top;
position = "{498, 670}";
}
);
layerId = "66FBD069-7978-4D3C-B543-2EFDE6A4602F";
paths = (
{
closed = 1;
nodes = (
"357 40 OFFCURVE",
"442 62 OFFCURVE",
"498 111 CURVE",
"498 138 LINE",
"442 82 OFFCURVE",
"358 60 OFFCURVE",
"302 60 CURVE SMOOTH",
"195 60 OFFCURVE",
"75 143 OFFCURVE",
"67 243 CURVE",
"68 206 LINE",
"81 243 OFFCURVE",
"150 372 OFFCURVE",
"386 380 CURVE SMOOTH",
"500 380 LINE",
"500 400 LINE",
"428 400 LINE SMOOTH",
"246 400 OFFCURVE",
"102 515 OFFCURVE",
"105 672 CURVE",
"85 672 LINE",
"85 529 OFFCURVE",
"199 413 OFFCURVE",
"353 388 CURVE",
"373 399 LINE",
"150 391 OFFCURVE",
"66 264 OFFCURVE",
"52 218 CURVE",
"77 115 OFFCURVE",
"194 40 OFFCURVE",
"300 40 CURVE SMOOTH"
);
},
{
closed = 1;
nodes = (
"559 660 LINE",
"559 680 LINE",
"0 680 LINE",
"0 660 LINE"
);
},
{
closed = 1;
nodes = (
"508 0 LINE",
"508 669 LINE",
"501 660 LINE",
"620 660 LINE",
"620 680 LINE",
"488 680 LINE",
"488 0 LINE"
);
}
);
width = 620;
}
);
leftMetricsKey = "ra-gurmukhi";
rightMetricsKey = "STEM-GURM";
unicode = 0A2C;
},
{
glyphname = "bha-gurmukhi";
layers = (
{
anchors = (
{
name = bindu;
position = "{493, 680}";
},
{
name = bottom;
position = "{247, 2}";
},
{
name = candra;
position = "{493, 690}";
},
{
name = caret_1;
position = "{258, 30}";
},
{
name = nukta;
position = "{52, -27}";
},
{
name = top;
position = "{493, 670}";
}
);
layerId = "66FBD069-7978-4D3C-B543-2EFDE6A4602F";
paths = (
{
closed = 1;
nodes = (
"409 0 OFFCURVE",
"512 90 OFFCURVE",
"512 204 CURVE SMOOTH",
"512 280 OFFCURVE",
"467 344 OFFCURVE",
"400 389 CURVE",
"403 373 LINE",
"467 434 OFFCURVE",
"503 537 OFFCURVE",
"503 675 CURVE SMOOTH",
"503 677 LINE",
"483 677 LINE",
"483 671 LINE SMOOTH",
"483 537 OFFCURVE",
"448 442 OFFCURVE",
"390 385 CURVE",
"405 385 LINE",
"349 424 OFFCURVE",
"277 446 OFFCURVE",
"207 446 CURVE SMOOTH",
"133 446 OFFCURVE",
"79 421 OFFCURVE",
"79 374 CURVE SMOOTH",
"79 328 OFFCURVE",
"131 300 OFFCURVE",
"213 300 CURVE SMOOTH",
"290 300 OFFCURVE",
"355 324 OFFCURVE",
"403 372 CURVE",
"395 369 LINE",
"451 331 OFFCURVE",
"492 274 OFFCURVE",
"492 205 CURVE SMOOTH",
"492 99 OFFCURVE",
"398 20 OFFCURVE",
"248 20 CURVE SMOOTH",
"183 20 OFFCURVE",
"104 35 OFFCURVE",
"59 56 CURVE",
"52 36 LINE",
"105 15 OFFCURVE",
"180 0 OFFCURVE",
"247 0 CURVE SMOOTH"
);
},
{
closed = 1;
nodes = (
"140 320 OFFCURVE",
"99 342 OFFCURVE",
"99 374 CURVE SMOOTH",
"99 406 OFFCURVE",
"140 426 OFFCURVE",
"205 426 CURVE SMOOTH",
"270 426 OFFCURVE",
"338 407 OFFCURVE",
"390 371 CURVE",
"388 383 LINE",
"344 341 OFFCURVE",
"285 320 OFFCURVE",
"216 320 CURVE SMOOTH"
);
},
{
closed = 1;
nodes = (
"574 660 LINE",
"574 680 LINE",
"0 680 LINE",
"0 660 LINE"
);
}
);
width = 574;
}
);
leftMetricsKey = "ta-gurmukhi";
rightMetricsKey = "ta-gurmukhi";
unicode = 0A2D;
},
{
glyphname = "ma-gurmukhi";
layers = (
{
anchors = (
{
name = bindu;
position = "{536, 680}";
},
{
name = bottom;
position = "{536, 0}";
},
{
name = candra;
position = "{536, 690}";
},
{
name = caret_1;
position = "{341, 30}";
},
{
name = nukta;
position = "{72, 0}";
},
{
name = top;
position = "{536, 670}";
}
);
layerId = "66FBD069-7978-4D3C-B543-2EFDE6A4602F";
paths = (
{
closed = 1;
nodes = (
"125 144 OFFCURVE",
"174 269 OFFCURVE",
"174 449 CURVE SMOOTH",
"174 593 OFFCURVE",
"130 680 OFFCURVE",
"24 680 CURVE SMOOTH",
"0 680 LINE",
"0 660 LINE",
"31 660 LINE SMOOTH",
"125 660 OFFCURVE",
"154 561 OFFCURVE",
"154 460 CURVE SMOOTH",
"154 395 OFFCURVE",
"147 326 OFFCURVE",
"136 279 CURVE",
"147 318 LINE",
"132 282 OFFCURVE",
"97 188 OFFCURVE",
"77 88 CURVE",
"97 83 LINE"
);
},
{
closed = 1;
nodes = (
"533 291 LINE",
"533 311 LINE",
"153 311 LINE",
"155 291 LINE"
);
},
{
closed = 1;
nodes = (
"546 0 LINE",
"546 669 LINE",
"539 660 LINE",
"658 660 LINE",
"658 680 LINE",
"526 680 LINE",
"526 0 LINE"
);
}
);
width = 658;
}
);
rightMetricsKey = "STEM-GURM";
unicode = 0A2E;
},
{
glyphname = "ya-gurmukhi";
layers = (
{
anchors = (
{
name = bindu;
position = "{595, 680}";
},
{
name = bottom;
position = "{595, 0}";
},
{
name = candra;
position = "{595, 690}";
},
{
name = caret_1;
position = "{341, 30}";
},
{
name = nukta;
position = "{102, 0}";
},
{
name = top;
position = "{595, 670}";
}
);
layerId = "66FBD069-7978-4D3C-B543-2EFDE6A4602F";
paths = (
{
closed = 1;
nodes = (
"294 161 OFFCURVE",
"402 190 OFFCURVE",
"402 322 CURVE",
"402 409 LINE",
"391 396 LINE",
"596 396 LINE",
"596 416 LINE",
"382 416 LINE",
"382 326 LINE",
"382 202 OFFCURVE",
"282 181 OFFCURVE",
"230 181 CURVE SMOOTH",
"136 181 OFFCURVE",
"87 237 OFFCURVE",
"75 318 CURVE",
"67 301 LINE",
"138 345 OFFCURVE",
"175 429 OFFCURVE",
"175 507 CURVE SMOOTH",
"175 597 OFFCURVE",
"126 680 OFFCURVE",
"21 680 CURVE SMOOTH",
"0 680 LINE",
"0 660 LINE",
"24 660 LINE SMOOTH",
"114 660 OFFCURVE",
"155 590 OFFCURVE",
"155 511 CURVE SMOOTH",
"155 439 OFFCURVE",
"121 359 OFFCURVE",
"56 318 CURVE",
"71 219 OFFCURVE",
"127 161 OFFCURVE",
"231 161 CURVE SMOOTH"
);
},
{
closed = 1;
nodes = (
"659 660 LINE",
"659 680 LINE",
"10 680 LINE",
"10 660 LINE"
);
},
{
closed = 1;
nodes = (
"605 0 LINE",
"605 669 LINE",
"598 660 LINE",
"717 660 LINE",
"717 680 LINE",
"585 680 LINE",
"585 0 LINE"
);
}
);
width = 717;
}
);
leftMetricsKey = "pa-gurmukhi";
rightMetricsKey = "STEM-GURM";
unicode = 0A2F;
},
{
glyphname = "ra-gurmukhi";
layers = (
{
anchors = (
{
name = bindu;
position = "{454, 680}";
},
{
name = bottom;
position = "{373, 2}";
},
{
name = candra;
position = "{454, 690}";
},
{
name = caret_1;
position = "{291, 30}";
},
{
name = nukta;
position = "{92, 0}";
},
{
name = top;
position = "{454, 670}";
}
);
layerId = "66FBD069-7978-4D3C-B543-2EFDE6A4602F";
paths = (
{
closed = 1;
nodes = (
"428 0 OFFCURVE",
"464 23 OFFCURVE",
"464 102 CURVE SMOOTH",
"464 673 LINE",
"444 673 LINE",
"444 437 LINE",
"459 442 LINE",
"188 442 LINE SMOOTH",
"104 442 OFFCURVE",
"52 383 OFFCURVE",
"52 287 CURVE SMOOTH",
"52 113 OFFCURVE",
"241 0 OFFCURVE",
"373 0 CURVE SMOOTH"
);
},
{
closed = 1;
nodes = (
"233 20 OFFCURVE",
"72 140 OFFCURVE",
"72 284 CURVE SMOOTH",
"72 359 OFFCURVE",
"111 422 OFFCURVE",
"192 422 CURVE SMOOTH",
"459 422 LINE",
"444 427 LINE",
"444 109 LINE SMOOTH",
"444 53 OFFCURVE",
"434 20 OFFCURVE",
"370 20 CURVE SMOOTH"
);
},
{
closed = 1;
nodes = (
"576 660 LINE",
"576 680 LINE",
"0 680 LINE",
"0 660 LINE"
);
}
);
width = 576;
}
);
rightMetricsKey = "STEM-GURM";
unicode = 0A30;
},
{
glyphname = "la-gurmukhi";
layers = (
{
anchors = (
{
name = bindu;
position = "{583, 680}";
},
{
name = bottom;
position = "{472, 23}";
},
{
name = candra;
position = "{353, 690}";
},
{
name = caret_1;
position = "{353, 30}";
},
{
name = nukta;
position = "{353, 10}";
},
{
name = top;
position = "{583, 670}";
}
);
layerId = "66FBD069-7978-4D3C-B543-2EFDE6A4602F";
paths = (
{
closed = 1;
nodes = (
"248 23 LINE",
"148 39 OFFCURVE",
"82 119 OFFCURVE",
"82 219 CURVE SMOOTH",
"82 304 OFFCURVE",
"131 369 OFFCURVE",
"206 402 CURVE",
"249 349 OFFCURVE",
"302 312 OFFCURVE",
"353 288 CURVE",
"397 311 OFFCURVE",
"451 349 OFFCURVE",
"496 404 CURVE",
"575 370 OFFCURVE",
"621 302 OFFCURVE",
"621 219 CURVE SMOOTH",
"621 123 OFFCURVE",
"560 41 OFFCURVE",
"462 23 CURVE",
"465 3 LINE",
"575 21 OFFCURVE",
"641 113 OFFCURVE",
"641 218 CURVE SMOOTH",
"641 309 OFFCURVE",
"592 382 OFFCURVE",
"508 419 CURVE",
"555 482 OFFCURVE",
"590 563 OFFCURVE",
"593 666 CURVE",
"573 667 LINE",
"571 473 OFFCURVE",
"442 358 OFFCURVE",
"353 308 CURVE",
"249 362 OFFCURVE",
"137 464 OFFCURVE",
"137 667 CURVE",
"117 666 LINE",
"119 560 OFFCURVE",
"149 479 OFFCURVE",
"193 418 CURVE",
"113 382 OFFCURVE",
"62 311 OFFCURVE",
"62 218 CURVE SMOOTH",
"62 112 OFFCURVE",
"130 21 OFFCURVE",
"246 3 CURVE"
);
},
{
closed = 1;
nodes = (
"703 660 LINE",
"703 680 LINE",
"0 680 LINE",
"0 660 LINE"
);
}
);
width = 703;
}
);
rightMetricsKey = "ta-gurmukhi";
unicode = 0A32;
},
{
glyphname = "va-gurmukhi";
layers = (
{
anchors = (
{
name = bindu;
position = "{491, 680}";
},
{
name = bottom;
position = "{383, 0}";
},
{
name = candra;
position = "{491, 690}";
},
{
name = caret_1;
position = "{343, 30}";
},
{
name = nukta;
position = "{102, 0}";
},
{
name = top;
position = "{491, 670}";
}
);
layerId = "66FBD069-7978-4D3C-B543-2EFDE6A4602F";
paths = (
{
closed = 1;
nodes = (
"471 220 LINE",
"471 240 LINE",
"216 240 LINE",
"120 240 OFFCURVE",
"73 283 OFFCURVE",
"73 343 CURVE SMOOTH",
"73 387 OFFCURVE",
"103 440 OFFCURVE",
"214 440 CURVE",
"501 440 LINE",
"501 669 LINE",
"481 669 LINE",
"481 450 LINE",
"492 460 LINE",
"202 460 LINE",
"96 460 OFFCURVE",
"53 399 OFFCURVE",
"53 343 CURVE SMOOTH",
"53 268 OFFCURVE",
"114 220 OFFCURVE",
"220 220 CURVE"
);
},
{
closed = 1;
nodes = (
"419 0 OFFCURVE",
"462 4 OFFCURVE",
"501 15 CURVE",
"496 34 LINE",
"461 25 OFFCURVE",
"422 20 OFFCURVE",
"381 20 CURVE SMOOTH",
"280 20 OFFCURVE",
"182 51 OFFCURVE",
"182 172 CURVE SMOOTH",
"182 184 OFFCURVE",
"183 204 OFFCURVE",
"187 232 CURVE",
"167 232 LINE",
"163 202 OFFCURVE",
"162 181 OFFCURVE",
"162 170 CURVE SMOOTH",
"162 47 OFFCURVE",
"262 0 OFFCURVE",
"383 0 CURVE SMOOTH"
);
},
{
closed = 1;
nodes = (
"613 660 LINE",
"613 680 LINE",
"0 680 LINE",
"0 660 LINE"
);
}
);
width = 613;
}
);
leftMetricsKey = "ra-gurmukhi";
unicode = 0A35;
},
{
glyphname = "sa-gurmukhi";
layers = (
{
anchors = (
{
name = bindu;
position = "{536, 680}";
},
{
name = bottom;
position = "{536, 0}";
},
{
name = candra;
position = "{536, 690}";
},
{
name = caret_1;
position = "{341, 30}";
},
{
name = nukta;
position = "{341, 20}";
},
{
name = top;
position = "{536, 670}";
}
);
components = (
{
name = "ma-gurmukhi";
}
);
layerId = "66FBD069-7978-4D3C-B543-2EFDE6A4602F";
paths = (
{
closed = 1;
nodes = (
"574 660 LINE",
"574 680 LINE",
"10 680 LINE",
"10 660 LINE"
);
}
);
width = 658;
}
);
leftMetricsKey = "ma-gurmukhi";
rightMetricsKey = "ma-gurmukhi";
unicode = 0A38;
},
{
glyphname = "ha-gurmukhi";
layers = (
{
anchors = (
{
name = bindu;
position = "{454, 680}";
},
{
name = bottom;
position = "{373, 2}";
},
{
name = candra;
position = "{454, 690}";
},
{
name = caret_1;
position = "{281, 30}";
},
{
name = nukta;
position = "{105, 0}";
},
{
name = top;
position = "{454, 670}";
}
);
layerId = "66FBD069-7978-4D3C-B543-2EFDE6A4602F";
paths = (
{
closed = 1;
nodes = (
"428 0 OFFCURVE",
"464 23 OFFCURVE",
"464 102 CURVE",
"464 673 LINE",
"444 673 LINE",
"444 109 LINE",
"444 53 OFFCURVE",
"434 20 OFFCURVE",
"370 20 CURVE SMOOTH",
"233 20 OFFCURVE",
"72 140 OFFCURVE",
"72 284 CURVE SMOOTH",
"72 397 OFFCURVE",
"131 422 OFFCURVE",
"237 422 CURVE",
"235 442 LINE",
"127 442 OFFCURVE",
"52 421 OFFCURVE",
"52 287 CURVE SMOOTH",
"52 113 OFFCURVE",
"241 0 OFFCURVE",
"373 0 CURVE SMOOTH"
);
},
{
closed = 1;
nodes = (
"576 660 LINE",
"576 680 LINE",
"0 680 LINE",
"0 660 LINE"
);
}
);
width = 576;
}
);
rightMetricsKey = "STEM-GURM";
unicode = 0A39;
},
{
glyphname = "rra-gurmukhi";
layers = (
{
anchors = (
{
name = bindu;
position = "{518, 680}";
},
{
name = bottom;
position = "{298, 40}";
},
{
name = candra;
position = "{518, 690}";
},
{
name = caret_1;
position = "{298, 30}";
},
{
name = top;
position = "{518, 670}";
}
);
layerId = "66FBD069-7978-4D3C-B543-2EFDE6A4602F";
paths = (
{
closed = 1;
nodes = (
"72 0 LINE",
"72 51 LINE SMOOTH",
"72 75 OFFCURVE",
"84 89 OFFCURVE",
"106 89 CURVE SMOOTH",
"151 89 OFFCURVE",
"166 30 OFFCURVE",
"294 30 CURVE SMOOTH",
"364 30 OFFCURVE",
"421 47 OFFCURVE",
"462 77 CURVE",
"451 82 LINE",
"534 -12 LINE",
"549 0 LINE",
"543 7 LINE",
"469 94 LINE",
"471 84 LINE",
"513 117 OFFCURVE",
"537 164 OFFCURVE",
"537 219 CURVE SMOOTH",
"537 308 OFFCURVE",
"474 409 OFFCURVE",
"312 410 CURVE",
"329 403 LINE",
"439 414 OFFCURVE",
"528 508 OFFCURVE",
"528 675 CURVE",
"528 678 LINE",
"508 678 LINE",
"508 675 LINE",
"508 540 OFFCURVE",
"453 422 OFFCURVE",
"278 415 CURVE",
"339 415 LINE",
"310 422 OFFCURVE",
"260 424 OFFCURVE",
"210 424 CURVE SMOOTH",
"191 424 OFFCURVE",
"160 424 OFFCURVE",
"130 420 CURVE",
"130 400 LINE",
"161 396 OFFCURVE",
"191 393 OFFCURVE",
"225 393 CURVE SMOOTH",
"257 393 OFFCURVE",
"302 395 OFFCURVE",
"331 401 CURVE",
"252 398 LINE",
"462 402 OFFCURVE",
"517 300 OFFCURVE",
"517 220 CURVE SMOOTH",
"517 120 OFFCURVE",
"431 50 OFFCURVE",
"294 50 CURVE SMOOTH",
"169 50 OFFCURVE",
"163 109 OFFCURVE",
"105 109 CURVE SMOOTH",
"72 109 OFFCURVE",
"52 89 OFFCURVE",
"52 52 CURVE SMOOTH",
"52 0 LINE"
);
},
{
closed = 1;
nodes = (
"611 660 LINE",
"611 680 LINE",
"0 680 LINE",
"0 660 LINE"
);
}
);
width = 611;
}
);
leftMetricsKey = "ta-gurmukhi";
rightMetricsKey = "ta-gurmukhi";
unicode = 0A5C;
},
{
glyphname = "iri-gurmukhi";
layers = (
{
anchors = (
{
name = bindu;
position = "{488, 680}";
},
{
name = bottom;
position = "{355, 2}";
},
{
name = candra;
position = "{488, 690}";
},
{
name = caret_1;
position = "{346, 30}";
},
{
name = nukta;
position = "{92, 0}";
},
{
name = top;
position = "{488, 670}";
}
);
layerId = "66FBD069-7978-4D3C-B543-2EFDE6A4602F";
paths = (
{
closed = 1;
nodes = (
"420 0 OFFCURVE",
"481 14 OFFCURVE",
"517 31 CURVE",
"509 51 LINE",
"469 31 OFFCURVE",
"413 20 OFFCURVE",
"357 20 CURVE SMOOTH",
"152 20 OFFCURVE",
"68 170 OFFCURVE",
"71 196 CURVE",
"69 181 LINE",
"76 204 OFFCURVE",
"140 345 OFFCURVE",
"373 353 CURVE SMOOTH",
"498 353 LINE",
"498 672 LINE",
"478 672 LINE",
"478 362 LINE",
"489 373 LINE",
"428 373 LINE",
"245 373 OFFCURVE",
"99 500 OFFCURVE",
"102 673 CURVE",
"82 673 LINE",
"82 516 OFFCURVE",
"196 390 OFFCURVE",
"351 362 CURVE",
"371 372 LINE",
"150 369 OFFCURVE",
"67 238 OFFCURVE",
"52 191 CURVE",
"61 141 OFFCURVE",
"150 0 OFFCURVE",
"355 0 CURVE SMOOTH"
);
},
{
closed = 1;
nodes = (
"610 660 LINE",
"610 680 LINE",
"0 680 LINE",
"0 660 LINE"
);
}
);
width = 610;
}
);
rightMetricsKey = "STEM-GURM";
unicode = 0A72;
},
{
glyphname = "ura-gurmukhi";
layers = (
{
anchors = (
{
name = bindu;
position = "{610, 680}";
},
{
name = bottom;
position = "{353, 2}";
},
{
name = candra;
position = "{700, 650}";
},
{
name = caret_1;
position = "{346, 30}";
},
{
name = nukta;
position = "{92, 0}";
}
);
layerId = "66FBD069-7978-4D3C-B543-2EFDE6A4602F";
paths = (
{
closed = 1;
nodes = (
"463 0 OFFCURVE",
"536 83 OFFCURVE",
"536 194 CURVE SMOOTH",
"536 301 OFFCURVE",
"466 393 OFFCURVE",
"301 390 CURVE",
"311 387 LINE",
"438 387 OFFCURVE",
"548 505 OFFCURVE",
"548 669 CURVE SMOOTH",
"548 813 OFFCURVE",
"464 907 OFFCURVE",
"311 907 CURVE SMOOTH",
"144 907 OFFCURVE",
"62 796 OFFCURVE",
"62 535 CURVE SMOOTH",
"62 242 OFFCURVE",
"166 0 OFFCURVE",
"353 0 CURVE SMOOTH"
);
},
{
closed = 1;
nodes = (
"168 20 OFFCURVE",
"82 277 OFFCURVE",
"82 541 CURVE SMOOTH",
"82 763 OFFCURVE",
"143 887 OFFCURVE",
"313 887 CURVE SMOOTH",
"465 887 OFFCURVE",
"528 789 OFFCURVE",
"528 668 CURVE SMOOTH",
"528 529 OFFCURVE",
"446 398 OFFCURVE",
"273 398 CURVE SMOOTH",
"82 398 LINE",
"82 378 LINE",
"273 378 LINE SMOOTH",
"466 378 OFFCURVE",
"516 284 OFFCURVE",
"516 193 CURVE SMOOTH",
"516 81 OFFCURVE",
"439 20 OFFCURVE",
"350 20 CURVE SMOOTH"
);
},
{
closed = 1;
nodes = (
"619 660 LINE",
"619 680 LINE",
"0 680 LINE",
"0 660 LINE"
);
}
);
width = 619;
}
);
unicode = 0A73;
},
{
glyphname = "ekonkar-gurmukhi";
layers = (
{
layerId = "66FBD069-7978-4D3C-B543-2EFDE6A4602F";
paths = (
{
closed = 1;
nodes = (
"1033 0 OFFCURVE",
"1106 77 OFFCURVE",
"1106 182 CURVE SMOOTH",
"1106 285 OFFCURVE",
"1035 373 OFFCURVE",
"870 370 CURVE",
"882 367 LINE",
"1031 370 OFFCURVE",
"1117 493 OFFCURVE",
"1118 666 CURVE",
"1098 665 LINE",
"1097 517 OFFCURVE",
"1035 378 OFFCURVE",
"843 378 CURVE SMOOTH",
"665 378 LINE",
"668 358 LINE",
"843 358 LINE SMOOTH",
"1036 358 OFFCURVE",
"1086 266 OFFCURVE",
"1086 182 CURVE SMOOTH",
"1086 77 OFFCURVE",
"1009 20 OFFCURVE",
"927 20 CURVE SMOOTH",
"704 20 OFFCURVE",
"652 357 OFFCURVE",
"652 614 CURVE SMOOTH",
"652 826 OFFCURVE",
"738 924 OFFCURVE",
"960 924 CURVE SMOOTH",
"1110 924 OFFCURVE",
"1242 883 OFFCURVE",
"1303 814 CURVE",
"1267 855 LINE",
"1286 811 OFFCURVE",
"1292 792 OFFCURVE",
"1327 757 CURVE SMOOTH",
"1333 751 OFFCURVE",
"1339 745 OFFCURVE",
"1347 738 CURVE",
"1361 751 LINE",
"1347 787 OFFCURVE",
"1319 823 OFFCURVE",
"1283 862 CURVE",
"1294 843 LINE",
"1286 871 OFFCURVE",
"1282 890 OFFCURVE",
"1282 927 CURVE SMOOTH",
"1282 1108 OFFCURVE",
"1373 1178 OFFCURVE",
"1473 1178 CURVE SMOOTH",
"1584 1178 OFFCURVE",
"1654 1093 OFFCURVE",
"1654 992 CURVE",
"1674 993 LINE",
"1674 1105 OFFCURVE",
"1592 1198 OFFCURVE",
"1472 1198 CURVE SMOOTH",
"1363 1198 OFFCURVE",
"1262 1121 OFFCURVE",
"1262 927 CURVE SMOOTH",
"1262 888 OFFCURVE",
"1264 864 OFFCURVE",
"1272 854 CURVE",
"1282 858 LINE",
"1191 927 OFFCURVE",
"1050 943 OFFCURVE",
"963 943 CURVE SMOOTH",
"751 943 OFFCURVE",
"632 864 OFFCURVE",
"632 615 CURVE SMOOTH",
"632 200 OFFCURVE",
"751 0 OFFCURVE",
"926 0 CURVE SMOOTH"
);
},
{
closed = 1;
nodes = (
"552 15 LINE",
"519 15 OFFCURVE",
"480 39 OFFCURVE",
"480 86 CURVE SMOOTH",
"480 458 LINE SMOOTH",
"480 574 OFFCURVE",
"406 680 OFFCURVE",
"261 680 CURVE SMOOTH",
"127 680 OFFCURVE",
"60 589 OFFCURVE",
"60 498 CURVE SMOOTH",
"60 408 OFFCURVE",
"127 317 OFFCURVE",
"258 317 CURVE SMOOTH",
"344 317 OFFCURVE",
"427 356 OFFCURVE",
"479 451 CURVE",
"460 428 LINE",
"460 88 LINE SMOOTH",
"460 26 OFFCURVE",
"509 -5 OFFCURVE",
"550 -5 CURVE"
);
},
{
closed = 1;
nodes = (
"140 337 OFFCURVE",
"80 418 OFFCURVE",
"80 499 CURVE SMOOTH",
"80 580 OFFCURVE",
"140 660 OFFCURVE",
"261 660 CURVE SMOOTH",
"406 660 OFFCURVE",
"472 546 OFFCURVE",
"458 426 CURVE",
"474 485 LINE",
"436 395 OFFCURVE",
"358 337 OFFCURVE",
"259 337 CURVE SMOOTH"
);
},
{
closed = 1;
nodes = (
"1180 660 LINE",
"1180 680 LINE",
"651 680 LINE",
"649 660 LINE"
);
}
);
width = 1180;
}
);
leftMetricsKey = "one-gurmukhi";
unicode = 0A74;
},
{
glyphname = "ya-gurmukhi.post";
layers = (
{
anchors = (
{
name = bindu;
position = "{295, 680}";
},
{
name = bottom;
position = "{295, 0}";
},
{
name = candra;
position = "{295, 690}";
},
{
name = caret_1;
position = "{175, 30}";
},
{
name = nukta;
position = "{174, -30}";
},
{
name = top;
position = "{295, 670}";
}
);
layerId = "66FBD069-7978-4D3C-B543-2EFDE6A4602F";
paths = (
{
closed = 1;
nodes = (
"-59 120 LINE SMOOTH",
"0 120 OFFCURVE",
"102 149 OFFCURVE",
"102 281 CURVE SMOOTH",
"102 407 LINE",
"90 396 LINE",
"296 396 LINE",
"296 416 LINE",
"82 416 LINE",
"82 285 LINE SMOOTH",
"82 161 OFFCURVE",
"-11 140 OFFCURVE",
"-60 140 CURVE SMOOTH",
"-120 140 LINE",
"-120 120 LINE"
);
},
{
closed = 1;
nodes = (
"353 660 LINE",
"353 680 LINE",
"0 680 LINE",
"0 660 LINE"
);
},
{
closed = 1;
nodes = (
"305 0 LINE",
"305 669 LINE",
"298 660 LINE",
"417 660 LINE",
"417 680 LINE",
"285 680 LINE",
"285 0 LINE"
);
}
);
width = 417;
}
);
rightMetricsKey = "STEM-GURM";
},
{
glyphname = "ekonkar-gurmukhi.ss01";
layers = (
{
layerId = "66FBD069-7978-4D3C-B543-2EFDE6A4602F";
paths = (
{
closed = 1;
nodes = (
"1098 665 LINE",
"1097 517 OFFCURVE",
"1035 378 OFFCURVE",
"843 378 CURVE SMOOTH",
"665 378 LINE",
"668 358 LINE",
"843 358 LINE SMOOTH",
"1036 358 OFFCURVE",
"1086 266 OFFCURVE",
"1086 182 CURVE SMOOTH",
"1086 77 OFFCURVE",
"1009 20 OFFCURVE",
"927 20 CURVE SMOOTH",
"703 20 OFFCURVE",
"652 374 OFFCURVE",
"652 615 CURVE SMOOTH",
"652 801 OFFCURVE",
"698 924 OFFCURVE",
"880 924 CURVE SMOOTH",
"923 924 OFFCURVE",
"962 913 OFFCURVE",
"990 893 CURVE",
"1001 869 OFFCURVE",
"1009 854 OFFCURVE",
"1021 839 CURVE SMOOTH",
"1031 826 OFFCURVE",
"1045 813 OFFCURVE",
"1068 795 CURVE",
"1081 809 LINE",
"1069 840 OFFCURVE",
"1043 871 OFFCURVE",
"1010 904 CURVE",
"1005 925 OFFCURVE",
"1002 944 OFFCURVE",
"1002 975 CURVE SMOOTH",
"1002 1286 OFFCURVE",
"1179 1406 OFFCURVE",
"1373 1406 CURVE SMOOTH",
"1533 1406 OFFCURVE",
"1634 1307 OFFCURVE",
"1634 1190 CURVE",
"1654 1191 LINE",
"1654 1319 OFFCURVE",
"1540 1426 OFFCURVE",
"1372 1426 CURVE SMOOTH",
"1170 1426 OFFCURVE",
"982 1297 OFFCURVE",
"982 975 CURVE SMOOTH",
"982 947 OFFCURVE",
"983 926 OFFCURVE",
"989 905 CURVE",
"995 912 LINE",
"958 937 OFFCURVE",
"914 943 OFFCURVE",
"883 943 CURVE SMOOTH",
"715 943 OFFCURVE",
"632 853 OFFCURVE",
"632 624 CURVE SMOOTH",
"632 207 OFFCURVE",
"751 0 OFFCURVE",
"926 0 CURVE SMOOTH",
"1033 0 OFFCURVE",
"1106 77 OFFCURVE",
"1106 182 CURVE SMOOTH",
"1106 285 OFFCURVE",
"1035 373 OFFCURVE",
"870 370 CURVE",
"882 367 LINE",
"1031 370 OFFCURVE",
"1117 493 OFFCURVE",
"1118 666 CURVE"
);
},
{
closed = 1;
nodes = (
"552 15 LINE",
"519 15 OFFCURVE",
"480 39 OFFCURVE",
"480 86 CURVE SMOOTH",
"480 458 LINE SMOOTH",
"480 574 OFFCURVE",
"406 680 OFFCURVE",
"261 680 CURVE SMOOTH",
"127 680 OFFCURVE",
"60 589 OFFCURVE",
"60 498 CURVE SMOOTH",
"60 408 OFFCURVE",
"127 317 OFFCURVE",
"258 317 CURVE SMOOTH",
"344 317 OFFCURVE",
"427 356 OFFCURVE",
"479 451 CURVE",
"460 428 LINE",
"460 88 LINE SMOOTH",
"460 26 OFFCURVE",
"509 -5 OFFCURVE",
"550 -5 CURVE"
);
},
{
closed = 1;
nodes = (
"140 337 OFFCURVE",
"80 418 OFFCURVE",
"80 499 CURVE SMOOTH",
"80 580 OFFCURVE",
"140 660 OFFCURVE",
"261 660 CURVE SMOOTH",
"406 660 OFFCURVE",
"472 546 OFFCURVE",
"458 426 CURVE",
"474 485 LINE",
"436 395 OFFCURVE",
"358 337 OFFCURVE",
"259 337 CURVE SMOOTH"
);
},
{
closed = 1;
nodes = (
"1180 660 LINE",
"1180 680 LINE",
"650 680 LINE",
"648 660 LINE"
);
}
);
width = 1180;
}
);
leftMetricsKey = "one-gurmukhi";
},
{
glyphname = zero;
layers = (
{
layerId = "66FBD069-7978-4D3C-B543-2EFDE6A4602F";
paths = (
{
closed = 1;
nodes = (
"146 700 OFFCURVE",
"56 575 OFFCURVE",
"56 351 CURVE SMOOTH",
"56 125 OFFCURVE",
"146 0 OFFCURVE",
"308 0 CURVE SMOOTH",
"471 0 OFFCURVE",
"561 125 OFFCURVE",
"561 351 CURVE SMOOTH",
"561 575 OFFCURVE",
"471 700 OFFCURVE",
"308 700 CURVE SMOOTH"
);
},
{
closed = 1;
nodes = (
"458 680 OFFCURVE",
"541 563 OFFCURVE",
"541 351 CURVE SMOOTH",
"541 138 OFFCURVE",
"458 20 OFFCURVE",
"308 20 CURVE SMOOTH",
"158 20 OFFCURVE",
"76 138 OFFCURVE",
"76 351 CURVE SMOOTH",
"76 563 OFFCURVE",
"158 680 OFFCURVE",
"308 680 CURVE SMOOTH"
);
}
);
width = 617;
}
);
note = zero;
unicode = 0030;
},
{
glyphname = one;
layers = (
{
layerId = "66FBD069-7978-4D3C-B543-2EFDE6A4602F";
paths = (
{
closed = 1;
nodes = (
"333 0 LINE",
"333 700 LINE",
"127 700 LINE",
"127 680 LINE",
"314 680 LINE",
"314 0 LINE"
);
}
);
width = 617;
}
);
note = one;
unicode = 0031;
},
{
glyphname = two;
layers = (
{
layerId = "66FBD069-7978-4D3C-B543-2EFDE6A4602F";
paths = (
{
closed = 1;
nodes = (
"203 700 OFFCURVE",
"121 666 OFFCURVE",
"64 609 CURVE",
"78 595 LINE",
"132 648 OFFCURVE",
"208 680 OFFCURVE",
"280 680 CURVE SMOOTH",
"396 680 OFFCURVE",
"467 626 OFFCURVE",
"467 537 CURVE SMOOTH",
"467 482 OFFCURVE",
"421 404 OFFCURVE",
"348 328 CURVE SMOOTH",
"63 29 LINE",
"62 0 LINE",
"542 0 LINE",
"542 20 LINE",
"82 20 LINE",
"362 314 LINE SMOOTH",
"439 394 OFFCURVE",
"487 477 OFFCURVE",
"487 537 CURVE SMOOTH",
"487 638 OFFCURVE",
"408 700 OFFCURVE",
"280 700 CURVE SMOOTH"
);
}
);
width = 617;
}
);
note = two;
unicode = 0032;
},
{
glyphname = three;
layers = (
{
layerId = "66FBD069-7978-4D3C-B543-2EFDE6A4602F";
paths = (
{
closed = 1;
nodes = (
"207 395 LINE",
"483 682 LINE",
"483 700 LINE",
"68 700 LINE",
"68 680 LINE",
"456 680 LINE",
"178 393 LINE",
"178 375 LINE",
"256 375 LINE SMOOTH",
"408 375 OFFCURVE",
"500 317 OFFCURVE",
"500 207 CURVE SMOOTH",
"500 98 OFFCURVE",
"410 20 OFFCURVE",
"259 20 CURVE SMOOTH",
"183 20 OFFCURVE",
"104 42 OFFCURVE",
"49 75 CURVE",
"37 59 LINE",
"96 24 OFFCURVE",
"178 0 OFFCURVE",
"258 0 CURVE SMOOTH",
"420 0 OFFCURVE",
"520 86 OFFCURVE",
"520 211 CURVE SMOOTH",
"520 327 OFFCURVE",
"415 395 OFFCURVE",
"255 395 CURVE SMOOTH"
);
}
);
width = 617;
}
);
note = three;
unicode = 0033;
},
{
glyphname = four;
layers = (
{
layerId = "66FBD069-7978-4D3C-B543-2EFDE6A4602F";
paths = (
{
closed = 1;
nodes = (
"343 700 LINE",
"52 233 LINE",
"52 208 LINE",
"418 208 LINE",
"418 0 LINE",
"438 0 LINE",
"438 208 LINE",
"559 208 LINE",
"559 228 LINE",
"438 228 LINE",
"438 452 LINE",
"418 452 LINE",
"418 228 LINE",
"72 228 LINE",
"366 700 LINE"
);
}
);
width = 617;
}
);
note = four;
unicode = 0034;
},
{
glyphname = five;
layers = (
{
layerId = "66FBD069-7978-4D3C-B543-2EFDE6A4602F";
paths = (
{
closed = 1;
nodes = (
"109 700 LINE",
"109 362 LINE",
"168 384 OFFCURVE",
"241 398 OFFCURVE",
"296 398 CURVE SMOOTH",
"431 398 OFFCURVE",
"519 329 OFFCURVE",
"519 224 CURVE SMOOTH",
"519 101 OFFCURVE",
"431 22 OFFCURVE",
"294 22 CURVE SMOOTH",
"225 22 OFFCURVE",
"137 47 OFFCURVE",
"72 86 CURVE",
"62 70 LINE",
"129 29 OFFCURVE",
"219 2 OFFCURVE",
"294 2 CURVE SMOOTH",
"443 2 OFFCURVE",
"539 89 OFFCURVE",
"539 224 CURVE SMOOTH",
"539 341 OFFCURVE",
"444 418 OFFCURVE",
"296 418 CURVE SMOOTH",
"248 418 OFFCURVE",
"183 407 OFFCURVE",
"129 390 CURVE",
"129 680 LINE",
"512 680 LINE",
"512 700 LINE"
);
}
);
width = 617;
}
);
note = five;
unicode = 0035;
},
{
glyphname = six;
layers = (
{
layerId = "66FBD069-7978-4D3C-B543-2EFDE6A4602F";
paths = (
{
closed = 1;
nodes = (
"172 700 OFFCURVE",
"68 553 OFFCURVE",
"68 331 CURVE SMOOTH",
"68 115 OFFCURVE",
"167 0 OFFCURVE",
"332 0 CURVE SMOOTH",
"470 0 OFFCURVE",
"560 84 OFFCURVE",
"560 222 CURVE SMOOTH",
"560 358 OFFCURVE",
"474 439 OFFCURVE",
"336 439 CURVE SMOOTH",
"204 439 OFFCURVE",
"114 367 OFFCURVE",
"92 249 CURVE",
"68 517 OFFCURVE",
"164 680 OFFCURVE",
"344 680 CURVE SMOOTH",
"401 680 OFFCURVE",
"467 664 OFFCURVE",
"519 638 CURVE",
"529 656 LINE",
"470 683 OFFCURVE",
"401 700 OFFCURVE",
"342 700 CURVE SMOOTH"
);
},
{
closed = 1;
nodes = (
"459 419 OFFCURVE",
"540 345 OFFCURVE",
"540 224 CURVE SMOOTH",
"540 98 OFFCURVE",
"452 20 OFFCURVE",
"327 20 CURVE SMOOTH",
"173 20 OFFCURVE",
"109 137 OFFCURVE",
"109 216 CURVE SMOOTH",
"109 320 OFFCURVE",
"194 419 OFFCURVE",
"336 419 CURVE SMOOTH"
);
}
);
width = 617;
}
);
note = six;
unicode = 0036;
},
{
glyphname = seven;
layers = (
{
layerId = "66FBD069-7978-4D3C-B543-2EFDE6A4602F";
paths = (
{
closed = 1;
nodes = (
"65 700 LINE",
"65 568 LINE",
"85 568 LINE",
"85 680 LINE",
"540 680 LINE",
"194 0 LINE",
"216 0 LINE",
"558 675 LINE",
"558 700 LINE"
);
}
);
width = 617;
}
);
note = seven;
unicode = 0037;
},
{
glyphname = eight;
layers = (
{
layerId = "66FBD069-7978-4D3C-B543-2EFDE6A4602F";
paths = (
{
closed = 1;
nodes = (
"178 700 OFFCURVE",
"97 639 OFFCURVE",
"97 534 CURVE SMOOTH",
"97 452 OFFCURVE",
"145 400 OFFCURVE",
"228 375 CURVE",
"126 351 OFFCURVE",
"64 289 OFFCURVE",
"64 194 CURVE SMOOTH",
"64 71 OFFCURVE",
"157 0 OFFCURVE",
"309 0 CURVE SMOOTH",
"460 0 OFFCURVE",
"553 71 OFFCURVE",
"553 194 CURVE SMOOTH",
"553 289 OFFCURVE",
"491 351 OFFCURVE",
"389 375 CURVE",
"472 400 OFFCURVE",
"520 452 OFFCURVE",
"520 534 CURVE SMOOTH",
"520 639 OFFCURVE",
"440 700 OFFCURVE",
"309 700 CURVE SMOOTH"
);
},
{
closed = 1;
nodes = (
"448 362 OFFCURVE",
"533 297 OFFCURVE",
"533 195 CURVE SMOOTH",
"533 85 OFFCURVE",
"447 20 OFFCURVE",
"309 20 CURVE SMOOTH",
"169 20 OFFCURVE",
"84 86 OFFCURVE",
"84 196 CURVE SMOOTH",
"84 298 OFFCURVE",
"170 362 OFFCURVE",
"308 362 CURVE SMOOTH"
);
},
{
closed = 1;
nodes = (
"428 680 OFFCURVE",
"500 624 OFFCURVE",
"500 532 CURVE SMOOTH",
"500 439 OFFCURVE",
"428 382 OFFCURVE",
"309 382 CURVE SMOOTH",
"190 382 OFFCURVE",
"117 439 OFFCURVE",
"117 532 CURVE SMOOTH",
"117 624 OFFCURVE",
"190 680 OFFCURVE",
"309 680 CURVE SMOOTH"
);
}
);
width = 617;
}
);
note = eight;
unicode = 0038;
},
{
glyphname = nine;
layers = (
{
layerId = "66FBD069-7978-4D3C-B543-2EFDE6A4602F";
paths = (
{
closed = 1;
nodes = (
"449 0 OFFCURVE",
"552 147 OFFCURVE",
"552 369 CURVE SMOOTH",
"552 585 OFFCURVE",
"454 700 OFFCURVE",
"291 700 CURVE SMOOTH",
"154 700 OFFCURVE",
"65 616 OFFCURVE",
"65 478 CURVE SMOOTH",
"65 342 OFFCURVE",
"150 261 OFFCURVE",
"287 261 CURVE SMOOTH",
"417 261 OFFCURVE",
"506 333 OFFCURVE",
"528 451 CURVE",
"552 183 OFFCURVE",
"456 20 OFFCURVE",
"278 20 CURVE SMOOTH",
"222 20 OFFCURVE",
"157 36 OFFCURVE",
"106 62 CURVE",
"96 44 LINE",
"154 17 OFFCURVE",
"222 0 OFFCURVE",
"280 0 CURVE SMOOTH"
);
},
{
closed = 1;
nodes = (
"165 281 OFFCURVE",
"85 355 OFFCURVE",
"85 476 CURVE SMOOTH",
"85 602 OFFCURVE",
"172 680 OFFCURVE",
"296 680 CURVE SMOOTH",
"447 680 OFFCURVE",
"511 563 OFFCURVE",
"511 484 CURVE SMOOTH",
"511 380 OFFCURVE",
"427 281 OFFCURVE",
"287 281 CURVE SMOOTH"
);
}
);
width = 617;
}
);
note = nine;
unicode = 0039;
},
{
glyphname = zero.lf;
layers = (
{
layerId = "66FBD069-7978-4D3C-B543-2EFDE6A4602F";
paths = (
{
closed = 1;
nodes = (
"159 699 OFFCURVE",
"60 574 OFFCURVE",
"60 350 CURVE SMOOTH",
"60 125 OFFCURVE",
"159 0 OFFCURVE",
"336 0 CURVE SMOOTH",
"514 0 OFFCURVE",
"613 125 OFFCURVE",
"613 350 CURVE SMOOTH",
"613 574 OFFCURVE",
"514 699 OFFCURVE",
"336 699 CURVE SMOOTH"
);
},
{
closed = 1;
nodes = (
"501 679 OFFCURVE",
"593 562 OFFCURVE",
"593 350 CURVE SMOOTH",
"593 138 OFFCURVE",
"501 20 OFFCURVE",
"336 20 CURVE SMOOTH",
"171 20 OFFCURVE",
"80 138 OFFCURVE",
"80 350 CURVE SMOOTH",
"80 562 OFFCURVE",
"171 679 OFFCURVE",
"336 679 CURVE SMOOTH"
);
}
);
width = 673;
}
);
},
{
glyphname = one.lf;
layers = (
{
layerId = "66FBD069-7978-4D3C-B543-2EFDE6A4602F";
paths = (
{
closed = 1;
nodes = (
"192 0 LINE",
"192 699 LINE",
"22 699 LINE",
"22 679 LINE",
"172 679 LINE",
"172 0 LINE"
);
}
);
width = 345;
}
);
},
{
glyphname = two.lf;
layers = (
{
layerId = "66FBD069-7978-4D3C-B543-2EFDE6A4602F";
paths = (
{
closed = 1;
nodes = (
"185 699 OFFCURVE",
"107 665 OFFCURVE",
"52 608 CURVE",
"66 594 LINE",
"117 647 OFFCURVE",
"190 679 OFFCURVE",
"258 679 CURVE",
"368 679 OFFCURVE",
"435 625 OFFCURVE",
"435 536 CURVE",
"435 481 OFFCURVE",
"392 402 OFFCURVE",
"321 328 CURVE SMOOTH",
"51 28 LINE",
"51 0 LINE",
"507 0 LINE",
"507 20 LINE",
"71 20 LINE",
"335 314 LINE SMOOTH",
"410 392 OFFCURVE",
"455 476 OFFCURVE",
"455 536 CURVE",
"455 637 OFFCURVE",
"380 699 OFFCURVE",
"258 699 CURVE"
);
}
);
width = 570;
}
);
},
{
glyphname = three.lf;
layers = (
{
layerId = "66FBD069-7978-4D3C-B543-2EFDE6A4602F";
paths = (
{
closed = 1;
nodes = (
"166 394 LINE",
"409 681 LINE",
"409 699 LINE",
"41 699 LINE",
"41 679 LINE",
"382 679 LINE",
"138 392 LINE",
"138 374 LINE",
"208 374 LINE SMOOTH",
"341 374 OFFCURVE",
"422 317 OFFCURVE",
"422 207 CURVE SMOOTH",
"422 98 OFFCURVE",
"343 20 OFFCURVE",
"210 20 CURVE SMOOTH",
"143 20 OFFCURVE",
"74 42 OFFCURVE",
"25 75 CURVE",
"13 59 LINE",
"66 24 OFFCURVE",
"139 0 OFFCURVE",
"210 0 CURVE SMOOTH",
"353 0 OFFCURVE",
"442 86 OFFCURVE",
"442 211 CURVE SMOOTH",
"442 327 OFFCURVE",
"349 394 OFFCURVE",
"208 394 CURVE SMOOTH"
);
}
);
width = 508;
}
);
},
{
glyphname = four.lf;
layers = (
{
layerId = "66FBD069-7978-4D3C-B543-2EFDE6A4602F";
paths = (
{
closed = 1;
nodes = (
"302 699 LINE",
"34 233 LINE",
"34 208 LINE",
"372 208 LINE",
"372 0 LINE",
"392 0 LINE",
"392 208 LINE",
"504 208 LINE",
"504 228 LINE",
"392 228 LINE",
"392 451 LINE",
"372 451 LINE",
"372 228 LINE",
"54 228 LINE",
"325 699 LINE"
);
}
);
width = 543;
}
);
},
{
glyphname = five.lf;
layers = (
{
layerId = "66FBD069-7978-4D3C-B543-2EFDE6A4602F";
paths = (
{
closed = 1;
nodes = (
"89 699 LINE",
"89 361 LINE",
"143 383 OFFCURVE",
"211 397 OFFCURVE",
"262 397 CURVE",
"386 397 OFFCURVE",
"467 329 OFFCURVE",
"467 224 CURVE",
"467 101 OFFCURVE",
"386 22 OFFCURVE",
"260 22 CURVE",
"196 22 OFFCURVE",
"115 47 OFFCURVE",
"55 86 CURVE",
"45 70 LINE",
"107 29 OFFCURVE",
"191 2 OFFCURVE",
"260 2 CURVE",
"398 2 OFFCURVE",
"487 89 OFFCURVE",
"487 224 CURVE",
"487 341 OFFCURVE",
"399 417 OFFCURVE",
"262 417 CURVE",
"218 417 OFFCURVE",
"158 406 OFFCURVE",
"109 389 CURVE",
"109 679 LINE",
"462 679 LINE",
"462 699 LINE"
);
}
);
width = 547;
}
);
},
{
glyphname = six.lf;
layers = (
{
layerId = "66FBD069-7978-4D3C-B543-2EFDE6A4602F";
paths = (
{
closed = 1;
nodes = (
"161 699 OFFCURVE",
"60 552 OFFCURVE",
"60 331 CURVE SMOOTH",
"60 115 OFFCURVE",
"156 0 OFFCURVE",
"316 0 CURVE SMOOTH",
"450 0 OFFCURVE",
"537 84 OFFCURVE",
"537 222 CURVE SMOOTH",
"537 357 OFFCURVE",
"454 438 OFFCURVE",
"320 438 CURVE SMOOTH",
"193 438 OFFCURVE",
"106 366 OFFCURVE",
"84 249 CURVE",
"61 516 OFFCURVE",
"154 679 OFFCURVE",
"328 679 CURVE SMOOTH",
"383 679 OFFCURVE",
"447 663 OFFCURVE",
"497 637 CURVE",
"507 655 LINE",
"450 682 OFFCURVE",
"383 699 OFFCURVE",
"326 699 CURVE SMOOTH"
);
},
{
closed = 1;
nodes = (
"439 418 OFFCURVE",
"517 344 OFFCURVE",
"517 224 CURVE SMOOTH",
"517 98 OFFCURVE",
"432 20 OFFCURVE",
"311 20 CURVE SMOOTH",
"163 20 OFFCURVE",
"101 137 OFFCURVE",
"101 216 CURVE",
"101 320 OFFCURVE",
"183 418 OFFCURVE",
"320 418 CURVE SMOOTH"
);
}
);
width = 587;
}
);
leftMetricsKey = zero.lf;
},
{
glyphname = seven.lf;
layers = (
{
layerId = "66FBD069-7978-4D3C-B543-2EFDE6A4602F";
paths = (
{
closed = 1;
nodes = (
"43 699 LINE",
"43 567 LINE",
"63 567 LINE",
"63 679 LINE",
"473 679 LINE",
"160 0 LINE",
"182 0 LINE",
"492 674 LINE",
"492 699 LINE"
);
}
);
width = 529;
}
);
},
{
glyphname = eight.lf;
layers = (
{
layerId = "66FBD069-7978-4D3C-B543-2EFDE6A4602F";
paths = (
{
closed = 1;
nodes = (
"172 699 OFFCURVE",
"92 638 OFFCURVE",
"92 533 CURVE SMOOTH",
"92 451 OFFCURVE",
"140 399 OFFCURVE",
"221 374 CURVE",
"121 350 OFFCURVE",
"60 289 OFFCURVE",
"60 194 CURVE SMOOTH",
"60 71 OFFCURVE",
"151 0 OFFCURVE",
"301 0 CURVE SMOOTH",
"450 0 OFFCURVE",
"541 71 OFFCURVE",
"541 194 CURVE SMOOTH",
"541 289 OFFCURVE",
"480 350 OFFCURVE",
"380 374 CURVE",
"461 399 OFFCURVE",
"509 451 OFFCURVE",
"509 533 CURVE SMOOTH",
"509 638 OFFCURVE",
"430 699 OFFCURVE",
"301 699 CURVE SMOOTH"
);
},
{
closed = 1;
nodes = (
"438 361 OFFCURVE",
"521 297 OFFCURVE",
"521 195 CURVE SMOOTH",
"521 85 OFFCURVE",
"437 20 OFFCURVE",
"301 20 CURVE SMOOTH",
"163 20 OFFCURVE",
"80 86 OFFCURVE",
"80 196 CURVE SMOOTH",
"80 298 OFFCURVE",
"164 361 OFFCURVE",
"300 361 CURVE SMOOTH"
);
},
{
closed = 1;
nodes = (
"418 679 OFFCURVE",
"489 623 OFFCURVE",
"489 531 CURVE SMOOTH",
"489 438 OFFCURVE",
"418 381 OFFCURVE",
"301 381 CURVE SMOOTH",
"184 381 OFFCURVE",
"112 438 OFFCURVE",
"112 531 CURVE SMOOTH",
"112 623 OFFCURVE",
"184 679 OFFCURVE",
"301 679 CURVE SMOOTH"
);
}
);
width = 601;
}
);
},
{
glyphname = zero.osf;
layers = (
{
layerId = "66FBD069-7978-4D3C-B543-2EFDE6A4602F";
paths = (
{
closed = 1;
nodes = (
"176 599 OFFCURVE",
"60 473 OFFCURVE",
"60 300 CURVE SMOOTH",
"60 126 OFFCURVE",
"176 0 OFFCURVE",
"336 0 CURVE SMOOTH",
"496 0 OFFCURVE",
"613 126 OFFCURVE",
"613 300 CURVE SMOOTH",
"613 473 OFFCURVE",
"496 599 OFFCURVE",
"336 599 CURVE SMOOTH"
);
},
{
closed = 1;
nodes = (
"485 579 OFFCURVE",
"593 461 OFFCURVE",
"593 300 CURVE SMOOTH",
"593 138 OFFCURVE",
"485 20 OFFCURVE",
"336 20 CURVE SMOOTH",
"188 20 OFFCURVE",
"80 138 OFFCURVE",
"80 300 CURVE SMOOTH",
"80 461 OFFCURVE",
"188 579 OFFCURVE",
"336 579 CURVE SMOOTH"
);
}
);
width = 673;
}
);
},
{
glyphname = one.osf;
layers = (
{
layerId = "66FBD069-7978-4D3C-B543-2EFDE6A4602F";
paths = (
{
closed = 1;
nodes = (
"192 0 LINE",
"192 599 LINE",
"22 599 LINE",
"22 579 LINE",
"172 579 LINE",
"172 0 LINE"
);
}
);
width = 345;
}
);
},
{
glyphname = two.osf;
layers = (
{
layerId = "66FBD069-7978-4D3C-B543-2EFDE6A4602F";
paths = (
{
closed = 1;
nodes = (
"177 608 OFFCURVE",
"104 579 OFFCURVE",
"52 529 CURVE",
"65 515 LINE",
"113 561 OFFCURVE",
"182 589 OFFCURVE",
"246 589 CURVE SMOOTH",
"349 589 OFFCURVE",
"411 542 OFFCURVE",
"411 466 CURVE SMOOTH",
"411 418 OFFCURVE",
"371 350 OFFCURVE",
"305 286 CURVE SMOOTH",
"51 26 LINE",
"51 0 LINE",
"480 0 LINE",
"480 20 LINE",
"72 20 LINE",
"319 273 LINE SMOOTH",
"389 341 OFFCURVE",
"432 414 OFFCURVE",
"432 466 CURVE SMOOTH",
"432 554 OFFCURVE",
"361 608 OFFCURVE",
"246 608 CURVE SMOOTH"
);
}
);
width = 543;
}
);
leftMetricsKey = two.lf;
rightMetricsKey = two.lf;
},
{
glyphname = three.osf;
layers = (
{
layerId = "66FBD069-7978-4D3C-B543-2EFDE6A4602F";
paths = (
{
closed = 1;
nodes = (
"166 294 LINE",
"409 581 LINE",
"409 599 LINE",
"41 599 LINE",
"41 579 LINE",
"382 579 LINE",
"138 292 LINE",
"138 274 LINE",
"208 274 LINE SMOOTH",
"341 274 OFFCURVE",
"422 217 OFFCURVE",
"422 107 CURVE SMOOTH",
"422 -2 OFFCURVE",
"343 -80 OFFCURVE",
"210 -80 CURVE SMOOTH",
"143 -80 OFFCURVE",
"74 -58 OFFCURVE",
"25 -25 CURVE",
"13 -41 LINE",
"66 -76 OFFCURVE",
"139 -100 OFFCURVE",
"210 -100 CURVE SMOOTH",
"353 -100 OFFCURVE",
"442 -14 OFFCURVE",
"442 111 CURVE SMOOTH",
"442 227 OFFCURVE",
"349 294 OFFCURVE",
"208 294 CURVE SMOOTH"
);
}
);
width = 508;
}
);
},
{
glyphname = four.osf;
layers = (
{
layerId = "66FBD069-7978-4D3C-B543-2EFDE6A4602F";
paths = (
{
closed = 1;
nodes = (
"302 599 LINE",
"34 133 LINE",
"34 108 LINE",
"372 108 LINE",
"372 -100 LINE",
"392 -100 LINE",
"392 108 LINE",
"504 108 LINE",
"504 128 LINE",
"392 128 LINE",
"392 351 LINE",
"372 351 LINE",
"372 128 LINE",
"54 128 LINE",
"325 599 LINE"
);
}
);
width = 543;
}
);
},
{
glyphname = five.osf;
layers = (
{
layerId = "66FBD069-7978-4D3C-B543-2EFDE6A4602F";
paths = (
{
closed = 1;
nodes = (
"89 599 LINE",
"89 261 LINE",
"143 283 OFFCURVE",
"211 297 OFFCURVE",
"262 297 CURVE",
"386 297 OFFCURVE",
"467 229 OFFCURVE",
"467 124 CURVE",
"467 1 OFFCURVE",
"386 -78 OFFCURVE",
"260 -78 CURVE",
"196 -78 OFFCURVE",
"115 -53 OFFCURVE",
"55 -14 CURVE",
"45 -30 LINE",
"107 -71 OFFCURVE",
"191 -98 OFFCURVE",
"260 -98 CURVE",
"398 -98 OFFCURVE",
"487 -11 OFFCURVE",
"487 124 CURVE",
"487 241 OFFCURVE",
"399 317 OFFCURVE",
"262 317 CURVE",
"218 317 OFFCURVE",
"158 306 OFFCURVE",
"109 289 CURVE",
"109 579 LINE",
"462 579 LINE",
"462 599 LINE"
);
}
);
width = 547;
}
);
},
{
glyphname = six.osf;
layers = (
{
layerId = "66FBD069-7978-4D3C-B543-2EFDE6A4602F";
paths = (
{
closed = 1;
nodes = (
"161 699 OFFCURVE",
"60 552 OFFCURVE",
"60 331 CURVE SMOOTH",
"60 115 OFFCURVE",
"156 0 OFFCURVE",
"316 0 CURVE SMOOTH",
"450 0 OFFCURVE",
"537 84 OFFCURVE",
"537 222 CURVE SMOOTH",
"537 357 OFFCURVE",
"454 438 OFFCURVE",
"320 438 CURVE SMOOTH",
"193 438 OFFCURVE",
"106 366 OFFCURVE",
"84 249 CURVE",
"61 516 OFFCURVE",
"154 679 OFFCURVE",
"328 679 CURVE SMOOTH",
"383 679 OFFCURVE",
"447 663 OFFCURVE",
"497 637 CURVE",
"507 655 LINE",
"450 682 OFFCURVE",
"383 699 OFFCURVE",
"326 699 CURVE SMOOTH"
);
},
{
closed = 1;
nodes = (
"439 418 OFFCURVE",
"517 344 OFFCURVE",
"517 224 CURVE SMOOTH",
"517 98 OFFCURVE",
"432 20 OFFCURVE",
"311 20 CURVE SMOOTH",
"163 20 OFFCURVE",
"101 137 OFFCURVE",
"101 216 CURVE",
"101 320 OFFCURVE",
"183 418 OFFCURVE",
"320 418 CURVE SMOOTH"
);
}
);
width = 587;
}
);
leftMetricsKey = zero.lf;
},
{
glyphname = seven.osf;
layers = (
{
layerId = "66FBD069-7978-4D3C-B543-2EFDE6A4602F";
paths = (
{
closed = 1;
nodes = (
"43 599 LINE",
"43 467 LINE",
"63 467 LINE",
"63 579 LINE",
"473 579 LINE",
"160 -100 LINE",
"182 -100 LINE",
"492 574 LINE",
"492 599 LINE"
);
}
);
width = 529;
}
);
},
{
glyphname = eight.osf;
layers = (
{
layerId = "66FBD069-7978-4D3C-B543-2EFDE6A4602F";
paths = (
{
closed = 1;
nodes = (
"172 699 OFFCURVE",
"92 638 OFFCURVE",
"92 533 CURVE SMOOTH",
"92 451 OFFCURVE",
"140 399 OFFCURVE",
"221 374 CURVE",
"121 350 OFFCURVE",
"60 289 OFFCURVE",
"60 194 CURVE SMOOTH",
"60 71 OFFCURVE",
"151 0 OFFCURVE",
"301 0 CURVE SMOOTH",
"450 0 OFFCURVE",
"541 71 OFFCURVE",
"541 194 CURVE SMOOTH",
"541 289 OFFCURVE",
"480 350 OFFCURVE",
"380 374 CURVE",
"461 399 OFFCURVE",
"509 451 OFFCURVE",
"509 533 CURVE SMOOTH",
"509 638 OFFCURVE",
"430 699 OFFCURVE",
"301 699 CURVE SMOOTH"
);
},
{
closed = 1;
nodes = (
"438 361 OFFCURVE",
"521 297 OFFCURVE",
"521 195 CURVE SMOOTH",
"521 85 OFFCURVE",
"437 20 OFFCURVE",
"301 20 CURVE SMOOTH",
"163 20 OFFCURVE",
"80 86 OFFCURVE",
"80 196 CURVE SMOOTH",
"80 298 OFFCURVE",
"164 361 OFFCURVE",
"300 361 CURVE SMOOTH"
);
},
{
closed = 1;
nodes = (
"418 679 OFFCURVE",
"489 623 OFFCURVE",
"489 531 CURVE SMOOTH",
"489 438 OFFCURVE",
"418 381 OFFCURVE",
"301 381 CURVE SMOOTH",
"184 381 OFFCURVE",
"112 438 OFFCURVE",
"112 531 CURVE SMOOTH",
"112 623 OFFCURVE",
"184 679 OFFCURVE",
"301 679 CURVE SMOOTH"
);
}
);
width = 601;
}
);
},
{
glyphname = zero.tosf;
layers = (
{
layerId = "66FBD069-7978-4D3C-B543-2EFDE6A4602F";
paths = (
{
closed = 1;
nodes = (
"156 600 OFFCURVE",
"46 474 OFFCURVE",
"46 301 CURVE SMOOTH",
"46 126 OFFCURVE",
"156 0 OFFCURVE",
"308 0 CURVE SMOOTH",
"460 0 OFFCURVE",
"571 126 OFFCURVE",
"571 301 CURVE SMOOTH",
"571 474 OFFCURVE",
"460 600 OFFCURVE",
"308 600 CURVE SMOOTH"
);
},
{
closed = 1;
nodes = (
"449 580 OFFCURVE",
"551 462 OFFCURVE",
"551 301 CURVE SMOOTH",
"551 138 OFFCURVE",
"449 20 OFFCURVE",
"308 20 CURVE SMOOTH",
"168 20 OFFCURVE",
"66 138 OFFCURVE",
"66 301 CURVE SMOOTH",
"66 462 OFFCURVE",
"168 580 OFFCURVE",
"308 580 CURVE SMOOTH"
);
}
);
width = 617;
}
);
userData = {
RMXScaler = {
source = zero.osf;
};
};
},
{
glyphname = one.tosf;
layers = (
{
layerId = "66FBD069-7978-4D3C-B543-2EFDE6A4602F";
paths = (
{
closed = 1;
nodes = (
"338 0 LINE",
"338 600 LINE",
"132 600 LINE",
"132 580 LINE",
"319 580 LINE",
"319 0 LINE"
);
}
);
width = 617;
}
);
userData = {
RMXScaler = {
source = one.osf;
};
};
},
{
glyphname = two.tosf;
layers = (
{
layerId = "66FBD069-7978-4D3C-B543-2EFDE6A4602F";
paths = (
{
closed = 1;
nodes = (
"206 609 OFFCURVE",
"126 580 OFFCURVE",
"70 530 CURVE",
"84 516 LINE",
"136 562 OFFCURVE",
"211 590 OFFCURVE",
"281 590 CURVE SMOOTH",
"393 590 OFFCURVE",
"461 543 OFFCURVE",
"461 467 CURVE SMOOTH",
"461 419 OFFCURVE",
"417 352 OFFCURVE",
"346 286 CURVE SMOOTH",
"69 27 LINE",
"69 0 LINE",
"535 0 LINE",
"535 20 LINE",
"88 20 LINE",
"360 273 LINE SMOOTH",
"435 342 OFFCURVE",
"482 415 OFFCURVE",
"482 467 CURVE SMOOTH",
"482 555 OFFCURVE",
"405 609 OFFCURVE",
"280 609 CURVE SMOOTH"
);
}
);
width = 617;
}
);
userData = {
RMXScaler = {
source = two.osf;
};
};
},
{
glyphname = three.tosf;
layers = (
{
layerId = "66FBD069-7978-4D3C-B543-2EFDE6A4602F";
paths = (
{
closed = 1;
nodes = (
"207 295 LINE",
"483 582 LINE",
"483 600 LINE",
"68 600 LINE",
"68 580 LINE",
"456 580 LINE",
"178 293 LINE",
"178 275 LINE",
"256 275 LINE SMOOTH",
"408 275 OFFCURVE",
"500 217 OFFCURVE",
"500 107 CURVE SMOOTH",
"500 -2 OFFCURVE",
"410 -80 OFFCURVE",
"259 -80 CURVE SMOOTH",
"183 -80 OFFCURVE",
"104 -58 OFFCURVE",
"49 -25 CURVE",
"37 -41 LINE",
"96 -76 OFFCURVE",
"178 -100 OFFCURVE",
"258 -100 CURVE SMOOTH",
"420 -100 OFFCURVE",
"520 -14 OFFCURVE",
"520 111 CURVE SMOOTH",
"520 227 OFFCURVE",
"415 295 OFFCURVE",
"255 295 CURVE SMOOTH"
);
}
);
width = 617;
}
);
},
{
glyphname = four.tosf;
layers = (
{
layerId = "66FBD069-7978-4D3C-B543-2EFDE6A4602F";
paths = (
{
closed = 1;
nodes = (
"343 600 LINE",
"52 133 LINE",
"52 108 LINE",
"418 108 LINE",
"418 -100 LINE",
"438 -100 LINE",
"438 108 LINE",
"559 108 LINE",
"559 128 LINE",
"438 128 LINE",
"438 352 LINE",
"418 352 LINE",
"418 128 LINE",
"72 128 LINE",
"366 600 LINE"
);
}
);
width = 617;
}
);
},
{
glyphname = five.tosf;
layers = (
{
layerId = "66FBD069-7978-4D3C-B543-2EFDE6A4602F";
paths = (
{
closed = 1;
nodes = (
"109 600 LINE",
"109 262 LINE",
"168 284 OFFCURVE",
"241 298 OFFCURVE",
"296 298 CURVE",
"431 298 OFFCURVE",
"519 229 OFFCURVE",
"519 124 CURVE",
"519 1 OFFCURVE",
"431 -78 OFFCURVE",
"294 -78 CURVE",
"225 -78 OFFCURVE",
"137 -53 OFFCURVE",
"72 -14 CURVE",
"62 -30 LINE",
"129 -71 OFFCURVE",
"219 -98 OFFCURVE",
"294 -98 CURVE",
"443 -98 OFFCURVE",
"539 -11 OFFCURVE",
"539 124 CURVE",
"539 241 OFFCURVE",
"444 318 OFFCURVE",
"296 318 CURVE",
"248 318 OFFCURVE",
"183 307 OFFCURVE",
"129 290 CURVE",
"129 580 LINE",
"512 580 LINE",
"512 600 LINE"
);
}
);
width = 617;
}
);
},
{
glyphname = six.tosf;
layers = (
{
layerId = "66FBD069-7978-4D3C-B543-2EFDE6A4602F";
paths = (
{
closed = 1;
nodes = (
"172 700 OFFCURVE",
"68 553 OFFCURVE",
"68 331 CURVE SMOOTH",
"68 115 OFFCURVE",
"167 0 OFFCURVE",
"332 0 CURVE SMOOTH",
"470 0 OFFCURVE",
"560 84 OFFCURVE",
"560 222 CURVE SMOOTH",
"560 358 OFFCURVE",
"474 439 OFFCURVE",
"336 439 CURVE SMOOTH",
"204 439 OFFCURVE",
"114 367 OFFCURVE",
"92 249 CURVE",
"68 517 OFFCURVE",
"164 680 OFFCURVE",
"344 680 CURVE SMOOTH",
"401 680 OFFCURVE",
"467 664 OFFCURVE",
"519 638 CURVE",
"529 656 LINE",
"470 683 OFFCURVE",
"401 700 OFFCURVE",
"342 700 CURVE SMOOTH"
);
},
{
closed = 1;
nodes = (
"459 419 OFFCURVE",
"540 345 OFFCURVE",
"540 224 CURVE SMOOTH",
"540 98 OFFCURVE",
"452 20 OFFCURVE",
"327 20 CURVE SMOOTH",
"173 20 OFFCURVE",
"109 137 OFFCURVE",
"109 216 CURVE",
"109 320 OFFCURVE",
"194 419 OFFCURVE",
"336 419 CURVE SMOOTH"
);
}
);
width = 617;
}
);
},
{
glyphname = seven.tosf;
layers = (
{
layerId = "66FBD069-7978-4D3C-B543-2EFDE6A4602F";
paths = (
{
closed = 1;
nodes = (
"65 600 LINE",
"65 468 LINE",
"85 468 LINE",
"85 580 LINE",
"540 580 LINE",
"194 -100 LINE",
"216 -100 LINE",
"558 575 LINE",
"558 600 LINE"
);
}
);
width = 617;
}
);
},
{
glyphname = eight.tosf;
layers = (
{
layerId = "66FBD069-7978-4D3C-B543-2EFDE6A4602F";
paths = (
{
closed = 1;
nodes = (
"178 700 OFFCURVE",
"97 639 OFFCURVE",
"97 534 CURVE SMOOTH",
"97 452 OFFCURVE",
"145 400 OFFCURVE",
"228 375 CURVE",
"126 351 OFFCURVE",
"64 289 OFFCURVE",
"64 194 CURVE SMOOTH",
"64 71 OFFCURVE",
"157 0 OFFCURVE",
"309 0 CURVE SMOOTH",
"460 0 OFFCURVE",
"553 71 OFFCURVE",
"553 194 CURVE SMOOTH",
"553 289 OFFCURVE",
"491 351 OFFCURVE",
"389 375 CURVE",
"472 400 OFFCURVE",
"520 452 OFFCURVE",
"520 534 CURVE SMOOTH",
"520 639 OFFCURVE",
"440 700 OFFCURVE",
"309 700 CURVE SMOOTH"
);
},
{
closed = 1;
nodes = (
"448 362 OFFCURVE",
"533 297 OFFCURVE",
"533 195 CURVE SMOOTH",
"533 85 OFFCURVE",
"447 20 OFFCURVE",
"309 20 CURVE SMOOTH",
"169 20 OFFCURVE",
"84 86 OFFCURVE",
"84 196 CURVE SMOOTH",
"84 298 OFFCURVE",
"170 362 OFFCURVE",
"308 362 CURVE SMOOTH"
);
},
{
closed = 1;
nodes = (
"428 680 OFFCURVE",
"500 624 OFFCURVE",
"500 532 CURVE SMOOTH",
"500 439 OFFCURVE",
"428 382 OFFCURVE",
"309 382 CURVE SMOOTH",
"190 382 OFFCURVE",
"117 439 OFFCURVE",
"117 532 CURVE SMOOTH",
"117 624 OFFCURVE",
"190 680 OFFCURVE",
"309 680 CURVE SMOOTH"
);
}
);
width = 617;
}
);
},
{
glyphname = nine.tosf;
layers = (
{
layerId = "66FBD069-7978-4D3C-B543-2EFDE6A4602F";
paths = (
{
closed = 1;
nodes = (
"449 -100 OFFCURVE",
"552 47 OFFCURVE",
"552 269 CURVE SMOOTH",
"552 485 OFFCURVE",
"454 600 OFFCURVE",
"291 600 CURVE SMOOTH",
"154 600 OFFCURVE",
"65 516 OFFCURVE",
"65 378 CURVE SMOOTH",
"65 242 OFFCURVE",
"150 161 OFFCURVE",
"287 161 CURVE SMOOTH",
"417 161 OFFCURVE",
"506 233 OFFCURVE",
"528 351 CURVE",
"552 83 OFFCURVE",
"456 -80 OFFCURVE",
"278 -80 CURVE SMOOTH",
"222 -80 OFFCURVE",
"157 -64 OFFCURVE",
"106 -38 CURVE",
"96 -56 LINE",
"154 -83 OFFCURVE",
"222 -100 OFFCURVE",
"280 -100 CURVE SMOOTH"
);
},
{
closed = 1;
nodes = (
"165 181 OFFCURVE",
"85 255 OFFCURVE",
"85 376 CURVE SMOOTH",
"85 502 OFFCURVE",
"172 580 OFFCURVE",
"296 580 CURVE SMOOTH",
"447 580 OFFCURVE",
"511 463 OFFCURVE",
"511 384 CURVE",
"511 280 OFFCURVE",
"427 181 OFFCURVE",
"287 181 CURVE SMOOTH"
);
}
);
width = 617;
}
);
},
{
glyphname = zero.dnom;
layers = (
{
layerId = "66FBD069-7978-4D3C-B543-2EFDE6A4602F";
paths = (
{
closed = 1;
nodes = (
"110 406 OFFCURVE",
"50 333 OFFCURVE",
"50 203 CURVE SMOOTH",
"50 72 OFFCURVE",
"110 0 OFFCURVE",
"217 0 CURVE SMOOTH",
"325 0 OFFCURVE",
"386 72 OFFCURVE",
"386 203 CURVE SMOOTH",
"386 333 OFFCURVE",
"325 406 OFFCURVE",
"217 406 CURVE SMOOTH"
);
},
{
closed = 1;
nodes = (
"312 388 OFFCURVE",
"364 323 OFFCURVE",
"364 203 CURVE SMOOTH",
"364 83 OFFCURVE",
"312 18 OFFCURVE",
"217 18 CURVE SMOOTH",
"123 18 OFFCURVE",
"71 83 OFFCURVE",
"71 203 CURVE SMOOTH",
"71 323 OFFCURVE",
"123 388 OFFCURVE",
"217 388 CURVE SMOOTH"
);
}
);
width = 436;
}
);
},
{
glyphname = one.dnom;
layers = (
{
layerId = "66FBD069-7978-4D3C-B543-2EFDE6A4602F";
paths = (
{
closed = 1;
nodes = (
"137 406 LINE",
"27 406 LINE",
"27 387 LINE",
"116 387 LINE",
"116 0 LINE",
"137 0 LINE"
);
}
);
width = 241;
}
);
},
{
glyphname = two.dnom;
layers = (
{
layerId = "66FBD069-7978-4D3C-B543-2EFDE6A4602F";
paths = (
{
closed = 1;
nodes = (
"127 406 OFFCURVE",
"79 386 OFFCURVE",
"44 352 CURVE",
"56 337 LINE",
"87 368 OFFCURVE",
"131 387 OFFCURVE",
"171 387 CURVE",
"234 387 OFFCURVE",
"272 357 OFFCURVE",
"272 309 CURVE",
"272 278 OFFCURVE",
"247 234 OFFCURVE",
"206 193 CURVE SMOOTH",
"45 21 LINE",
"45 0 LINE",
"323 0 LINE",
"323 19 LINE",
"69 19 LINE",
"220 181 LINE SMOOTH",
"266 226 OFFCURVE",
"293 274 OFFCURVE",
"293 310 CURVE",
"293 369 OFFCURVE",
"247 406 OFFCURVE",
"173 406 CURVE"
);
}
);
width = 374;
}
);
},
{
glyphname = three.dnom;
layers = (
{
layerId = "66FBD069-7978-4D3C-B543-2EFDE6A4602F";
paths = (
{
closed = 1;
nodes = (
"123 230 LINE",
"265 390 LINE",
"265 405 LINE",
"39 405 LINE",
"39 387 LINE",
"239 387 LINE",
"97 228 LINE",
"97 213 LINE",
"142 213 LINE SMOOTH",
"218 213 OFFCURVE",
"264 181 OFFCURVE",
"264 121 CURVE SMOOTH",
"264 61 OFFCURVE",
"219 18 OFFCURVE",
"143 18 CURVE SMOOTH",
"103 18 OFFCURVE",
"62 31 OFFCURVE",
"33 52 CURVE",
"22 35 LINE",
"54 14 OFFCURVE",
"100 0 OFFCURVE",
"144 0 CURVE SMOOTH",
"231 0 OFFCURVE",
"285 50 OFFCURVE",
"285 123 CURVE SMOOTH",
"285 190 OFFCURVE",
"230 229 OFFCURVE",
"148 230 CURVE SMOOTH"
);
}
);
width = 338;
}
);
},
{
glyphname = four.dnom;
layers = (
{
layerId = "66FBD069-7978-4D3C-B543-2EFDE6A4602F";
paths = (
{
closed = 1;
nodes = (
"215 406 LINE",
"193 406 LINE",
"35 138 LINE",
"35 117 LINE",
"237 117 LINE",
"237 0 LINE",
"258 0 LINE",
"258 117 LINE",
"324 117 LINE",
"324 135 LINE",
"258 135 LINE",
"258 261 LINE",
"237 261 LINE",
"237 135 LINE",
"56 135 LINE"
);
}
);
width = 361;
}
);
},
{
glyphname = five.dnom;
layers = (
{
layerId = "66FBD069-7978-4D3C-B543-2EFDE6A4602F";
paths = (
{
closed = 1;
nodes = (
"296 406 LINE",
"67 406 LINE",
"67 206 LINE",
"99 218 OFFCURVE",
"143 225 OFFCURVE",
"172 225 CURVE",
"244 225 OFFCURVE",
"290 188 OFFCURVE",
"290 130 CURVE",
"290 62 OFFCURVE",
"244 19 OFFCURVE",
"171 19 CURVE",
"133 19 OFFCURVE",
"85 34 OFFCURVE",
"50 58 CURVE",
"40 41 LINE",
"78 17 OFFCURVE",
"130 1 OFFCURVE",
"172 1 CURVE",
"257 1 OFFCURVE",
"311 52 OFFCURVE",
"311 131 CURVE",
"311 199 OFFCURVE",
"258 243 OFFCURVE",
"174 243 CURVE",
"150 243 OFFCURVE",
"115 237 OFFCURVE",
"88 228 CURVE",
"88 387 LINE",
"296 387 LINE"
);
}
);
width = 360;
}
);
},
{
glyphname = six.dnom;
layers = (
{
layerId = "66FBD069-7978-4D3C-B543-2EFDE6A4602F";
paths = (
{
closed = 1;
nodes = (
"112 406 OFFCURVE",
"50 321 OFFCURVE",
"50 193 CURVE SMOOTH",
"50 67 OFFCURVE",
"109 0 OFFCURVE",
"206 0 CURVE SMOOTH",
"288 0 OFFCURVE",
"341 49 OFFCURVE",
"341 129 CURVE SMOOTH",
"341 208 OFFCURVE",
"291 255 OFFCURVE",
"210 255 CURVE SMOOTH",
"137 255 OFFCURVE",
"86 216 OFFCURVE",
"73 152 CURVE",
"60 298 OFFCURVE",
"114 387 OFFCURVE",
"214 387 CURVE SMOOTH",
"247 387 OFFCURVE",
"285 378 OFFCURVE",
"315 363 CURVE",
"324 380 LINE",
"290 396 OFFCURVE",
"248 406 OFFCURVE",
"213 406 CURVE SMOOTH"
);
},
{
closed = 1;
nodes = (
"276 237 OFFCURVE",
"321 197 OFFCURVE",
"321 131 CURVE SMOOTH",
"321 61 OFFCURVE",
"272 18 OFFCURVE",
"203 18 CURVE SMOOTH",
"119 18 OFFCURVE",
"83 82 OFFCURVE",
"83 126 CURVE",
"83 184 OFFCURVE",
"130 237 OFFCURVE",
"208 237 CURVE SMOOTH"
);
}
);
width = 385;
}
);
},
{
glyphname = seven.dnom;
layers = (
{
layerId = "66FBD069-7978-4D3C-B543-2EFDE6A4602F";
paths = (
{
closed = 1;
nodes = (
"315 406 LINE",
"40 406 LINE",
"40 323 LINE",
"60 323 LINE",
"60 387 LINE",
"294 387 LINE",
"109 0 LINE",
"132 0 LINE",
"315 385 LINE"
);
}
);
width = 351;
}
);
},
{
glyphname = eight.dnom;
layers = (
{
layerId = "66FBD069-7978-4D3C-B543-2EFDE6A4602F";
paths = (
{
closed = 1;
nodes = (
"118 406 OFFCURVE",
"69 370 OFFCURVE",
"69 309 CURVE SMOOTH",
"69 262 OFFCURVE",
"97 232 OFFCURVE",
"145 217 CURVE",
"86 203 OFFCURVE",
"50 167 OFFCURVE",
"50 113 CURVE SMOOTH",
"50 41 OFFCURVE",
"105 0 OFFCURVE",
"197 0 CURVE SMOOTH",
"288 0 OFFCURVE",
"343 41 OFFCURVE",
"343 113 CURVE SMOOTH",
"343 167 OFFCURVE",
"308 203 OFFCURVE",
"249 217 CURVE",
"296 232 OFFCURVE",
"324 262 OFFCURVE",
"324 308 CURVE SMOOTH",
"324 370 OFFCURVE",
"275 406 OFFCURVE",
"197 406 CURVE SMOOTH"
);
},
{
closed = 1;
nodes = (
"276 206 OFFCURVE",
"323 171 OFFCURVE",
"323 114 CURVE SMOOTH",
"323 53 OFFCURVE",
"275 18 OFFCURVE",
"197 18 CURVE SMOOTH",
"117 18 OFFCURVE",
"70 54 OFFCURVE",
"70 115 CURVE SMOOTH",
"70 171 OFFCURVE",
"118 206 OFFCURVE",
"196 206 CURVE SMOOTH"
);
},
{
closed = 1;
nodes = (
"264 389 OFFCURVE",
"305 358 OFFCURVE",
"305 307 CURVE SMOOTH",
"305 255 OFFCURVE",
"264 224 OFFCURVE",
"197 224 CURVE SMOOTH",
"129 224 OFFCURVE",
"88 255 OFFCURVE",
"88 307 CURVE SMOOTH",
"88 358 OFFCURVE",
"129 389 OFFCURVE",
"197 389 CURVE SMOOTH"
);
}
);
width = 393;
}
);
},
{
glyphname = nine.dnom;
layers = (
{
layerId = "66FBD069-7978-4D3C-B543-2EFDE6A4602F";
paths = (
{
closed = 1;
nodes = (
"278 0 OFFCURVE",
"340 85 OFFCURVE",
"340 213 CURVE SMOOTH",
"340 338 OFFCURVE",
"282 406 OFFCURVE",
"184 406 CURVE SMOOTH",
"102 406 OFFCURVE",
"49 357 OFFCURVE",
"49 276 CURVE SMOOTH",
"49 198 OFFCURVE",
"99 150 OFFCURVE",
"180 150 CURVE SMOOTH",
"254 150 OFFCURVE",
"304 190 OFFCURVE",
"318 254 CURVE",
"331 107 OFFCURVE",
"277 18 OFFCURVE",
"176 18 CURVE SMOOTH",
"143 18 OFFCURVE",
"105 27 OFFCURVE",
"76 43 CURVE",
"66 26 LINE",
"101 10 OFFCURVE",
"142 0 OFFCURVE",
"178 0 CURVE SMOOTH"
);
},
{
closed = 1;
nodes = (
"114 168 OFFCURVE",
"70 209 OFFCURVE",
"70 275 CURVE SMOOTH",
"70 344 OFFCURVE",
"118 387 OFFCURVE",
"187 387 CURVE SMOOTH",
"272 387 OFFCURVE",
"307 323 OFFCURVE",
"307 279 CURVE",
"307 222 OFFCURVE",
"261 168 OFFCURVE",
"182 168 CURVE SMOOTH"
);
}
);
width = 390;
}
);
},
{
glyphname = zero.numr;
layers = (
{
layerId = "66FBD069-7978-4D3C-B543-2EFDE6A4602F";
paths = (
{
closed = 1;
nodes = (
"110 699 OFFCURVE",
"50 626 OFFCURVE",
"50 496 CURVE SMOOTH",
"50 365 OFFCURVE",
"110 293 OFFCURVE",
"217 293 CURVE SMOOTH",
"325 293 OFFCURVE",
"386 365 OFFCURVE",
"386 496 CURVE SMOOTH",
"386 626 OFFCURVE",
"325 699 OFFCURVE",
"217 699 CURVE SMOOTH"
);
},
{
closed = 1;
nodes = (
"312 681 OFFCURVE",
"364 616 OFFCURVE",
"364 496 CURVE SMOOTH",
"364 376 OFFCURVE",
"312 311 OFFCURVE",
"217 311 CURVE SMOOTH",
"123 311 OFFCURVE",
"71 376 OFFCURVE",
"71 496 CURVE SMOOTH",
"71 616 OFFCURVE",
"123 681 OFFCURVE",
"217 681 CURVE SMOOTH"
);
}
);
width = 436;
}
);
},
{
glyphname = one.numr;
layers = (
{
layerId = "66FBD069-7978-4D3C-B543-2EFDE6A4602F";
paths = (
{
closed = 1;
nodes = (
"137 699 LINE",
"27 699 LINE",
"27 680 LINE",
"116 680 LINE",
"116 293 LINE",
"137 293 LINE"
);
}
);
width = 241;
}
);
},
{
glyphname = two.numr;
layers = (
{
layerId = "66FBD069-7978-4D3C-B543-2EFDE6A4602F";
paths = (
{
closed = 1;
nodes = (
"127 699 OFFCURVE",
"79 679 OFFCURVE",
"44 645 CURVE",
"56 630 LINE",
"87 661 OFFCURVE",
"131 680 OFFCURVE",
"171 680 CURVE",
"234 680 OFFCURVE",
"272 650 OFFCURVE",
"272 602 CURVE",
"272 571 OFFCURVE",
"247 527 OFFCURVE",
"206 486 CURVE SMOOTH",
"45 314 LINE",
"45 293 LINE",
"323 293 LINE",
"323 312 LINE",
"69 312 LINE",
"220 474 LINE SMOOTH",
"266 519 OFFCURVE",
"293 567 OFFCURVE",
"293 603 CURVE",
"293 662 OFFCURVE",
"247 699 OFFCURVE",
"173 699 CURVE"
);
}
);
width = 374;
}
);
},
{
glyphname = three.numr;
layers = (
{
layerId = "66FBD069-7978-4D3C-B543-2EFDE6A4602F";
paths = (
{
closed = 1;
nodes = (
"123 523 LINE",
"265 683 LINE",
"265 698 LINE",
"39 698 LINE",
"39 680 LINE",
"239 680 LINE",
"97 521 LINE",
"97 506 LINE",
"142 506 LINE SMOOTH",
"218 506 OFFCURVE",
"264 474 OFFCURVE",
"264 414 CURVE SMOOTH",
"264 354 OFFCURVE",
"219 311 OFFCURVE",
"143 311 CURVE SMOOTH",
"103 311 OFFCURVE",
"62 324 OFFCURVE",
"33 345 CURVE",
"22 328 LINE",
"54 307 OFFCURVE",
"100 293 OFFCURVE",
"144 293 CURVE SMOOTH",
"231 293 OFFCURVE",
"285 343 OFFCURVE",
"285 416 CURVE SMOOTH",
"285 483 OFFCURVE",
"230 522 OFFCURVE",
"148 523 CURVE SMOOTH"
);
}
);
width = 338;
}
);
},
{
glyphname = four.numr;
layers = (
{
layerId = "66FBD069-7978-4D3C-B543-2EFDE6A4602F";
paths = (
{
closed = 1;
nodes = (
"215 699 LINE",
"193 699 LINE",
"35 431 LINE",
"35 410 LINE",
"237 410 LINE",
"237 293 LINE",
"258 293 LINE",
"258 410 LINE",
"324 410 LINE",
"324 428 LINE",
"258 428 LINE",
"258 554 LINE",
"237 554 LINE",
"237 428 LINE",
"56 428 LINE"
);
}
);
width = 361;
}
);
},
{
glyphname = five.numr;
layers = (
{
layerId = "66FBD069-7978-4D3C-B543-2EFDE6A4602F";
paths = (
{
closed = 1;
nodes = (
"296 699 LINE",
"67 699 LINE",
"67 499 LINE",
"99 511 OFFCURVE",
"143 518 OFFCURVE",
"172 518 CURVE",
"244 518 OFFCURVE",
"290 481 OFFCURVE",
"290 423 CURVE",
"290 355 OFFCURVE",
"244 312 OFFCURVE",
"171 312 CURVE",
"133 312 OFFCURVE",
"85 327 OFFCURVE",
"50 351 CURVE",
"40 334 LINE",
"78 310 OFFCURVE",
"130 294 OFFCURVE",
"172 294 CURVE",
"257 294 OFFCURVE",
"311 345 OFFCURVE",
"311 424 CURVE",
"311 492 OFFCURVE",
"258 536 OFFCURVE",
"174 536 CURVE",
"150 536 OFFCURVE",
"115 530 OFFCURVE",
"88 521 CURVE",
"88 680 LINE",
"296 680 LINE"
);
}
);
width = 360;
}
);
},
{
glyphname = six.numr;
layers = (
{
layerId = "66FBD069-7978-4D3C-B543-2EFDE6A4602F";
paths = (
{
closed = 1;
nodes = (
"112 699 OFFCURVE",
"50 614 OFFCURVE",
"50 486 CURVE SMOOTH",
"50 360 OFFCURVE",
"109 293 OFFCURVE",
"206 293 CURVE SMOOTH",
"288 293 OFFCURVE",
"341 342 OFFCURVE",
"341 422 CURVE SMOOTH",
"341 501 OFFCURVE",
"291 548 OFFCURVE",
"210 548 CURVE SMOOTH",
"137 548 OFFCURVE",
"86 509 OFFCURVE",
"73 445 CURVE",
"60 591 OFFCURVE",
"114 680 OFFCURVE",
"214 680 CURVE SMOOTH",
"247 680 OFFCURVE",
"285 671 OFFCURVE",
"315 656 CURVE",
"324 673 LINE",
"290 689 OFFCURVE",
"248 699 OFFCURVE",
"213 699 CURVE SMOOTH"
);
},
{
closed = 1;
nodes = (
"276 530 OFFCURVE",
"321 490 OFFCURVE",
"321 424 CURVE SMOOTH",
"321 354 OFFCURVE",
"272 311 OFFCURVE",
"203 311 CURVE SMOOTH",
"119 311 OFFCURVE",
"83 375 OFFCURVE",
"83 419 CURVE",
"83 477 OFFCURVE",
"130 530 OFFCURVE",
"208 530 CURVE SMOOTH"
);
}
);
width = 385;
}
);
},
{
glyphname = seven.numr;
layers = (
{
layerId = "66FBD069-7978-4D3C-B543-2EFDE6A4602F";
paths = (
{
closed = 1;
nodes = (
"315 699 LINE",
"40 699 LINE",
"40 616 LINE",
"60 616 LINE",
"60 680 LINE",
"294 680 LINE",
"109 293 LINE",
"132 293 LINE",
"315 678 LINE"
);
}
);
width = 351;
}
);
},
{
glyphname = eight.numr;
layers = (
{
layerId = "66FBD069-7978-4D3C-B543-2EFDE6A4602F";
paths = (
{
closed = 1;
nodes = (
"118 699 OFFCURVE",
"69 663 OFFCURVE",
"69 602 CURVE SMOOTH",
"69 555 OFFCURVE",
"97 525 OFFCURVE",
"145 510 CURVE",
"86 496 OFFCURVE",
"50 460 OFFCURVE",
"50 406 CURVE SMOOTH",
"50 334 OFFCURVE",
"105 293 OFFCURVE",
"197 293 CURVE SMOOTH",
"288 293 OFFCURVE",
"343 334 OFFCURVE",
"343 406 CURVE SMOOTH",
"343 460 OFFCURVE",
"308 496 OFFCURVE",
"249 510 CURVE",
"296 525 OFFCURVE",
"324 555 OFFCURVE",
"324 601 CURVE SMOOTH",
"324 663 OFFCURVE",
"275 699 OFFCURVE",
"197 699 CURVE SMOOTH"
);
},
{
closed = 1;
nodes = (
"276 499 OFFCURVE",
"323 464 OFFCURVE",
"323 407 CURVE SMOOTH",
"323 346 OFFCURVE",
"275 311 OFFCURVE",
"197 311 CURVE SMOOTH",
"117 311 OFFCURVE",
"70 347 OFFCURVE",
"70 408 CURVE SMOOTH",
"70 464 OFFCURVE",
"118 499 OFFCURVE",
"196 499 CURVE SMOOTH"
);
},
{
closed = 1;
nodes = (
"264 682 OFFCURVE",
"305 651 OFFCURVE",
"305 600 CURVE SMOOTH",
"305 548 OFFCURVE",
"264 517 OFFCURVE",
"197 517 CURVE SMOOTH",
"129 517 OFFCURVE",
"88 548 OFFCURVE",
"88 600 CURVE SMOOTH",
"88 651 OFFCURVE",
"129 682 OFFCURVE",
"197 682 CURVE SMOOTH"
);
}
);
width = 393;
}
);
},
{
glyphname = nine.numr;
layers = (
{
layerId = "66FBD069-7978-4D3C-B543-2EFDE6A4602F";
paths = (
{
closed = 1;
nodes = (
"278 293 OFFCURVE",
"340 378 OFFCURVE",
"340 506 CURVE SMOOTH",
"340 631 OFFCURVE",
"282 699 OFFCURVE",
"184 699 CURVE SMOOTH",
"102 699 OFFCURVE",
"49 650 OFFCURVE",
"49 569 CURVE SMOOTH",
"49 491 OFFCURVE",
"99 443 OFFCURVE",
"180 443 CURVE SMOOTH",
"254 443 OFFCURVE",
"304 483 OFFCURVE",
"318 547 CURVE",
"331 400 OFFCURVE",
"277 311 OFFCURVE",
"176 311 CURVE SMOOTH",
"143 311 OFFCURVE",
"105 320 OFFCURVE",
"76 336 CURVE",
"66 319 LINE",
"101 303 OFFCURVE",
"142 293 OFFCURVE",
"178 293 CURVE SMOOTH"
);
},
{
closed = 1;
nodes = (
"114 461 OFFCURVE",
"70 502 OFFCURVE",
"70 568 CURVE SMOOTH",
"70 637 OFFCURVE",
"118 680 OFFCURVE",
"187 680 CURVE SMOOTH",
"272 680 OFFCURVE",
"307 616 OFFCURVE",
"307 572 CURVE",
"307 515 OFFCURVE",
"261 461 OFFCURVE",
"182 461 CURVE SMOOTH"
);
}
);
width = 390;
}
);
},
{
glyphname = onesuperior;
layers = (
{
layerId = "66FBD069-7978-4D3C-B543-2EFDE6A4602F";
paths = (
{
closed = 1;
nodes = (
"137 699 LINE",
"27 699 LINE",
"27 680 LINE",
"116 680 LINE",
"116 293 LINE",
"137 293 LINE"
);
}
);
width = 241;
}
);
unicode = 00B9;
},
{
glyphname = twosuperior;
layers = (
{
layerId = "66FBD069-7978-4D3C-B543-2EFDE6A4602F";
paths = (
{
closed = 1;
nodes = (
"127 699 OFFCURVE",
"79 679 OFFCURVE",
"44 645 CURVE",
"56 630 LINE",
"87 661 OFFCURVE",
"131 680 OFFCURVE",
"171 680 CURVE",
"234 680 OFFCURVE",
"272 650 OFFCURVE",
"272 602 CURVE",
"272 571 OFFCURVE",
"247 527 OFFCURVE",
"206 486 CURVE SMOOTH",
"45 314 LINE",
"45 293 LINE",
"323 293 LINE",
"323 312 LINE",
"69 312 LINE",
"220 474 LINE SMOOTH",
"266 519 OFFCURVE",
"293 567 OFFCURVE",
"293 603 CURVE",
"293 662 OFFCURVE",
"247 699 OFFCURVE",
"173 699 CURVE"
);
}
);
width = 374;
}
);
unicode = 00B2;
},
{
glyphname = threesuperior;
layers = (
{
layerId = "66FBD069-7978-4D3C-B543-2EFDE6A4602F";
paths = (
{
closed = 1;
nodes = (
"123 523 LINE",
"265 683 LINE",
"265 698 LINE",
"39 698 LINE",
"39 680 LINE",
"239 680 LINE",
"97 521 LINE",
"97 506 LINE",
"142 506 LINE SMOOTH",
"218 506 OFFCURVE",
"264 474 OFFCURVE",
"264 414 CURVE SMOOTH",
"264 354 OFFCURVE",
"219 311 OFFCURVE",
"143 311 CURVE SMOOTH",
"103 311 OFFCURVE",
"62 324 OFFCURVE",
"33 345 CURVE",
"22 328 LINE",
"54 307 OFFCURVE",
"100 293 OFFCURVE",
"144 293 CURVE SMOOTH",
"231 293 OFFCURVE",
"285 343 OFFCURVE",
"285 416 CURVE SMOOTH",
"285 483 OFFCURVE",
"230 522 OFFCURVE",
"148 523 CURVE SMOOTH"
);
}
);
width = 338;
}
);
unicode = 00B3;
},
{
glyphname = fraction;
layers = (
{
layerId = "66FBD069-7978-4D3C-B543-2EFDE6A4602F";
paths = (
{
closed = 1;
nodes = (
"284 699 LINE",
"258 699 LINE",
"-280 0 LINE",
"-254 0 LINE"
);
}
);
width = 20;
}
);
unicode = 2044;
},
{
glyphname = "zero-gurmukhi";
layers = (
{
layerId = "66FBD069-7978-4D3C-B543-2EFDE6A4602F";
paths = (
{
closed = 1;
nodes = (
"528 41 OFFCURVE",
"652 166 OFFCURVE",
"652 340 CURVE SMOOTH",
"652 513 OFFCURVE",
"528 638 OFFCURVE",
"362 638 CURVE SMOOTH",
"196 638 OFFCURVE",
"72 513 OFFCURVE",
"72 340 CURVE SMOOTH",
"72 166 OFFCURVE",
"196 41 OFFCURVE",
"362 41 CURVE SMOOTH"
);
},
{
closed = 1;
nodes = (
"206 61 OFFCURVE",
"92 175 OFFCURVE",
"92 340 CURVE SMOOTH",
"92 504 OFFCURVE",
"206 618 OFFCURVE",
"362 618 CURVE SMOOTH",
"518 618 OFFCURVE",
"632 504 OFFCURVE",
"632 340 CURVE SMOOTH",
"632 175 OFFCURVE",
"518 61 OFFCURVE",
"362 61 CURVE SMOOTH"
);
}
);
width = 724;
}
);
unicode = 0A66;
},
{
glyphname = "one-gurmukhi";
layers = (
{
layerId = "66FBD069-7978-4D3C-B543-2EFDE6A4602F";
paths = (
{
closed = 1;
nodes = (
"480 0 LINE",
"480 458 LINE SMOOTH",
"480 574 OFFCURVE",
"406 680 OFFCURVE",
"262 680 CURVE SMOOTH",
"127 680 OFFCURVE",
"60 589 OFFCURVE",
"60 498 CURVE SMOOTH",
"60 408 OFFCURVE",
"127 317 OFFCURVE",
"259 317 CURVE SMOOTH",
"344 317 OFFCURVE",
"427 356 OFFCURVE",
"479 451 CURVE",
"460 428 LINE",
"460 0 LINE"
);
},
{
closed = 1;
nodes = (
"140 337 OFFCURVE",
"80 418 OFFCURVE",
"80 499 CURVE SMOOTH",
"80 580 OFFCURVE",
"140 660 OFFCURVE",
"262 660 CURVE SMOOTH",
"406 660 OFFCURVE",
"472 546 OFFCURVE",
"458 426 CURVE",
"474 485 LINE",
"436 395 OFFCURVE",
"358 337 OFFCURVE",
"259 337 CURVE SMOOTH"
);
}
);
width = 600;
}
);
unicode = 0A67;
},
{
glyphname = "two-gurmukhi";
layers = (
{
layerId = "66FBD069-7978-4D3C-B543-2EFDE6A4602F";
paths = (
{
closed = 1;
nodes = (
"528 3 LINE",
"527 135 OFFCURVE",
"454 242 OFFCURVE",
"331 279 CURVE",
"337 269 LINE",
"479 283 OFFCURVE",
"547 376 OFFCURVE",
"547 471 CURVE SMOOTH",
"547 575 OFFCURVE",
"464 680 OFFCURVE",
"303 680 CURVE SMOOTH",
"228 680 OFFCURVE",
"142 663 OFFCURVE",
"75 630 CURVE",
"84 611 LINE",
"140 639 OFFCURVE",
"216 660 OFFCURVE",
"303 660 CURVE SMOOTH",
"450 660 OFFCURVE",
"528 565 OFFCURVE",
"528 471 CURVE SMOOTH",
"528 374 OFFCURVE",
"447 278 OFFCURVE",
"277 284 CURVE",
"342 278 LINE",
"309 292 OFFCURVE",
"253 295 OFFCURVE",
"198 295 CURVE SMOOTH",
"174 295 OFFCURVE",
"136 295 OFFCURVE",
"98 290 CURVE",
"98 270 LINE",
"135 266 OFFCURVE",
"172 263 OFFCURVE",
"214 263 CURVE SMOOTH",
"251 263 OFFCURVE",
"299 266 OFFCURVE",
"336 267 CURVE",
"275 271 LINE",
"419 255 OFFCURVE",
"508 146 OFFCURVE",
"508 4 CURVE",
"508 0 LINE",
"528 0 LINE"
);
}
);
width = 622;
}
);
unicode = 0A68;
},
{
glyphname = "three-gurmukhi";
layers = (
{
layerId = "66FBD069-7978-4D3C-B543-2EFDE6A4602F";
paths = (
{
closed = 1;
nodes = (
"219 -118 LINE",
"219 11 LINE",
"189 17 LINE",
"222 2 OFFCURVE",
"262 0 OFFCURVE",
"288 0 CURVE SMOOTH",
"450 0 OFFCURVE",
"545 80 OFFCURVE",
"545 189 CURVE SMOOTH",
"545 274 OFFCURVE",
"487 365 OFFCURVE",
"343 369 CURVE",
"358 361 LINE",
"501 377 OFFCURVE",
"545 451 OFFCURVE",
"545 516 CURVE SMOOTH",
"545 608 OFFCURVE",
"458 680 OFFCURVE",
"303 680 CURVE SMOOTH",
"228 680 OFFCURVE",
"142 663 OFFCURVE",
"75 630 CURVE",
"84 611 LINE",
"139 639 OFFCURVE",
"214 660 OFFCURVE",
"299 660 CURVE SMOOTH",
"445 660 OFFCURVE",
"525 599 OFFCURVE",
"525 515 CURVE SMOOTH",
"525 450 OFFCURVE",
"476 374 OFFCURVE",
"288 375 CURVE",
"363 372 LINE",
"332 383 OFFCURVE",
"269 384 OFFCURVE",
"208 384 CURVE SMOOTH",
"189 384 OFFCURVE",
"158 384 OFFCURVE",
"128 380 CURVE",
"128 360 LINE",
"159 356 OFFCURVE",
"189 353 OFFCURVE",
"224 353 CURVE SMOOTH",
"261 353 OFFCURVE",
"312 356 OFFCURVE",
"344 359 CURVE",
"265 358 LINE",
"472 364 OFFCURVE",
"525 266 OFFCURVE",
"525 189 CURVE SMOOTH",
"525 87 OFFCURVE",
"430 20 OFFCURVE",
"298 20 CURVE SMOOTH",
"255 20 OFFCURVE",
"215 27 OFFCURVE",
"178 36 CURVE",
"221 15 LINE",
"178 56 OFFCURVE",
"145 68 OFFCURVE",
"87 72 CURVE",
"82 53 LINE",
"115 32 OFFCURVE",
"156 19 OFFCURVE",
"199 10 CURVE",
"199 -110 LINE",
"199 -118 LINE"
);
}
);
width = 620;
}
);
unicode = 0A69;
},
{
glyphname = "four-gurmukhi";
layers = (
{
layerId = "66FBD069-7978-4D3C-B543-2EFDE6A4602F";
paths = (
{
closed = 1;
nodes = (
"478 0 OFFCURVE",
"568 78 OFFCURVE",
"568 180 CURVE SMOOTH",
"568 268 OFFCURVE",
"500 331 OFFCURVE",
"387 346 CURVE",
"386 333 LINE",
"511 348 OFFCURVE",
"587 414 OFFCURVE",
"587 509 CURVE SMOOTH",
"587 596 OFFCURVE",
"524 665 OFFCURVE",
"415 680 CURVE",
"412 661 LINE",
"511 647 OFFCURVE",
"567 586 OFFCURVE",
"567 508 CURVE SMOOTH",
"567 411 OFFCURVE",
"477 350 OFFCURVE",
"331 350 CURVE SMOOTH",
"185 350 OFFCURVE",
"95 410 OFFCURVE",
"95 508 CURVE SMOOTH",
"95 589 OFFCURVE",
"157 648 OFFCURVE",
"255 661 CURVE",
"252 680 LINE",
"139 666 OFFCURVE",
"75 597 OFFCURVE",
"75 509 CURVE SMOOTH",
"75 414 OFFCURVE",
"151 348 OFFCURVE",
"277 333 CURVE",
"276 346 LINE",
"164 331 OFFCURVE",
"96 267 OFFCURVE",
"96 180 CURVE SMOOTH",
"96 78 OFFCURVE",
"186 0 OFFCURVE",
"332 0 CURVE SMOOTH"
);
},
{
closed = 1;
nodes = (
"197 20 OFFCURVE",
"116 91 OFFCURVE",
"116 179 CURVE SMOOTH",
"116 267 OFFCURVE",
"197 330 OFFCURVE",
"331 330 CURVE SMOOTH",
"464 330 OFFCURVE",
"548 267 OFFCURVE",
"548 178 CURVE SMOOTH",
"548 90 OFFCURVE",
"465 20 OFFCURVE",
"332 20 CURVE SMOOTH"
);
}
);
width = 662;
}
);
unicode = 0A6A;
},
{
glyphname = "five-gurmukhi";
layers = (
{
layerId = "66FBD069-7978-4D3C-B543-2EFDE6A4602F";
paths = (
{
closed = 1;
nodes = (
"385 181 OFFCURVE",
"472 202 OFFCURVE",
"529 241 CURVE",
"529 268 LINE",
"474 223 OFFCURVE",
"381 201 OFFCURVE",
"300 201 CURVE SMOOTH",
"170 201 OFFCURVE",
"102 258 OFFCURVE",
"84 339 CURVE",
"79 324 LINE",
"145 367 OFFCURVE",
"184 437 OFFCURVE",
"184 523 CURVE SMOOTH",
"184 576 OFFCURVE",
"169 640 OFFCURVE",
"138 680 CURVE",
"122 670 LINE",
"127 663 LINE",
"152 627 OFFCURVE",
"164 572 OFFCURVE",
"164 526 CURVE SMOOTH",
"164 449 OFFCURVE",
"130 380 OFFCURVE",
"65 338 CURVE",
"86 239 OFFCURVE",
"161 181 OFFCURVE",
"301 181 CURVE SMOOTH"
);
},
{
closed = 1;
nodes = (
"538 0 LINE",
"538 680 LINE",
"518 680 LINE",
"518 0 LINE"
);
}
);
width = 658;
}
);
unicode = 0A6B;
},
{
glyphname = "six-gurmukhi";
layers = (
{
layerId = "66FBD069-7978-4D3C-B543-2EFDE6A4602F";
paths = (
{
closed = 1;
nodes = (
"424 -3 OFFCURVE",
"492 19 OFFCURVE",
"528 39 CURVE",
"519 58 LINE",
"464 32 OFFCURVE",
"402 17 OFFCURVE",
"341 17 CURVE SMOOTH",
"198 17 OFFCURVE",
"95 84 OFFCURVE",
"95 187 CURVE SMOOTH",
"95 263 OFFCURVE",
"152 359 OFFCURVE",
"372 355 CURVE",
"292 358 LINE",
"317 352 OFFCURVE",
"365 350 OFFCURVE",
"395 350 CURVE SMOOTH",
"432 350 OFFCURVE",
"461 353 OFFCURVE",
"492 357 CURVE",
"492 377 LINE",
"462 381 OFFCURVE",
"431 381 OFFCURVE",
"412 381 CURVE SMOOTH",
"358 381 OFFCURVE",
"304 379 OFFCURVE",
"277 368 CURVE",
"354 372 LINE",
"148 372 OFFCURVE",
"95 448 OFFCURVE",
"95 512 CURVE SMOOTH",
"95 596 OFFCURVE",
"183 657 OFFCURVE",
"337 657 CURVE SMOOTH",
"372 657 OFFCURVE",
"401 653 OFFCURVE",
"429 647 CURVE",
"386 670 LINE",
"404 645 OFFCURVE",
"434 627 OFFCURVE",
"475 617 CURVE SMOOTH",
"489 614 OFFCURVE",
"504 611 OFFCURVE",
"520 610 CURVE",
"529 629 LINE",
"478 654 OFFCURVE",
"431 668 OFFCURVE",
"382 675 CURVE",
"434 653 LINE",
"402 670 OFFCURVE",
"381 699 OFFCURVE",
"381 739 CURVE SMOOTH",
"381 812 OFFCURVE",
"438 847 OFFCURVE",
"493 847 CURVE SMOOTH",
"514 847 OFFCURVE",
"536 842 OFFCURVE",
"553 831 CURVE",
"562 849 LINE",
"543 862 OFFCURVE",
"519 868 OFFCURVE",
"494 868 CURVE SMOOTH",
"430 868 OFFCURVE",
"361 825 OFFCURVE",
"361 741 CURVE SMOOTH",
"361 713 OFFCURVE",
"371 686 OFFCURVE",
"389 663 CURVE",
"408 669 LINE",
"386 674 OFFCURVE",
"360 677 OFFCURVE",
"334 677 CURVE SMOOTH",
"171 677 OFFCURVE",
"75 605 OFFCURVE",
"75 514 CURVE SMOOTH",
"75 445 OFFCURVE",
"131 362 OFFCURVE",
"314 360 CURVE",
"306 366 LINE",
"142 364 OFFCURVE",
"75 271 OFFCURVE",
"75 185 CURVE SMOOTH",
"75 77 OFFCURVE",
"181 -3 OFFCURVE",
"346 -3 CURVE SMOOTH"
);
}
);
width = 614;
}
);
unicode = 0A6C;
},
{
glyphname = "seven-gurmukhi";
layers = (
{
layerId = "66FBD069-7978-4D3C-B543-2EFDE6A4602F";
paths = (
{
closed = 1;
nodes = (
"221 680 OFFCURVE",
"152 589 OFFCURVE",
"152 498 CURVE SMOOTH",
"152 448 OFFCURVE",
"173 397 OFFCURVE",
"215 362 CURVE",
"229 376 LINE",
"191 407 OFFCURVE",
"172 453 OFFCURVE",
"172 498 CURVE SMOOTH",
"172 580 OFFCURVE",
"234 660 OFFCURVE",
"350 660 CURVE SMOOTH",
"486 660 OFFCURVE",
"552 550 OFFCURVE",
"552 377 CURVE SMOOTH",
"552 139 OFFCURVE",
"424 20 OFFCURVE",
"222 20 CURVE SMOOTH",
"163 20 OFFCURVE",
"110 31 OFFCURVE",
"62 51 CURVE",
"53 32 LINE",
"85 17 OFFCURVE",
"144 0 OFFCURVE",
"221 0 CURVE SMOOTH",
"445 0 OFFCURVE",
"572 138 OFFCURVE",
"572 376 CURVE SMOOTH",
"572 560 OFFCURVE",
"498 680 OFFCURVE",
"350 680 CURVE SMOOTH"
);
}
);
width = 625;
}
);
unicode = 0A6D;
},
{
glyphname = "eight-gurmukhi";
layers = (
{
layerId = "66FBD069-7978-4D3C-B543-2EFDE6A4602F";
paths = (
{
closed = 1;
nodes = (
"519 0 OFFCURVE",
"574 17 OFFCURVE",
"604 32 CURVE",
"595 51 LINE",
"550 31 OFFCURVE",
"499 20 OFFCURVE",
"446 20 CURVE SMOOTH",
"292 20 OFFCURVE",
"195 110 OFFCURVE",
"195 270 CURVE SMOOTH",
"195 511 LINE",
"595 511 LINE",
"594 531 LINE",
"187 531 LINE",
"162 549 OFFCURVE",
"146 551 OFFCURVE",
"80 556 CURVE",
"75 537 LINE",
"101 525 OFFCURVE",
"133 511 OFFCURVE",
"175 511 CURVE",
"175 269 LINE SMOOTH",
"175 106 OFFCURVE",
"273 0 OFFCURVE",
"448 0 CURVE SMOOTH"
);
}
);
width = 679;
}
);
unicode = 0A6E;
},
{
glyphname = "nine-gurmukhi";
layers = (
{
components = (
{
name = "eight-gurmukhi";
}
);
layerId = "66FBD069-7978-4D3C-B543-2EFDE6A4602F";
paths = (
{
closed = 1;
nodes = (
"559 500 OFFCURVE",
"583 504 OFFCURVE",
"603 513 CURVE",
"594 531 LINE",
"576 524 OFFCURVE",
"554 521 OFFCURVE",
"532 521 CURVE SMOOTH",
"478 521 OFFCURVE",
"421 560 OFFCURVE",
"420 644 CURVE SMOOTH",
"421 723 OFFCURVE",
"478 760 OFFCURVE",
"532 760 CURVE SMOOTH",
"553 760 OFFCURVE",
"575 755 OFFCURVE",
"592 744 CURVE",
"601 762 LINE",
"582 775 OFFCURVE",
"558 781 OFFCURVE",
"533 781 CURVE SMOOTH",
"469 781 OFFCURVE",
"400 735 OFFCURVE",
"400 644 CURVE SMOOTH",
"400 549 OFFCURVE",
"469 500 OFFCURVE",
"533 500 CURVE SMOOTH"
);
}
);
width = 679;
}
);
leftMetricsKey = "eight-gurmukhi";
unicode = 0A6F;
},
{
glyphname = asterisk;
layers = (
{
layerId = "66FBD069-7978-4D3C-B543-2EFDE6A4602F";
paths = (
{
closed = 1;
nodes = (
"268 532 LINE",
"167 590 LINE",
"268 648 LINE",
"259 665 LINE",
"158 606 LINE",
"158 723 LINE",
"140 723 LINE",
"140 606 LINE",
"39 665 LINE",
"30 648 LINE",
"130 590 LINE",
"30 532 LINE",
"39 515 LINE",
"140 574 LINE",
"140 457 LINE",
"158 457 LINE",
"158 574 LINE",
"259 515 LINE"
);
}
);
width = 298;
}
);
unicode = 002A;
},
{
glyphname = bullet;
layers = (
{
layerId = "66FBD069-7978-4D3C-B543-2EFDE6A4602F";
paths = (
{
closed = 1;
nodes = (
"77 309 OFFCURVE",
"59 291 OFFCURVE",
"59 270 CURVE SMOOTH",
"59 249 OFFCURVE",
"77 231 OFFCURVE",
"98 231 CURVE SMOOTH",
"119 231 OFFCURVE",
"137 249 OFFCURVE",
"137 270 CURVE SMOOTH",
"137 291 OFFCURVE",
"119 309 OFFCURVE",
"98 309 CURVE SMOOTH"
);
}
);
width = 196;
}
);
leftMetricsKey = period;
rightMetricsKey = period;
unicode = 2022;
},
{
glyphname = comma;
layers = (
{
layerId = "66FBD069-7978-4D3C-B543-2EFDE6A4602F";
paths = (
{
closed = 1;
nodes = (
"52 -54 LINE",
"72 -54 LINE",
"103 -7 LINE SMOOTH",
"109 2 OFFCURVE",
"113 9 OFFCURVE",
"113 18 CURVE SMOOTH",
"113 33 OFFCURVE",
"101 45 OFFCURVE",
"87 45 CURVE SMOOTH",
"73 45 OFFCURVE",
"61 34 OFFCURVE",
"61 19 CURVE SMOOTH",
"61 7 OFFCURVE",
"68 -4 OFFCURVE",
"80 -7 CURVE",
"85 4 LINE"
);
}
);
width = 170;
}
);
unicode = 002C;
},
{
glyphname = exclam;
layers = (
{
components = (
{
name = period;
transform = "{1, 0, 0, 1, 11, 0}";
}
);
layerId = "66FBD069-7978-4D3C-B543-2EFDE6A4602F";
paths = (
{
closed = 1;
nodes = (
"86 682 LINE",
"86 520 LINE",
"86 188 LINE",
"106 188 LINE",
"106 520 LINE",
"106 682 LINE"
);
}
);
width = 192;
}
);
unicode = 0021;
},
{
glyphname = exclamdown;
layers = (
{
layerId = "66FBD069-7978-4D3C-B543-2EFDE6A4602F";
paths = (
{
closed = 1;
nodes = (
"106 -166 LINE",
"106 -4 LINE",
"106 328 LINE",
"86 328 LINE",
"86 -4 LINE",
"86 -166 LINE"
);
},
{
closed = 1;
nodes = (
"110 471 OFFCURVE",
"122 483 OFFCURVE",
"122 497 CURVE SMOOTH",
"122 511 OFFCURVE",
"110 523 OFFCURVE",
"96 523 CURVE SMOOTH",
"82 523 OFFCURVE",
"70 511 OFFCURVE",
"70 497 CURVE SMOOTH",
"70 483 OFFCURVE",
"82 471 OFFCURVE",
"96 471 CURVE SMOOTH"
);
}
);
width = 192;
}
);
leftMetricsKey = exclam;
rightMetricsKey = exclam;
unicode = 00A1;
},
{
glyphname = numbersign;
layers = (
{
layerId = "66FBD069-7978-4D3C-B543-2EFDE6A4602F";
paths = (
{
closed = 1;
nodes = (
"450 0 LINE",
"536 699 LINE",
"516 699 LINE",
"430 0 LINE"
);
},
{
closed = 1;
nodes = (
"626 228 LINE",
"46 228 LINE",
"47 208 LINE",
"627 208 LINE"
);
},
{
closed = 1;
nodes = (
"190 0 LINE",
"276 699 LINE",
"256 699 LINE",
"170 0 LINE"
);
},
{
closed = 1;
nodes = (
"658 488 LINE",
"78 488 LINE",
"79 468 LINE",
"659 468 LINE"
);
}
);
width = 707;
}
);
unicode = 0023;
},
{
glyphname = period;
layers = (
{
layerId = "66FBD069-7978-4D3C-B543-2EFDE6A4602F";
paths = (
{
closed = 1;
nodes = (
"71 45 OFFCURVE",
"59 33 OFFCURVE",
"59 19 CURVE SMOOTH",
"59 5 OFFCURVE",
"71 -7 OFFCURVE",
"85 -7 CURVE SMOOTH",
"99 -7 OFFCURVE",
"111 5 OFFCURVE",
"111 19 CURVE SMOOTH",
"111 33 OFFCURVE",
"99 45 OFFCURVE",
"85 45 CURVE SMOOTH"
);
}
);
width = 170;
}
);
unicode = 002E;
},
